SplineFontDB: 3.2
FontName: BallingerMono-Medium
FullName: Ballinger Mono Medium
FamilyName: BallingerMono-Medium
Weight: Medium
Copyright: Copyright \\(c\\) 2018 by the Signal Type Foundry. All rights reserved.
Version: 001.300
ItalicAngle: 0
UnderlinePosition: -350
UnderlineWidth: 208
Ascent: 1920
Descent: 480
InvalidEm: 0
sfntRevision: 0x00014ccc
LayerCount: 2
Layer: 0 0 "Back" 1
Layer: 1 0 "Fore" 0
XUID: [1021 325 108634951 4658]
StyleMap: 0x0040
FSType: 8
OS2Version: 3
OS2_WeightWidthSlopeOnly: 0
OS2_UseTypoMetrics: 0
CreationTime: 1547566985
ModificationTime: 1635672781
PfmFamily: 81
TTFWeight: 500
TTFWidth: 5
LineGap: 0
VLineGap: 0
Panose: 0 0 6 0 0 0 0 0 0 0
OS2TypoAscent: 1920
OS2TypoAOffset: 0
OS2TypoDescent: -480
OS2TypoDOffset: 0
OS2TypoLinegap: 480
OS2WinAscent: 2400
OS2WinAOffset: 0
OS2WinDescent: 480
OS2WinDOffset: 0
HheadAscent: 2400
HheadAOffset: 0
HheadDescent: -480
HheadDOffset: 0
OS2SubXSize: 1560
OS2SubYSize: 1440
OS2SubXOff: 0
OS2SubYOff: 180
OS2SupXSize: 1560
OS2SupYSize: 1440
OS2SupXOff: 0
OS2SupYOff: 840
OS2StrikeYSize: 208
OS2StrikeYPos: 749
OS2CapHeight: 1633
OS2XHeight: 1249
OS2Vendor: 'UKWN'
OS2CodePages: 20000013.00000000
OS2UnicodeRanges: 00000007.00000000.00000000.00000000
Lookup: 1 0 0 "'aalt' Access All Alternates in Latin lookup 0" { "'aalt' Access All Alternates in Latin lookup 0 subtable"  } ['aalt' ('DFLT' <'dflt' > 'latn' <'AZE ' 'CAT ' 'CRT ' 'KAZ ' 'TAT ' 'TRK ' 'dflt' > ) ]
Lookup: 3 0 0 "'aalt' Access All Alternates in Latin lookup 1" { "'aalt' Access All Alternates in Latin lookup 1 subtable"  } ['aalt' ('DFLT' <'dflt' > 'latn' <'AZE ' 'CAT ' 'CRT ' 'KAZ ' 'TAT ' 'TRK ' 'dflt' > ) ]

StartChar: .notdef
Encoding: 65536 -1 0
Width: 1440
Flags: MW
HStem: 0 271<459 981 459 1263> 1363 271<459 981 459 459>
VStem: 176 283<271 271 271 1363> 981 282<271 1363 1363 1363>
LayerCount: 2
Fore
SplineSet
176 0 m 1
 176 1634 l 1
 1263 1634 l 1
 1263 0 l 1
 176 0 l 1
459 271 m 1
 981 271 l 1
 981 1363 l 1
 459 1363 l 1
 459 271 l 1
EndSplineSet
EndChar

StartChar: A
Encoding: 65 65 2
Width: 1440
GlyphClass: 2
Flags: MW
HStem: 0 21G<63 361 63 63 1079 1377 1079 1079> 377 243<523 917 523 980 460 917> 1613 20G<509 931 931 931>
VStem: 63 1314<0 0>
AnchorPoint: "Anchor-3" 0 0 basechar 0
AnchorPoint: "Anchor-2" 0 0 basechar 0
AnchorPoint: "Anchor-1" 0 0 basechar 0
AnchorPoint: "Anchor-0" 720 1633 basechar 0
LayerCount: 2
Fore
SplineSet
1079 0 m 1
 980 377 l 1
 460 377 l 1
 361 0 l 1
 63 0 l 1
 509 1633 l 1
 931 1633 l 1
 1377 0 l 1
 1079 0 l 1
523 620 m 1
 917 620 l 1
 865 817 l 2
 813 1016 775 1172 723 1395 c 1
 717 1395 l 1
 665 1172 628 1016 575 817 c 2
 523 620 l 1
EndSplineSet
Substitution2: "Single Substitution lookup 28 subtable" ordfeminine
Substitution2: "'aalt' Access All Alternates in Latin lookup 0 subtable" ordfeminine
EndChar

StartChar: Aacute
Encoding: 193 193 3
Width: 1440
GlyphClass: 2
Flags: MW
HStem: 0 21G<63 361 63 63 1079 1377 1079 1079> 377 243<523 917 523 980 460 917> 1613 20G<509 931 931 931> 1782 310<727 838 596 1085>
VStem: 63 1314<0 0>
AnchorPoint: "Anchor-3" 0 0 basechar 0
AnchorPoint: "Anchor-2" 0 0 basechar 0
AnchorPoint: "Anchor-1" 0 0 basechar 0
AnchorPoint: "Anchor-0" 720 1633 basechar 0
LayerCount: 2
Fore
SplineSet
1085 2092 m 1
 838 1782 l 1
 596 1782 l 1
 727 2092 l 1
 1085 2092 l 1
1079 0 m 1
 980 377 l 1
 460 377 l 1
 361 0 l 1
 63 0 l 1
 509 1633 l 1
 931 1633 l 1
 1377 0 l 1
 1079 0 l 1
523 620 m 1
 917 620 l 1
 865 817 l 2
 813 1016 775 1172 723 1395 c 1
 717 1395 l 1
 665 1172 628 1016 575 817 c 2
 523 620 l 1
EndSplineSet
EndChar

StartChar: Abreve
Encoding: 258 258 4
Width: 1440
GlyphClass: 2
Flags: MW
HStem: 0 21G<63 361 63 63 1079 1377 1079 1079> 377 243<523 917 523 980 460 917> 1613 20G<509 931 931 931> 1748 179<661 778.5 661 839.5>
VStem: 1079 45
AnchorPoint: "Anchor-3" 0 0 basechar 0
AnchorPoint: "Anchor-2" 0 0 basechar 0
AnchorPoint: "Anchor-1" 0 0 basechar 0
AnchorPoint: "Anchor-0" 720 1633 basechar 0
LayerCount: 2
Fore
SplineSet
720 1748 m 0
 481 1748 333 1860 315 2085 c 1
 505 2102 l 1
 526 1989 602 1927 720 1927 c 0
 837 1927 913 1989 934 2102 c 1
 1124 2085 l 1
 1107 1860 959 1748 720 1748 c 0
1079 0 m 1
 980 377 l 1
 460 377 l 1
 361 0 l 1
 63 0 l 1
 509 1633 l 1
 931 1633 l 1
 1377 0 l 1
 1079 0 l 1
523 620 m 1
 917 620 l 1
 865 817 l 2
 813 1016 775 1172 723 1395 c 1
 717 1395 l 1
 665 1172 628 1016 575 817 c 2
 523 620 l 1
EndSplineSet
EndChar

StartChar: Acircumflex
Encoding: 194 194 5
Width: 1440
GlyphClass: 2
Flags: MW
HStem: 0 21G<63 361 63 63 1079 1377 1079 1079> 377 243<523 917 523 980 460 917> 1613 20G<509 931 931 931> 1782 310<524 540 319 916 900 900 900 916 524 1120>
VStem: 63 1314<0 0>
AnchorPoint: "Anchor-3" 0 0 basechar 0
AnchorPoint: "Anchor-2" 0 0 basechar 0
AnchorPoint: "Anchor-1" 0 0 basechar 0
AnchorPoint: "Anchor-0" 720 1633 basechar 0
LayerCount: 2
Fore
SplineSet
720 1953 m 1
 540 1782 l 1
 319 1782 l 1
 524 2092 l 1
 916 2092 l 1
 1120 1782 l 1
 900 1782 l 1
 720 1953 l 1
1079 0 m 1
 980 377 l 1
 460 377 l 1
 361 0 l 1
 63 0 l 1
 509 1633 l 1
 931 1633 l 1
 1377 0 l 1
 1079 0 l 1
523 620 m 1
 917 620 l 1
 865 817 l 2
 813 1016 775 1172 723 1395 c 1
 717 1395 l 1
 665 1172 628 1016 575 817 c 2
 523 620 l 1
EndSplineSet
EndChar

StartChar: Adieresis
Encoding: 196 196 6
Width: 1440
GlyphClass: 2
Flags: MW
HStem: 0 21G<63 361 63 63 1079 1377 1079 1079> 377 243<523 917 523 980 460 917> 1613 20G<509 931 931 931>
VStem: 63 1314<0 0>
AnchorPoint: "Anchor-3" 0 0 basechar 0
AnchorPoint: "Anchor-2" 0 0 basechar 0
AnchorPoint: "Anchor-1" 0 0 basechar 0
AnchorPoint: "Anchor-0" 720 1633 basechar 0
LayerCount: 2
Fore
SplineSet
470 1766 m 0
 364 1766 284 1838 284 1943 c 0
 284 2048 364 2122 470 2122 c 0
 577 2122 657 2048 657 1943 c 0
 657 1838 577 1766 470 1766 c 0
968 1766 m 0
 862 1766 782 1838 782 1943 c 0
 782 2048 862 2122 968 2122 c 0
 1075 2122 1155 2048 1155 1943 c 0
 1155 1838 1075 1766 968 1766 c 0
1079 0 m 1
 980 377 l 1
 460 377 l 1
 361 0 l 1
 63 0 l 1
 509 1633 l 1
 931 1633 l 1
 1377 0 l 1
 1079 0 l 1
523 620 m 1
 917 620 l 1
 865 817 l 2
 813 1016 775 1172 723 1395 c 1
 717 1395 l 1
 665 1172 628 1016 575 817 c 2
 523 620 l 1
EndSplineSet
EndChar

StartChar: Agrave
Encoding: 192 192 7
Width: 1440
GlyphClass: 2
Flags: MW
HStem: 0 21G<63 361 63 63 1079 1377 1079 1079> 377 243<523 917 523 980 460 917> 1613 20G<509 931 931 931> 1782 310<602 722 354 847 602 602>
VStem: 63 1314<0 0>
AnchorPoint: "Anchor-3" 0 0 basechar 0
AnchorPoint: "Anchor-2" 0 0 basechar 0
AnchorPoint: "Anchor-1" 0 0 basechar 0
AnchorPoint: "Anchor-0" 720 1633 basechar 0
LayerCount: 2
Fore
SplineSet
847 1782 m 1
 602 1782 l 1
 354 2092 l 1
 722 2092 l 1
 847 1782 l 1
1079 0 m 1
 980 377 l 1
 460 377 l 1
 361 0 l 1
 63 0 l 1
 509 1633 l 1
 931 1633 l 1
 1377 0 l 1
 1079 0 l 1
523 620 m 1
 917 620 l 1
 865 817 l 2
 813 1016 775 1172 723 1395 c 1
 717 1395 l 1
 665 1172 628 1016 575 817 c 2
 523 620 l 1
EndSplineSet
EndChar

StartChar: Aogonek
Encoding: 260 260 8
Width: 1440
Flags: MW
HStem: -477 196<1150.5 1332.5> 0 21G<63 363 63 63 1077 1108 1077 1077 1377 1377> 385 247<530 910 530 975 465 910> 1613 20G<514 926 926 926>
VStem: 63 1380<-442 0> 970 236<-214.5 -187.5>
LayerCount: 2
Fore
SplineSet
1410 -265 m 1xf8
 1443 -442 l 1
 1387 -466 1317 -477 1243 -477 c 0
 1058 -477 970 -374 970 -237 c 0
 970 -138 1016 -57 1108 0 c 1
 1077 0 l 1
 975 385 l 1
 465 385 l 1
 363 0 l 1
 63 0 l 1
 514 1633 l 1
 926 1633 l 1
 1377 0 l 1
 1251 -42 1206 -103 1206 -179 c 0xf4
 1206 -250 1248 -281 1317 -281 c 0
 1348 -281 1378 -276 1410 -265 c 1xf8
530 632 m 1
 910 632 l 1
 863 810 l 2
 815 992 776 1158 723 1382 c 1
 717 1382 l 1
 666 1165 630 1012 577 810 c 2
 530 632 l 1
EndSplineSet
EndChar

StartChar: Aring
Encoding: 197 197 9
Width: 1440
GlyphClass: 2
Flags: MW
HStem: 0 21G<63 361 63 63 1079 1377 1079 1079> 377 243<523 917 523 980 460 917> 1613 20G<509 931 931 931> 1714 119<690.5 749 690.5 795> 2038 118<690.5 749>
VStem: 461 162<1901.5 1968.5 1901.5 2009> 817 162<1901.5 1968.5>
AnchorPoint: "Anchor-3" 0 0 basechar 0
AnchorPoint: "Anchor-2" 0 0 basechar 0
AnchorPoint: "Anchor-1" 0 0 basechar 0
AnchorPoint: "Anchor-0" 720 1633 basechar 0
LayerCount: 2
Fore
SplineSet
720 1714 m 0
 569 1714 461 1789 461 1935 c 0
 461 2083 569 2156 720 2156 c 0
 870 2156 979 2083 979 1935 c 0
 979 1789 870 1714 720 1714 c 0
720 2038 m 0
 661 2038 623 2002 623 1935 c 0
 623 1868 661 1833 720 1833 c 0
 778 1833 817 1868 817 1935 c 0
 817 2002 778 2038 720 2038 c 0
1079 0 m 1
 980 377 l 1
 460 377 l 1
 361 0 l 1
 63 0 l 1
 509 1633 l 1
 931 1633 l 1
 1377 0 l 1
 1079 0 l 1
523 620 m 1
 917 620 l 1
 865 817 l 2
 813 1016 775 1172 723 1395 c 1
 717 1395 l 1
 665 1172 628 1016 575 817 c 2
 523 620 l 1
EndSplineSet
EndChar

StartChar: Atilde
Encoding: 195 195 10
Width: 1440
GlyphClass: 2
Flags: MW
HStem: 0 21G<63 361 63 63 1079 1377 1079 1079> 377 243<523 917 523 980 460 917> 1613 20G<509 931 931 931> 1783 195<869 913 869 968> 1900 204<515 559.5>
VStem: 63 1314<0 0>
AnchorPoint: "Anchor-3" 0 0 basechar 0
AnchorPoint: "Anchor-2" 0 0 basechar 0
AnchorPoint: "Anchor-1" 0 0 basechar 0
AnchorPoint: "Anchor-0" 720 1633 basechar 0
LayerCount: 2
Fore
SplineSet
543 1900 m 0xec
 487 1900 450 1872 424 1786 c 1
 244 1845 l 1
 280 2022 384 2104 533 2104 c 0
 596 2104 658 2087 721 2051 c 2xec
 767 2026 l 2
 818 1997 853 1978 885 1978 c 0
 941 1978 979 2013 1005 2100 c 1
 1184 2041 l 1
 1148 1860 1042 1783 894 1783 c 0
 832 1783 771 1801 708 1835 c 2xf4
 661 1861 l 2
 615 1886 576 1900 543 1900 c 0xec
1079 0 m 1
 980 377 l 1
 460 377 l 1
 361 0 l 1
 63 0 l 1
 509 1633 l 1
 931 1633 l 1
 1377 0 l 1
 1079 0 l 1
523 620 m 1
 917 620 l 1
 865 817 l 2
 813 1016 775 1172 723 1395 c 1
 717 1395 l 1
 665 1172 628 1016 575 817 c 2
 523 620 l 1
EndSplineSet
EndChar

StartChar: AE
Encoding: 198 198 11
Width: 1440
GlyphClass: 2
Flags: MW
HStem: 0 237<942 1357 942 1357> 388 238<456 673 456 673 403 673> 722 236<942 1304 942 1304> 1396 237<942 1357 942 942>
VStem: 673 269<237 388 388 388 626 722 958 1396>
AnchorPoint: "Anchor-3" 0 0 basechar 0
AnchorPoint: "Anchor-2" 0 0 basechar 0
AnchorPoint: "Anchor-1" 0 0 basechar 0
AnchorPoint: "Anchor-0" 796 1633 basechar 0
LayerCount: 2
Fore
SplineSet
1357 1396 m 1
 942 1396 l 1
 942 958 l 1
 1304 958 l 1
 1304 722 l 1
 942 722 l 1
 942 237 l 1
 1357 237 l 1
 1357 0 l 1
 673 0 l 1
 673 388 l 1
 403 388 l 1
 317 0 l 1
 39 0 l 1
 435 1633 l 1
 1357 1633 l 1
 1357 1396 l 1
456 626 m 1
 673 626 l 1
 673 1397 l 1
 627 1397 l 1
 456 626 l 1
EndSplineSet
EndChar

StartChar: B
Encoding: 66 66 12
Width: 1440
Flags: MW
HStem: 0 237<468 801 801 818> 726 225<468 728 728 798.5 468 804 468 728> 1396 237<468 468 468 742>
VStem: 178 290<237 726 951 1396> 951 296<1134.5 1261> 1023 297<414 582.5 322 586>
LayerCount: 2
Fore
SplineSet
1022 866 m 1xf4
 1221 837 1320 691 1320 474 c 0xf4
 1320 170 1157 0 818 0 c 2
 178 0 l 1
 178 1633 l 1
 775 1633 l 2
 1111 1633 1247 1494 1247 1224 c 0xf8
 1247 1045 1167 914 1022 866 c 1xf4
468 1396 m 1
 468 951 l 1
 728 951 l 2
 869 951 951 1020 951 1189 c 0xf8
 951 1333 894 1396 742 1396 c 2
 468 1396 l 1
801 237 m 2xf4
 957 237 1023 332 1023 496 c 0
 1023 676 929 726 804 726 c 2
 468 726 l 1
 468 237 l 1
 801 237 l 2xf4
EndSplineSet
EndChar

StartChar: C
Encoding: 67 67 13
Width: 1440
GlyphClass: 2
Flags: MW
HStem: -32 241<638 828.5 638 907.5> 1424 241<638 826>
VStem: 104 312<622 1012.5 622 1061.5>
AnchorPoint: "Anchor-3" 0 0 basechar 0
AnchorPoint: "Anchor-2" 0 0 basechar 0
AnchorPoint: "Anchor-1" 748 0 basechar 0
AnchorPoint: "Anchor-0" 748 1633 basechar 0
LayerCount: 2
Fore
SplineSet
749 -32 m 0
 291 -32 104 329 104 817 c 0
 104 1306 291 1665 749 1665 c 0
 1068 1665 1258 1505 1326 1158 c 1
 1033 1091 l 1
 993 1323 903 1424 749 1424 c 0
 527 1424 416 1208 416 817 c 0
 416 427 527 209 749 209 c 0
 908 209 999 316 1035 549 c 1
 1321 488 l 1
 1257 135 1066 -32 749 -32 c 0
EndSplineSet
EndChar

StartChar: Cacute
Encoding: 262 262 14
Width: 1440
GlyphClass: 2
Flags: MW
HStem: -32 241<638 828.5 638 907.5> 1424 241<638 826> 1782 310<624 1113 755 866>
VStem: 104 312<622 1012.5 622 1061.5>
AnchorPoint: "Anchor-3" 0 0 basechar 0
AnchorPoint: "Anchor-2" 0 0 basechar 0
AnchorPoint: "Anchor-1" 748 0 basechar 0
AnchorPoint: "Anchor-0" 748 1633 basechar 0
LayerCount: 2
Fore
SplineSet
624 1782 m 1
 755 2092 l 1
 1113 2092 l 1
 866 1782 l 1
 624 1782 l 1
749 -32 m 0
 291 -32 104 329 104 817 c 0
 104 1306 291 1665 749 1665 c 0
 1068 1665 1258 1505 1326 1158 c 1
 1033 1091 l 1
 993 1323 903 1424 749 1424 c 0
 527 1424 416 1208 416 817 c 0
 416 427 527 209 749 209 c 0
 908 209 999 316 1035 549 c 1
 1321 488 l 1
 1257 135 1066 -32 749 -32 c 0
EndSplineSet
EndChar

StartChar: Ccaron
Encoding: 268 268 15
Width: 1440
GlyphClass: 2
Flags: MW
HStem: -32 241<638 828.5 638 907.5> 1424 241<638 826> 1782 310<551 568 928 945 551 551>
VStem: 104 312<622 1012.5 622 1061.5>
AnchorPoint: "Anchor-3" 0 0 basechar 0
AnchorPoint: "Anchor-2" 0 0 basechar 0
AnchorPoint: "Anchor-1" 748 0 basechar 0
AnchorPoint: "Anchor-0" 748 1633 basechar 0
LayerCount: 2
Fore
SplineSet
945 1782 m 1
 551 1782 l 1
 347 2092 l 1
 568 2092 l 1
 748 1921 l 1
 928 2092 l 1
 1148 2092 l 1
 945 1782 l 1
749 209 m 0
 908 209 999 316 1035 549 c 1
 1321 488 l 1
 1257 135 1066 -32 749 -32 c 0
 291 -32 104 329 104 817 c 0
 104 1306 291 1665 749 1665 c 0
 1068 1665 1258 1505 1326 1158 c 1
 1033 1091 l 1
 993 1323 903 1424 749 1424 c 0
 527 1424 416 1208 416 817 c 0
 416 427 527 209 749 209 c 0
EndSplineSet
EndChar

StartChar: Ccedilla
Encoding: 199 199 16
Width: 1440
GlyphClass: 2
Flags: MW
HStem: -503.16 131.39 -461 21G<475 475> -247.37 118.37 -25 21G<639 639> 1424 241<638 826>
VStem: 104 312<622 1012.5 622 1061.5> 779 198<-340.5 -279.5>
AnchorPoint: "Anchor-3" 0 0 basechar 0
AnchorPoint: "Anchor-2" 0 0 basechar 0
AnchorPoint: "Anchor-1" 748 0 basechar 0
AnchorPoint: "Anchor-0" 748 1633 basechar 0
LayerCount: 2
Fore
SplineSet
749 209 m 0x7e
 908 209 999 316 1035 549 c 1
 1321 488 l 1
 1260 154 1086 -14 799 -31 c 1
 774 -129 l 1
 916 -134 977 -209 977 -309 c 0xbe
 977 -469 752 -563 475 -461 c 1x7e
 504 -338 l 1xbe
 656 -397 779 -374 779 -307 c 0
 779 -252 707 -230 564 -261 c 1
 639 -25 l 1
 261 29 104 370 104 817 c 0
 104 1306 291 1665 749 1665 c 0
 1068 1665 1258 1505 1326 1158 c 1
 1033 1091 l 1
 993 1323 903 1424 749 1424 c 0
 527 1424 416 1208 416 817 c 0
 416 427 527 209 749 209 c 0x7e
EndSplineSet
EndChar

StartChar: Cdotaccent
Encoding: 266 266 17
Width: 1440
GlyphClass: 2
Flags: MW
HStem: -32 241<638 828.5 638 907.5> 1424 241<638 826>
VStem: 104 312<622 1012.5 622 1061.5>
AnchorPoint: "Anchor-3" 0 0 basechar 0
AnchorPoint: "Anchor-2" 0 0 basechar 0
AnchorPoint: "Anchor-1" 748 0 basechar 0
AnchorPoint: "Anchor-0" 748 1633 basechar 0
LayerCount: 2
Fore
SplineSet
747 1768 m 0
 634 1768 550 1840 550 1945 c 0
 550 2050 634 2124 747 2124 c 0
 861 2124 945 2050 945 1945 c 0
 945 1840 861 1768 747 1768 c 0
749 -32 m 0
 291 -32 104 329 104 817 c 0
 104 1306 291 1665 749 1665 c 0
 1068 1665 1258 1505 1326 1158 c 1
 1033 1091 l 1
 993 1323 903 1424 749 1424 c 0
 527 1424 416 1208 416 817 c 0
 416 427 527 209 749 209 c 0
 908 209 999 316 1035 549 c 1
 1321 488 l 1
 1257 135 1066 -32 749 -32 c 0
EndSplineSet
EndChar

StartChar: D
Encoding: 68 68 18
Width: 1440
GlyphClass: 2
Flags: MW
HStem: 0 242<470 665 665 673> 1391 242<470 665 470 470>
VStem: 180 290<242 242 242 1391> 1019 302<567 1065.5>
AnchorPoint: "Anchor-3" 0 0 basechar 0
AnchorPoint: "Anchor-2" 713 818 basechar 0
AnchorPoint: "Anchor-1" 712 0 basechar 0
AnchorPoint: "Anchor-0" 691 1633 basechar 0
LayerCount: 2
Fore
SplineSet
180 0 m 1
 180 1633 l 1
 673 1633 l 2
 1126 1633 1321 1381 1321 816 c 0
 1321 252 1126 0 673 0 c 2
 180 0 l 1
470 242 m 1
 665 242 l 2
 864 242 1019 318 1019 816 c 0
 1019 1315 864 1391 665 1391 c 2
 470 1391 l 1
 470 242 l 1
EndSplineSet
EndChar

StartChar: Dcaron
Encoding: 270 270 19
Width: 1440
GlyphClass: 2
Flags: MW
HStem: 0 242<470 665 665 673> 1391 242<470 665 470 470> 1782 310<494 511 871 888 494 494>
VStem: 180 290<242 1391 242 1633 242 1633> 1019 302<567 1065.5>
AnchorPoint: "Anchor-3" 0 0 basechar 0
AnchorPoint: "Anchor-2" 713 818 basechar 0
AnchorPoint: "Anchor-1" 712 0 basechar 0
AnchorPoint: "Anchor-0" 691 1633 basechar 0
LayerCount: 2
Fore
SplineSet
888 1782 m 1
 494 1782 l 1
 290 2092 l 1
 511 2092 l 1
 691 1921 l 1
 871 2092 l 1
 1091 2092 l 1
 888 1782 l 1
673 1633 m 2
 1126 1633 1321 1381 1321 816 c 0
 1321 252 1126 0 673 0 c 2
 180 0 l 1
 180 1633 l 1
 673 1633 l 2
665 242 m 2
 864 242 1019 318 1019 816 c 0
 1019 1315 864 1391 665 1391 c 2
 470 1391 l 1
 470 242 l 1
 665 242 l 2
EndSplineSet
EndChar

StartChar: E
Encoding: 69 69 20
Width: 1440
GlyphClass: 2
Flags: MW
HStem: 0 246<520 1249 520 1249> 720 237<520 1169 520 1169> 1388 245<520 1249 520 520>
VStem: 226 294<246 720 957 1388>
AnchorPoint: "Anchor-3" 0 0 basechar 0
AnchorPoint: "Anchor-2" 0 0 basechar 0
AnchorPoint: "Anchor-1" 0 0 basechar 0
AnchorPoint: "Anchor-0" 738 1633 basechar 0
LayerCount: 2
Fore
SplineSet
226 0 m 1
 226 1633 l 1
 1249 1633 l 1
 1249 1388 l 1
 520 1388 l 1
 520 957 l 1
 1169 957 l 1
 1169 720 l 1
 520 720 l 1
 520 246 l 1
 1249 246 l 1
 1249 0 l 1
 226 0 l 1
EndSplineSet
EndChar

StartChar: Eacute
Encoding: 201 201 21
Width: 1440
GlyphClass: 2
Flags: MW
HStem: 0 246<520 1249 520 1249> 720 237<520 1169 520 1169> 1388 245<520 1249 520 520> 1782 310<614 1103 745 856>
VStem: 226 294<246 720 957 1388>
AnchorPoint: "Anchor-3" 0 0 basechar 0
AnchorPoint: "Anchor-2" 0 0 basechar 0
AnchorPoint: "Anchor-1" 0 0 basechar 0
AnchorPoint: "Anchor-0" 738 1633 basechar 0
LayerCount: 2
Fore
SplineSet
614 1782 m 1
 745 2092 l 1
 1103 2092 l 1
 856 1782 l 1
 614 1782 l 1
226 0 m 1
 226 1633 l 1
 1249 1633 l 1
 1249 1388 l 1
 520 1388 l 1
 520 957 l 1
 1169 957 l 1
 1169 720 l 1
 520 720 l 1
 520 246 l 1
 1249 246 l 1
 1249 0 l 1
 226 0 l 1
EndSplineSet
EndChar

StartChar: Ebreve
Encoding: 276 276 22
Width: 1440
GlyphClass: 2
Flags: MW
HStem: 0 246<520 1249 520 1249> 720 237<520 1169 520 1169> 1388 245<520 1249 520 520> 1748 179<679 796.5 679 857.5>
VStem: 226 294<246 720 957 1388>
AnchorPoint: "Anchor-3" 0 0 basechar 0
AnchorPoint: "Anchor-2" 0 0 basechar 0
AnchorPoint: "Anchor-1" 0 0 basechar 0
AnchorPoint: "Anchor-0" 738 1633 basechar 0
LayerCount: 2
Fore
SplineSet
738 1748 m 0
 499 1748 351 1860 333 2085 c 1
 523 2102 l 1
 544 1989 620 1927 738 1927 c 0
 855 1927 931 1989 952 2102 c 1
 1142 2085 l 1
 1125 1860 977 1748 738 1748 c 0
226 0 m 1
 226 1633 l 1
 1249 1633 l 1
 1249 1388 l 1
 520 1388 l 1
 520 957 l 1
 1169 957 l 1
 1169 720 l 1
 520 720 l 1
 520 246 l 1
 1249 246 l 1
 1249 0 l 1
 226 0 l 1
EndSplineSet
EndChar

StartChar: Ecaron
Encoding: 282 282 23
Width: 1440
GlyphClass: 2
Flags: MW
HStem: 0 246<520 1249 520 1249> 720 237<520 1169 520 1169> 1388 245<520 1249 520 520> 1782 310<541 558 918 935 541 541>
VStem: 226 294<246 720 957 1388>
AnchorPoint: "Anchor-3" 0 0 basechar 0
AnchorPoint: "Anchor-2" 0 0 basechar 0
AnchorPoint: "Anchor-1" 0 0 basechar 0
AnchorPoint: "Anchor-0" 738 1633 basechar 0
LayerCount: 2
Fore
SplineSet
935 1782 m 1
 541 1782 l 1
 337 2092 l 1
 558 2092 l 1
 738 1921 l 1
 918 2092 l 1
 1138 2092 l 1
 935 1782 l 1
1249 1388 m 1
 520 1388 l 1
 520 957 l 1
 1169 957 l 1
 1169 720 l 1
 520 720 l 1
 520 246 l 1
 1249 246 l 1
 1249 0 l 1
 226 0 l 1
 226 1633 l 1
 1249 1633 l 1
 1249 1388 l 1
EndSplineSet
EndChar

StartChar: Ecircumflex
Encoding: 202 202 24
Width: 1440
GlyphClass: 2
Flags: MW
HStem: 0 246<520 1249 520 1249> 720 237<520 1169 520 1169> 1388 245<520 1249 520 520> 1782 310<542 558 337 934 918 918 918 934 542 1138>
VStem: 226 294<246 720 957 1388>
AnchorPoint: "Anchor-3" 0 0 basechar 0
AnchorPoint: "Anchor-2" 0 0 basechar 0
AnchorPoint: "Anchor-1" 0 0 basechar 0
AnchorPoint: "Anchor-0" 738 1633 basechar 0
LayerCount: 2
Fore
SplineSet
738 1953 m 1
 558 1782 l 1
 337 1782 l 1
 542 2092 l 1
 934 2092 l 1
 1138 1782 l 1
 918 1782 l 1
 738 1953 l 1
1249 1388 m 1
 520 1388 l 1
 520 957 l 1
 1169 957 l 1
 1169 720 l 1
 520 720 l 1
 520 246 l 1
 1249 246 l 1
 1249 0 l 1
 226 0 l 1
 226 1633 l 1
 1249 1633 l 1
 1249 1388 l 1
EndSplineSet
EndChar

StartChar: Edieresis
Encoding: 203 203 25
Width: 1440
GlyphClass: 2
Flags: MW
HStem: 0 246<520 1249 520 1249> 720 237<520 1169 520 1169> 1388 245<520 1249 520 520>
VStem: 226 294<246 720 957 1388>
AnchorPoint: "Anchor-3" 0 0 basechar 0
AnchorPoint: "Anchor-2" 0 0 basechar 0
AnchorPoint: "Anchor-1" 0 0 basechar 0
AnchorPoint: "Anchor-0" 738 1633 basechar 0
LayerCount: 2
Fore
SplineSet
488 1766 m 0
 382 1766 302 1838 302 1943 c 0
 302 2048 382 2122 488 2122 c 0
 595 2122 675 2048 675 1943 c 0
 675 1838 595 1766 488 1766 c 0
986 1766 m 0
 880 1766 800 1838 800 1943 c 0
 800 2048 880 2122 986 2122 c 0
 1093 2122 1173 2048 1173 1943 c 0
 1173 1838 1093 1766 986 1766 c 0
226 0 m 1
 226 1633 l 1
 1249 1633 l 1
 1249 1388 l 1
 520 1388 l 1
 520 957 l 1
 1169 957 l 1
 1169 720 l 1
 520 720 l 1
 520 246 l 1
 1249 246 l 1
 1249 0 l 1
 226 0 l 1
EndSplineSet
EndChar

StartChar: Edotaccent
Encoding: 278 278 26
Width: 1440
GlyphClass: 2
Flags: MW
HStem: 0 246<520 1249 520 1249> 720 237<520 1169 520 1169> 1388 245<520 1249 520 520>
VStem: 226 294<246 720 957 1388>
AnchorPoint: "Anchor-3" 0 0 basechar 0
AnchorPoint: "Anchor-2" 0 0 basechar 0
AnchorPoint: "Anchor-1" 0 0 basechar 0
AnchorPoint: "Anchor-0" 738 1633 basechar 0
LayerCount: 2
Fore
SplineSet
738 1768 m 0
 625 1768 541 1840 541 1945 c 0
 541 2050 625 2124 738 2124 c 0
 852 2124 936 2050 936 1945 c 0
 936 1840 852 1768 738 1768 c 0
226 0 m 1
 226 1633 l 1
 1249 1633 l 1
 1249 1388 l 1
 520 1388 l 1
 520 957 l 1
 1169 957 l 1
 1169 720 l 1
 520 720 l 1
 520 246 l 1
 1249 246 l 1
 1249 0 l 1
 226 0 l 1
EndSplineSet
EndChar

StartChar: Egrave
Encoding: 200 200 27
Width: 1440
GlyphClass: 2
Flags: MW
HStem: 0 246<520 1249 520 1249> 720 237<520 1169 520 1169> 1388 245<520 1249 520 520> 1782 310<620 620 620 740 372 865>
VStem: 226 294<246 720 957 1388>
AnchorPoint: "Anchor-3" 0 0 basechar 0
AnchorPoint: "Anchor-2" 0 0 basechar 0
AnchorPoint: "Anchor-1" 0 0 basechar 0
AnchorPoint: "Anchor-0" 738 1633 basechar 0
LayerCount: 2
Fore
SplineSet
620 1782 m 1
 372 2092 l 1
 740 2092 l 1
 865 1782 l 1
 620 1782 l 1
226 0 m 1
 226 1633 l 1
 1249 1633 l 1
 1249 1388 l 1
 520 1388 l 1
 520 957 l 1
 1169 957 l 1
 1169 720 l 1
 520 720 l 1
 520 246 l 1
 1249 246 l 1
 1249 0 l 1
 226 0 l 1
EndSplineSet
EndChar

StartChar: Eogonek
Encoding: 280 280 28
Width: 1440
Flags: MW
HStem: -477 196<1028 1207> 0 246<500 997 500 1270> 720 237<500 1189 500 1189> 1388 245<500 1269 500 500>
VStem: 206 294<246 720 957 1388> 847 236<-214 -188.5>
LayerCount: 2
Fore
SplineSet
1281 -266 m 1
 1300 -448 l 1
 1250 -467 1186 -477 1121 -477 c 0
 935 -477 847 -374 847 -237 c 0
 847 -140 901 -52 997 0 c 1
 206 0 l 1
 206 1633 l 1
 1269 1633 l 1
 1269 1388 l 1
 500 1388 l 1
 500 957 l 1
 1189 957 l 1
 1189 720 l 1
 500 720 l 1
 500 246 l 1
 1269 246 l 1
 1270 0 l 1
 1135 -42 1083 -102 1083 -178 c 0
 1083 -250 1124 -281 1192 -281 c 0
 1222 -281 1251 -276 1281 -266 c 1
EndSplineSet
EndChar

StartChar: F
Encoding: 70 70 29
Width: 1440
Flags: MW
HStem: 0 21G<244 244 244 538> 684 232<538 1187 538 1187> 1388 246<538 1268 538 538>
VStem: 244 294<0 684 916 1388>
LayerCount: 2
Fore
SplineSet
244 0 m 1
 244 1634 l 1
 1268 1634 l 1
 1268 1388 l 1
 538 1388 l 1
 538 916 l 1
 1187 916 l 1
 1187 684 l 1
 538 684 l 1
 538 0 l 1
 244 0 l 1
EndSplineSet
EndChar

StartChar: G
Encoding: 71 71 30
Width: 1440
GlyphClass: 2
Flags: MW
HStem: -32 246<635 789> 0 21G<1112 1289 1112 1112> 636 236<715 1289 715 1015> 1419 246<639 833.5>
VStem: 105 306<621.5 1009.5 621.5 1061> 1015 274<419 636 636 636>
AnchorPoint: "Anchor-3" 0 0 basechar 0
AnchorPoint: "Anchor-2" 0 0 basechar 0
AnchorPoint: "Anchor-1" 733 0 basechar 0
AnchorPoint: "Anchor-0" 743 1633 basechar 0
LayerCount: 2
Fore
SplineSet
715 636 m 1x7c
 715 872 l 1
 1289 872 l 1
 1289 0 l 1
 1112 0 l 1x7c
 1078 180 l 1
 1002 40 877 -32 701 -32 c 0
 312 -32 105 323 105 823 c 0
 105 1299 275 1665 743 1665 c 0
 1004 1665 1202 1534 1289 1263 c 1
 1059 1149 l 1
 1002 1333 906 1419 761 1419 c 0
 517 1419 411 1202 411 817 c 0
 411 426 519 214 751 214 c 0xbc
 860 214 953 266 1015 419 c 1
 1015 636 l 1
 715 636 l 1x7c
EndSplineSet
EndChar

StartChar: Gbreve
Encoding: 286 286 31
Width: 1440
GlyphClass: 2
Flags: MW
HStem: -32 246<635 789> 0 21G<1112 1289 1112 1112> 636 236<715 1289 715 1015> 1419 246<639 833.5> 1748 179<684 801.5 684 862.5>
VStem: 105 306<621.5 1009.5 621.5 1061> 1015 274<419 636 636 636> 1112 35
AnchorPoint: "Anchor-3" 0 0 basechar 0
AnchorPoint: "Anchor-2" 0 0 basechar 0
AnchorPoint: "Anchor-1" 733 0 basechar 0
AnchorPoint: "Anchor-0" 743 1633 basechar 0
LayerCount: 2
Fore
SplineSet
743 1748 m 0x7e
 504 1748 356 1860 338 2085 c 1
 528 2102 l 1
 549 1989 625 1927 743 1927 c 0
 860 1927 936 1989 957 2102 c 1
 1147 2085 l 1x7d
 1130 1860 982 1748 743 1748 c 0x7e
715 636 m 1
 715 872 l 1
 1289 872 l 1
 1289 0 l 1x7e
 1112 0 l 1x7d
 1078 180 l 1
 1002 40 877 -32 701 -32 c 0
 312 -32 105 323 105 823 c 0
 105 1299 275 1665 743 1665 c 0
 1004 1665 1202 1534 1289 1263 c 1
 1059 1149 l 1
 1002 1333 906 1419 761 1419 c 0
 517 1419 411 1202 411 817 c 0
 411 426 519 214 751 214 c 0xbd
 860 214 953 266 1015 419 c 1
 1015 636 l 1
 715 636 l 1
EndSplineSet
EndChar

StartChar: Gcircumflex
Encoding: 284 284 32
Width: 1440
GlyphClass: 2
Flags: MW
HStem: -32 246<635 789> 0 21G<1112 1289 1112 1112> 636 236<715 1289 715 1015> 1419 246<639 833.5> 1782 310<547 563 342 939 923 923 923 939 547 1143>
VStem: 105 306<621.5 1009.5 621.5 1061> 1015 274<419 636 636 636>
AnchorPoint: "Anchor-3" 0 0 basechar 0
AnchorPoint: "Anchor-2" 0 0 basechar 0
AnchorPoint: "Anchor-1" 733 0 basechar 0
AnchorPoint: "Anchor-0" 743 1633 basechar 0
LayerCount: 2
Fore
SplineSet
743 1953 m 1x7e
 563 1782 l 1
 342 1782 l 1
 547 2092 l 1
 939 2092 l 1
 1143 1782 l 1
 923 1782 l 1
 743 1953 l 1x7e
715 636 m 1
 715 872 l 1
 1289 872 l 1
 1289 0 l 1
 1112 0 l 1x7e
 1078 180 l 1
 1002 40 877 -32 701 -32 c 0
 312 -32 105 323 105 823 c 0
 105 1299 275 1665 743 1665 c 0
 1004 1665 1202 1534 1289 1263 c 1
 1059 1149 l 1
 1002 1333 906 1419 761 1419 c 0
 517 1419 411 1202 411 817 c 0
 411 426 519 214 751 214 c 0xbe
 860 214 953 266 1015 419 c 1
 1015 636 l 1
 715 636 l 1
EndSplineSet
EndChar

StartChar: uni0122
Encoding: 290 290 33
Width: 1440
GlyphClass: 2
Flags: MW
HStem: -336 241<683 706 706 717> -32 246<635 789> 0 21G<1112 1289 1112 1112> 636 236<715 1289 715 1015> 1419 246<639 833.5>
VStem: 105 306<621.5 1009.5 621.5 1061> 1015 274<419 636 636 636>
AnchorPoint: "Anchor-3" 0 0 basechar 0
AnchorPoint: "Anchor-2" 0 0 basechar 0
AnchorPoint: "Anchor-1" 733 0 basechar 0
AnchorPoint: "Anchor-0" 743 1633 basechar 0
LayerCount: 2
Fore
SplineSet
715 636 m 1x3e
 715 872 l 1
 1289 872 l 1
 1289 0 l 1
 1112 0 l 1xbe
 1078 180 l 1
 1002 40 877 -32 701 -32 c 0
 312 -32 105 323 105 823 c 0
 105 1299 275 1665 743 1665 c 0
 1004 1665 1202 1534 1289 1263 c 1
 1059 1149 l 1
 1002 1333 906 1419 761 1419 c 0
 517 1419 411 1202 411 817 c 0
 411 426 519 214 751 214 c 0x5e
 860 214 953 266 1015 419 c 1
 1015 636 l 1
 715 636 l 1x3e
731 -95 m 0
 833 -95 890 -154 890 -267 c 0
 890 -394 809 -492 660 -549 c 1
 580 -456 l 1
 657 -425 701 -388 717 -336 c 1
 706 -336 l 2
 629 -336 577 -292 577 -220 c 0
 577 -145 635 -95 731 -95 c 0
EndSplineSet
EndChar

StartChar: Gdotaccent
Encoding: 288 288 34
Width: 1440
GlyphClass: 2
Flags: MW
HStem: -32 246<635 789> 0 21G<1112 1289 1112 1112> 636 236<715 1289 715 1015> 1419 246<639 833.5>
VStem: 105 306<621.5 1009.5 621.5 1061> 1015 274<419 636 636 636>
AnchorPoint: "Anchor-3" 0 0 basechar 0
AnchorPoint: "Anchor-2" 0 0 basechar 0
AnchorPoint: "Anchor-1" 733 0 basechar 0
AnchorPoint: "Anchor-0" 743 1633 basechar 0
LayerCount: 2
Fore
SplineSet
742 1768 m 0x7c
 629 1768 545 1840 545 1945 c 0
 545 2050 629 2124 742 2124 c 0
 856 2124 940 2050 940 1945 c 0
 940 1840 856 1768 742 1768 c 0x7c
715 636 m 1
 715 872 l 1
 1289 872 l 1
 1289 0 l 1
 1112 0 l 1x7c
 1078 180 l 1
 1002 40 877 -32 701 -32 c 0
 312 -32 105 323 105 823 c 0
 105 1299 275 1665 743 1665 c 0
 1004 1665 1202 1534 1289 1263 c 1
 1059 1149 l 1
 1002 1333 906 1419 761 1419 c 0
 517 1419 411 1202 411 817 c 0
 411 426 519 214 751 214 c 0xbc
 860 214 953 266 1015 419 c 1
 1015 636 l 1
 715 636 l 1
EndSplineSet
EndChar

StartChar: H
Encoding: 72 72 35
Width: 1440
Flags: MW
HStem: 0 21G<176 176 176 461 979 979 979 1264> 727 246<461 979 461 979> 1613 20G<176 461 461 461 979 1264 1264 1264>
VStem: 176 285<0 727 973 1633> 979 285<0 727 727 727 973 1633 0 1633>
LayerCount: 2
Fore
SplineSet
176 0 m 1
 176 1633 l 1
 461 1633 l 1
 461 973 l 1
 979 973 l 1
 979 1633 l 1
 1264 1633 l 1
 1264 0 l 1
 979 0 l 1
 979 727 l 1
 461 727 l 1
 461 0 l 1
 176 0 l 1
EndSplineSet
EndChar

StartChar: I
Encoding: 73 73 36
Width: 1440
GlyphClass: 2
Flags: MW
HStem: 0 233<182 577 182 577 863 1258> 1400 233<182 577 182 1258 863 863 863 1258>
VStem: 577 286<233 1400 233 1400>
AnchorPoint: "Anchor-3" 0 0 basechar 0
AnchorPoint: "Anchor-2" 0 0 basechar 0
AnchorPoint: "Anchor-1" 0 0 basechar 0
AnchorPoint: "Anchor-0" 720 1633 basechar 0
LayerCount: 2
Fore
SplineSet
182 0 m 1
 182 233 l 1
 577 233 l 1
 577 1400 l 1
 182 1400 l 1
 182 1633 l 1
 1258 1633 l 1
 1258 1400 l 1
 863 1400 l 1
 863 233 l 1
 1258 233 l 1
 1258 0 l 1
 182 0 l 1
EndSplineSet
EndChar

StartChar: Iacute
Encoding: 205 205 37
Width: 1440
GlyphClass: 2
Flags: MW
HStem: 0 233<182 577 182 577 863 1258> 1400 233<182 577 182 1258 863 863 863 1258> 1782 310<596 1085 727 838>
VStem: 577 286<233 1400 233 1400>
AnchorPoint: "Anchor-3" 0 0 basechar 0
AnchorPoint: "Anchor-2" 0 0 basechar 0
AnchorPoint: "Anchor-1" 0 0 basechar 0
AnchorPoint: "Anchor-0" 720 1633 basechar 0
LayerCount: 2
Fore
SplineSet
596 1782 m 1
 727 2092 l 1
 1085 2092 l 1
 838 1782 l 1
 596 1782 l 1
182 0 m 1
 182 233 l 1
 577 233 l 1
 577 1400 l 1
 182 1400 l 1
 182 1633 l 1
 1258 1633 l 1
 1258 1400 l 1
 863 1400 l 1
 863 233 l 1
 1258 233 l 1
 1258 0 l 1
 182 0 l 1
EndSplineSet
EndChar

StartChar: Ibreve
Encoding: 300 300 38
Width: 1440
GlyphClass: 2
Flags: MW
HStem: 0 233<182 577 182 577 863 1258> 1400 233<182 577 182 1258 863 863 863 1258> 1748 179<661 778.5 661 839.5>
VStem: 577 286<233 1400 233 1400>
AnchorPoint: "Anchor-3" 0 0 basechar 0
AnchorPoint: "Anchor-2" 0 0 basechar 0
AnchorPoint: "Anchor-1" 0 0 basechar 0
AnchorPoint: "Anchor-0" 720 1633 basechar 0
LayerCount: 2
Fore
SplineSet
720 1748 m 0
 481 1748 333 1860 315 2085 c 1
 505 2102 l 1
 526 1989 602 1927 720 1927 c 0
 837 1927 913 1989 934 2102 c 1
 1124 2085 l 1
 1107 1860 959 1748 720 1748 c 0
182 0 m 1
 182 233 l 1
 577 233 l 1
 577 1400 l 1
 182 1400 l 1
 182 1633 l 1
 1258 1633 l 1
 1258 1400 l 1
 863 1400 l 1
 863 233 l 1
 1258 233 l 1
 1258 0 l 1
 182 0 l 1
EndSplineSet
EndChar

StartChar: Icircumflex
Encoding: 206 206 39
Width: 1440
GlyphClass: 2
Flags: MW
HStem: 0 233<182 577 863 1258 182 577> 1400 233<182 577 182 1258 863 1258 863 863> 1782 310<524 540 319 916 900 900 900 916 524 1120>
VStem: 577 286<233 1400 233 1400>
AnchorPoint: "Anchor-3" 0 0 basechar 0
AnchorPoint: "Anchor-2" 0 0 basechar 0
AnchorPoint: "Anchor-1" 0 0 basechar 0
AnchorPoint: "Anchor-0" 720 1633 basechar 0
LayerCount: 2
Fore
SplineSet
720 1953 m 1
 540 1782 l 1
 319 1782 l 1
 524 2092 l 1
 916 2092 l 1
 1120 1782 l 1
 900 1782 l 1
 720 1953 l 1
1258 1400 m 1
 863 1400 l 1
 863 233 l 1
 1258 233 l 1
 1258 0 l 1
 182 0 l 1
 182 233 l 1
 577 233 l 1
 577 1400 l 1
 182 1400 l 1
 182 1633 l 1
 1258 1633 l 1
 1258 1400 l 1
EndSplineSet
EndChar

StartChar: Idieresis
Encoding: 207 207 40
Width: 1440
GlyphClass: 2
Flags: MW
HStem: 0 233<182 577 182 577 863 1258> 1400 233<182 577 182 1258 863 863 863 1258>
VStem: 577 286<233 1400 233 1400>
AnchorPoint: "Anchor-3" 0 0 basechar 0
AnchorPoint: "Anchor-2" 0 0 basechar 0
AnchorPoint: "Anchor-1" 0 0 basechar 0
AnchorPoint: "Anchor-0" 720 1633 basechar 0
LayerCount: 2
Fore
SplineSet
479 1765 m 0
 376 1765 299 1837 299 1941 c 0
 299 2046 376 2119 479 2119 c 0
 582 2119 659 2046 659 1941 c 0
 659 1837 582 1765 479 1765 c 0
959 1765 m 0
 856 1765 780 1837 780 1941 c 0
 780 2046 856 2119 959 2119 c 0
 1063 2119 1140 2046 1140 1941 c 0
 1140 1837 1063 1765 959 1765 c 0
182 0 m 1
 182 233 l 1
 577 233 l 1
 577 1400 l 1
 182 1400 l 1
 182 1633 l 1
 1258 1633 l 1
 1258 1400 l 1
 863 1400 l 1
 863 233 l 1
 1258 233 l 1
 1258 0 l 1
 182 0 l 1
EndSplineSet
EndChar

StartChar: Idotaccent
Encoding: 304 304 41
Width: 1440
GlyphClass: 2
Flags: MW
HStem: 0 233<182 577 182 577 863 1258> 1400 233<182 577 182 1258 863 863 863 1258>
VStem: 577 286<233 1400 233 1400>
AnchorPoint: "Anchor-3" 0 0 basechar 0
AnchorPoint: "Anchor-2" 0 0 basechar 0
AnchorPoint: "Anchor-1" 0 0 basechar 0
AnchorPoint: "Anchor-0" 720 1633 basechar 0
LayerCount: 2
Fore
SplineSet
720 1768 m 0
 607 1768 523 1840 523 1945 c 0
 523 2050 607 2124 720 2124 c 0
 834 2124 918 2050 918 1945 c 0
 918 1840 834 1768 720 1768 c 0
182 0 m 1
 182 233 l 1
 577 233 l 1
 577 1400 l 1
 182 1400 l 1
 182 1633 l 1
 1258 1633 l 1
 1258 1400 l 1
 863 1400 l 1
 863 233 l 1
 1258 233 l 1
 1258 0 l 1
 182 0 l 1
EndSplineSet
EndChar

StartChar: Igrave
Encoding: 204 204 42
Width: 1440
GlyphClass: 2
Flags: MW
HStem: 0 233<182 577 182 577 863 1258> 1400 233<182 577 182 1258 863 863 863 1258> 1782 310<602 602 602 722 354 847>
VStem: 577 286<233 1400 233 1400>
AnchorPoint: "Anchor-3" 0 0 basechar 0
AnchorPoint: "Anchor-2" 0 0 basechar 0
AnchorPoint: "Anchor-1" 0 0 basechar 0
AnchorPoint: "Anchor-0" 720 1633 basechar 0
LayerCount: 2
Fore
SplineSet
602 1782 m 1
 354 2092 l 1
 722 2092 l 1
 847 1782 l 1
 602 1782 l 1
182 0 m 1
 182 233 l 1
 577 233 l 1
 577 1400 l 1
 182 1400 l 1
 182 1633 l 1
 1258 1633 l 1
 1258 1400 l 1
 863 1400 l 1
 863 233 l 1
 1258 233 l 1
 1258 0 l 1
 182 0 l 1
EndSplineSet
EndChar

StartChar: Iogonek
Encoding: 302 302 43
Width: 1440
GlyphClass: 2
Flags: MW
HStem: -477 21G<626.5 757> -477 196<626.5 815.5> 0 233<182 565 182 577 863 1258> 1400 233<182 577 182 1258 863 1258 863 863>
VStem: 442 245<-214 -185> 577 286<233 1400 233 1400>
AnchorPoint: "Anchor-3" 0 0 basechar 0
AnchorPoint: "Anchor-2" 0 0 basechar 0
AnchorPoint: "Anchor-1" 0 0 basechar 0
AnchorPoint: "Anchor-0" 720 1633 basechar 0
LayerCount: 2
Fore
SplineSet
1258 1400 m 1xb4
 863 1400 l 1
 863 233 l 1xb4
 1258 233 l 1
 1258 0 l 1
 860 0 l 1
 733 -42 687 -102 687 -177 c 0
 687 -251 728 -281 800 -281 c 0
 831 -281 860 -275 892 -264 c 1x78
 921 -442 l 1
 867 -465 793 -477 721 -477 c 0
 532 -477 442 -372 442 -232 c 0xb8
 442 -138 483 -58 565 0 c 1
 182 0 l 1
 182 233 l 1
 577 233 l 1
 577 1400 l 1
 182 1400 l 1
 182 1633 l 1
 1258 1633 l 1
 1258 1400 l 1xb4
EndSplineSet
EndChar

StartChar: Itilde
Encoding: 296 296 44
Width: 1440
GlyphClass: 2
Flags: MW
HStem: 0 233<182 577 182 577 863 1258> 1400 233<182 577 182 1258 863 863 863 1258> 1783 195<869 913 869 968> 1900 204<515 559.5>
VStem: 577 286<233 1400 233 1400>
AnchorPoint: "Anchor-3" 0 0 basechar 0
AnchorPoint: "Anchor-2" 0 0 basechar 0
AnchorPoint: "Anchor-1" 0 0 basechar 0
AnchorPoint: "Anchor-0" 720 1633 basechar 0
LayerCount: 2
Fore
SplineSet
894 1783 m 0xe8
 832 1783 771 1801 708 1835 c 2xe8
 661 1861 l 2
 615 1886 576 1900 543 1900 c 0
 487 1900 450 1872 424 1786 c 1
 244 1845 l 1
 280 2022 384 2104 533 2104 c 0
 596 2104 658 2087 721 2051 c 2xd8
 767 2026 l 2
 818 1997 853 1978 885 1978 c 0
 941 1978 979 2013 1005 2100 c 1
 1184 2041 l 1
 1148 1860 1042 1783 894 1783 c 0xe8
182 0 m 1
 182 233 l 1
 577 233 l 1
 577 1400 l 1
 182 1400 l 1
 182 1633 l 1
 1258 1633 l 1
 1258 1400 l 1
 863 1400 l 1
 863 233 l 1
 1258 233 l 1
 1258 0 l 1
 182 0 l 1
EndSplineSet
EndChar

StartChar: J
Encoding: 74 74 45
Width: 1440
GlyphClass: 2
Flags: HMW
HStem: -32 222<605 783.5 605 881.5> 1400 233<304 950 304 1229>
VStem: 161 275<389 514.5> 950 279<474 496 496 1400 1400 1400>
AnchorPoint: "Anchor-3" 0 0 basechar 0
AnchorPoint: "Anchor-2" 0 0 basechar 0
AnchorPoint: "Anchor-1" 0 0 basechar 0
AnchorPoint: "Anchor-0" 763 1633 basechar 0
LayerCount: 2
Fore
SplineSet
695 -32 m 0
 324 -32 161 164 161 483 c 0
 161 546 161 547 161 624 c 1
 436 623 l 1
 437 545 436 566 436 499 c 0
 436 279 516 190 694 190 c 0
 873 190 950 286 950 474 c 2
 950 1400 l 1
 304 1400 l 1
 304 1633 l 1
 1229 1633 l 1
 1229 496 l 2
 1229 161 1068 -32 695 -32 c 0
EndSplineSet
EndChar

StartChar: K
Encoding: 75 75 46
Width: 1440
Flags: MW
HStem: 0 21G<175 462 175 175 1039 1384 1039 1039> 1613 20G<175 462 462 462 982 1337 1337 1337>
VStem: 175 287<0 513 877 1633>
LayerCount: 2
Fore
SplineSet
1039 0 m 1
 660 774 l 1
 462 513 l 1
 462 0 l 1
 175 0 l 1
 175 1633 l 1
 462 1633 l 1
 462 877 l 1
 982 1633 l 1
 1337 1633 l 1
 867 986 l 1
 1384 0 l 1
 1039 0 l 1
EndSplineSet
EndChar

StartChar: L
Encoding: 76 76 47
Width: 1440
GlyphClass: 2
Flags: MW
HStem: 0 247<560 1298 560 1298> 1613 20G<268 560 560 560>
VStem: 268 292<247 1633 247 1633 247 1633>
AnchorPoint: "Anchor-3" 738 1155 basechar 0
AnchorPoint: "Anchor-2" 607 900 basechar 0
AnchorPoint: "Anchor-1" 0 0 basechar 0
AnchorPoint: "Anchor-0" 414 1633 basechar 0
LayerCount: 2
Fore
SplineSet
268 0 m 1
 268 1633 l 1
 560 1633 l 1
 560 247 l 1
 1298 247 l 1
 1298 0 l 1
 268 0 l 1
EndSplineSet
EndChar

StartChar: Lcaron
Encoding: 317 317 48
Width: 1440
GlyphClass: 2
Flags: MW
HStem: 0 247<560 1298 560 1298> 1613 20G<268 560 560 560 743 981 981 981>
VStem: 268 292<247 1633 247 1633 247 1633>
AnchorPoint: "Anchor-3" 738 1155 basechar 0
AnchorPoint: "Anchor-2" 607 900 basechar 0
AnchorPoint: "Anchor-1" 0 0 basechar 0
AnchorPoint: "Anchor-0" 414 1633 basechar 0
LayerCount: 2
Fore
SplineSet
268 0 m 1
 268 1633 l 1
 560 1633 l 1
 560 247 l 1
 1298 247 l 1
 1298 0 l 1
 268 0 l 1
713 1149 m 1
 743 1633 l 1
 981 1633 l 1
 882 1149 l 1
 713 1149 l 1
EndSplineSet
EndChar

StartChar: Ldot
Encoding: 319 319 49
Width: 1440
GlyphClass: 2
Flags: MW
HStem: 0 247<560 1298 560 1298> 1613 20G<268 560 560 560>
VStem: 268 292<247 1633 247 1633 247 1633>
AnchorPoint: "Anchor-3" 738 1155 basechar 0
AnchorPoint: "Anchor-2" 607 900 basechar 0
AnchorPoint: "Anchor-1" 0 0 basechar 0
AnchorPoint: "Anchor-0" 414 1633 basechar 0
LayerCount: 2
Fore
SplineSet
268 0 m 1
 268 1633 l 1
 560 1633 l 1
 560 247 l 1
 1298 247 l 1
 1298 0 l 1
 268 0 l 1
1159 702 m 0
 1057 702 982 766 982 876 c 0
 982 985 1057 1053 1159 1053 c 0
 1263 1053 1337 985 1337 876 c 0
 1337 766 1263 702 1159 702 c 0
EndSplineSet
Ligature2: "Ligature Substitution lookup 27 subtable" L periodcentered
EndChar

StartChar: Lslash
Encoding: 321 321 50
Width: 1440
GlyphClass: 2
Flags: MW
HStem: 0 247<560 1298 560 1298> 1613 20G<268 560 560 560>
VStem: 268 292<247 247 247 666 666 666 987 1633>
AnchorPoint: "Anchor-3" 738 1155 basechar 0
AnchorPoint: "Anchor-2" 607 900 basechar 0
AnchorPoint: "Anchor-1" 0 0 basechar 0
AnchorPoint: "Anchor-0" 414 1633 basechar 0
LayerCount: 2
Fore
SplineSet
560 247 m 1
 1298 247 l 1
 1298 0 l 1
 268 0 l 1
 268 666 l 1
 54 587 l 1
 54 803 l 1
 268 881 l 1
 268 1633 l 1
 560 1633 l 1
 560 987 l 1
 891 1108 l 1
 891 897 l 1
 560 774 l 1
 560 247 l 1
EndSplineSet
EndChar

StartChar: M
Encoding: 77 77 51
Width: 1440
Flags: MW
HStem: 0 21G<124 124 124 370 1091 1091 1091 1337> 1613 20G<124 494 494 494 967 1337 1337 1337>
VStem: 124 246<0 1307 0 1633> 1091 246<0 1307 1307 1307>
LayerCount: 2
Fore
SplineSet
124 0 m 1
 124 1633 l 1
 494 1633 l 1
 633 1124 l 2
 667 1001 700 874 729 745 c 1
 732 745 l 1
 761 874 794 1001 828 1124 c 2
 967 1633 l 1
 1337 1633 l 1
 1337 0 l 1
 1091 0 l 1
 1091 1307 l 1
 1090 1307 l 1
 1055 1176 1029 1083 993 958 c 2
 819 358 l 1
 642 358 l 1
 468 958 l 2
 432 1083 406 1176 371 1307 c 1
 370 1307 l 1
 370 0 l 1
 124 0 l 1
EndSplineSet
EndChar

StartChar: N
Encoding: 78 78 52
Width: 1440
GlyphClass: 2
Flags: MW
HStem: 0 21G<178 178 178 423 881 881 881 1263> 1613 20G<178 559 559 559 1017 1263 1263 1263>
VStem: 178 246 1016.5 246.5
AnchorPoint: "Anchor-3" 0 0 basechar 0
AnchorPoint: "Anchor-2" 0 0 basechar 0
AnchorPoint: "Anchor-1" 0 0 basechar 0
AnchorPoint: "Anchor-0" 721 1633 basechar 0
LayerCount: 2
Fore
SplineSet
178 0 m 1
 178 1633 l 1
 559 1633 l 1
 904 666 l 2
 941 561 975 448 1013 318 c 1
 1016 318 l 1
 1017 1633 l 1
 1263 1633 l 1
 1263 0 l 1
 881 0 l 1
 536 967 l 2
 499 1072 465 1185 428 1315 c 1
 425 1315 l 1
 423 0 l 1
 178 0 l 1
EndSplineSet
EndChar

StartChar: Nacute
Encoding: 323 323 53
Width: 1440
GlyphClass: 2
Flags: MW
HStem: 0 21G<178 178 178 423 881 881 881 1263> 1613 20G<178 559 559 559 1017 1263 1263 1263> 1782 310<597 1086 728 839>
VStem: 178 246 1016.5 246.5
AnchorPoint: "Anchor-3" 0 0 basechar 0
AnchorPoint: "Anchor-2" 0 0 basechar 0
AnchorPoint: "Anchor-1" 0 0 basechar 0
AnchorPoint: "Anchor-0" 721 1633 basechar 0
LayerCount: 2
Fore
SplineSet
597 1782 m 1
 728 2092 l 1
 1086 2092 l 1
 839 1782 l 1
 597 1782 l 1
178 0 m 1
 178 1633 l 1
 559 1633 l 1
 904 666 l 2
 941 561 975 448 1013 318 c 1
 1016 318 l 1
 1017 1633 l 1
 1263 1633 l 1
 1263 0 l 1
 881 0 l 1
 536 967 l 2
 499 1072 465 1185 428 1315 c 1
 425 1315 l 1
 423 0 l 1
 178 0 l 1
EndSplineSet
EndChar

StartChar: Ncaron
Encoding: 327 327 54
Width: 1440
GlyphClass: 2
Flags: MW
HStem: 0 21G<178 423 178 178 881 1263 881 881> 1613 20G<178 559 559 559 1017 1263 1263 1263> 1782 310<524 541 901 918 524 524>
VStem: 178 246 1016.5 246.5
AnchorPoint: "Anchor-3" 0 0 basechar 0
AnchorPoint: "Anchor-2" 0 0 basechar 0
AnchorPoint: "Anchor-1" 0 0 basechar 0
AnchorPoint: "Anchor-0" 721 1633 basechar 0
LayerCount: 2
Fore
SplineSet
918 1782 m 1
 524 1782 l 1
 320 2092 l 1
 541 2092 l 1
 721 1921 l 1
 901 2092 l 1
 1121 2092 l 1
 918 1782 l 1
1017 1633 m 1
 1263 1633 l 1
 1263 0 l 1
 881 0 l 1
 536 967 l 2
 499 1072 465 1185 428 1315 c 1
 425 1315 l 1
 423 0 l 1
 178 0 l 1
 178 1633 l 1
 559 1633 l 1
 904 666 l 2
 941 561 975 448 1013 318 c 1
 1016 318 l 1
 1017 1633 l 1
EndSplineSet
EndChar

StartChar: Ntilde
Encoding: 209 209 55
Width: 1440
GlyphClass: 2
Flags: MW
HStem: 0 21G<178 178 178 423 881 881 881 1263> 1613 20G<178 559 559 559 1017 1263 1263 1263> 1783 195<870 914 870 969> 1900 204<516 560.5>
VStem: 178 246 1016.5 246.5
AnchorPoint: "Anchor-3" 0 0 basechar 0
AnchorPoint: "Anchor-2" 0 0 basechar 0
AnchorPoint: "Anchor-1" 0 0 basechar 0
AnchorPoint: "Anchor-0" 721 1633 basechar 0
LayerCount: 2
Fore
SplineSet
895 1783 m 0xec
 833 1783 772 1801 709 1835 c 2xec
 662 1861 l 2
 616 1886 577 1900 544 1900 c 0
 488 1900 451 1872 425 1786 c 1
 245 1845 l 1
 281 2022 385 2104 534 2104 c 0
 597 2104 659 2087 722 2051 c 2xdc
 768 2026 l 2
 819 1997 854 1978 886 1978 c 0
 942 1978 980 2013 1006 2100 c 1
 1185 2041 l 1
 1149 1860 1043 1783 895 1783 c 0xec
178 0 m 1
 178 1633 l 1
 559 1633 l 1
 904 666 l 2
 941 561 975 448 1013 318 c 1
 1016 318 l 1
 1017 1633 l 1
 1263 1633 l 1
 1263 0 l 1
 881 0 l 1
 536 967 l 2
 499 1072 465 1185 428 1315 c 1
 425 1315 l 1
 423 0 l 1
 178 0 l 1
EndSplineSet
EndChar

StartChar: O
Encoding: 79 79 56
Width: 1440
GlyphClass: 2
Flags: MW
HStem: -32 245<622.5 819.5 622.5 917.5> 1421 244<622.5 819.5>
VStem: 109 307<607 1027 607 1092.5> 1026 306<607 1027>
AnchorPoint: "Anchor-3" 0 0 basechar 0
AnchorPoint: "Anchor-2" 720 817 basechar 0
AnchorPoint: "Anchor-1" 0 0 basechar 0
AnchorPoint: "Anchor-0" 720 1633 basechar 0
LayerCount: 2
Fore
SplineSet
721 -32 m 0
 327 -32 109 265 109 817 c 0
 109 1368 327 1665 721 1665 c 0
 1114 1665 1332 1368 1332 817 c 0
 1332 265 1114 -32 721 -32 c 0
721 213 m 0
 918 213 1026 397 1026 817 c 0
 1026 1237 918 1421 721 1421 c 0
 524 1421 416 1237 416 817 c 0
 416 397 524 213 721 213 c 0
EndSplineSet
Substitution2: "Single Substitution lookup 28 subtable" ordmasculine
Substitution2: "'aalt' Access All Alternates in Latin lookup 0 subtable" ordmasculine
EndChar

StartChar: Oacute
Encoding: 211 211 57
Width: 1440
GlyphClass: 2
Flags: MW
HStem: -32 245<622.5 819.5 622.5 917.5> 1421 244<622.5 819.5> 1782 310<596 1085 727 838>
VStem: 109 307<607 1027 607 1092.5> 1026 306<607 1027>
AnchorPoint: "Anchor-3" 0 0 basechar 0
AnchorPoint: "Anchor-2" 720 817 basechar 0
AnchorPoint: "Anchor-1" 0 0 basechar 0
AnchorPoint: "Anchor-0" 720 1633 basechar 0
LayerCount: 2
Fore
SplineSet
596 1782 m 1
 727 2092 l 1
 1085 2092 l 1
 838 1782 l 1
 596 1782 l 1
721 -32 m 0
 327 -32 109 265 109 817 c 0
 109 1368 327 1665 721 1665 c 0
 1114 1665 1332 1368 1332 817 c 0
 1332 265 1114 -32 721 -32 c 0
721 213 m 0
 918 213 1026 397 1026 817 c 0
 1026 1237 918 1421 721 1421 c 0
 524 1421 416 1237 416 817 c 0
 416 397 524 213 721 213 c 0
EndSplineSet
EndChar

StartChar: Obreve
Encoding: 334 334 58
Width: 1440
GlyphClass: 2
Flags: MW
HStem: -32 245<622.5 819.5 622.5 917.5> 1421 244<622.5 819.5> 1748 179<661 778.5 661 839.5>
VStem: 109 307<607 1027 607 1092.5> 1026 306<607 1027>
AnchorPoint: "Anchor-3" 0 0 basechar 0
AnchorPoint: "Anchor-2" 720 817 basechar 0
AnchorPoint: "Anchor-1" 0 0 basechar 0
AnchorPoint: "Anchor-0" 720 1633 basechar 0
LayerCount: 2
Fore
SplineSet
720 1748 m 0
 481 1748 333 1860 315 2085 c 1
 505 2102 l 1
 526 1989 602 1927 720 1927 c 0
 837 1927 913 1989 934 2102 c 1
 1124 2085 l 1
 1107 1860 959 1748 720 1748 c 0
721 -32 m 0
 327 -32 109 265 109 817 c 0
 109 1368 327 1665 721 1665 c 0
 1114 1665 1332 1368 1332 817 c 0
 1332 265 1114 -32 721 -32 c 0
721 213 m 0
 918 213 1026 397 1026 817 c 0
 1026 1237 918 1421 721 1421 c 0
 524 1421 416 1237 416 817 c 0
 416 397 524 213 721 213 c 0
EndSplineSet
EndChar

StartChar: Ocircumflex
Encoding: 212 212 59
Width: 1440
GlyphClass: 2
Flags: MW
HStem: -32 245<622.5 819.5 622.5 917.5> 1421 244<622.5 819.5> 1782 310<524 540 319 916 900 900 900 916 524 1120>
VStem: 109 307<607 1027 607 1092.5> 1026 306<607 1027>
AnchorPoint: "Anchor-3" 0 0 basechar 0
AnchorPoint: "Anchor-2" 720 817 basechar 0
AnchorPoint: "Anchor-1" 0 0 basechar 0
AnchorPoint: "Anchor-0" 720 1633 basechar 0
LayerCount: 2
Fore
SplineSet
720 1953 m 1
 540 1782 l 1
 319 1782 l 1
 524 2092 l 1
 916 2092 l 1
 1120 1782 l 1
 900 1782 l 1
 720 1953 l 1
721 1665 m 0
 1114 1665 1332 1368 1332 817 c 0
 1332 265 1114 -32 721 -32 c 0
 327 -32 109 265 109 817 c 0
 109 1368 327 1665 721 1665 c 0
721 213 m 0
 918 213 1026 397 1026 817 c 0
 1026 1237 918 1421 721 1421 c 0
 524 1421 416 1237 416 817 c 0
 416 397 524 213 721 213 c 0
EndSplineSet
EndChar

StartChar: Odieresis
Encoding: 214 214 60
Width: 1440
GlyphClass: 2
Flags: MW
HStem: -32 245<622.5 819.5 622.5 917.5> 1421 244<622.5 819.5>
VStem: 109 307<607 1027 607 1092.5> 1026 306<607 1027>
AnchorPoint: "Anchor-3" 0 0 basechar 0
AnchorPoint: "Anchor-2" 720 817 basechar 0
AnchorPoint: "Anchor-1" 0 0 basechar 0
AnchorPoint: "Anchor-0" 720 1633 basechar 0
LayerCount: 2
Fore
SplineSet
470 1766 m 0
 364 1766 284 1838 284 1943 c 0
 284 2048 364 2122 470 2122 c 0
 577 2122 657 2048 657 1943 c 0
 657 1838 577 1766 470 1766 c 0
968 1766 m 0
 862 1766 782 1838 782 1943 c 0
 782 2048 862 2122 968 2122 c 0
 1075 2122 1155 2048 1155 1943 c 0
 1155 1838 1075 1766 968 1766 c 0
721 -32 m 0
 327 -32 109 265 109 817 c 0
 109 1368 327 1665 721 1665 c 0
 1114 1665 1332 1368 1332 817 c 0
 1332 265 1114 -32 721 -32 c 0
721 213 m 0
 918 213 1026 397 1026 817 c 0
 1026 1237 918 1421 721 1421 c 0
 524 1421 416 1237 416 817 c 0
 416 397 524 213 721 213 c 0
EndSplineSet
EndChar

StartChar: Ograve
Encoding: 210 210 61
Width: 1440
GlyphClass: 2
Flags: MW
HStem: -32 245<622.5 819.5 622.5 917.5> 1421 244<622.5 819.5> 1782 310<602 602 602 722 354 847>
VStem: 109 307<607 1027 607 1092.5> 1026 306<607 1027>
AnchorPoint: "Anchor-3" 0 0 basechar 0
AnchorPoint: "Anchor-2" 720 817 basechar 0
AnchorPoint: "Anchor-1" 0 0 basechar 0
AnchorPoint: "Anchor-0" 720 1633 basechar 0
LayerCount: 2
Fore
SplineSet
602 1782 m 1
 354 2092 l 1
 722 2092 l 1
 847 1782 l 1
 602 1782 l 1
721 -32 m 0
 327 -32 109 265 109 817 c 0
 109 1368 327 1665 721 1665 c 0
 1114 1665 1332 1368 1332 817 c 0
 1332 265 1114 -32 721 -32 c 0
721 213 m 0
 918 213 1026 397 1026 817 c 0
 1026 1237 918 1421 721 1421 c 0
 524 1421 416 1237 416 817 c 0
 416 397 524 213 721 213 c 0
EndSplineSet
EndChar

StartChar: Oslash
Encoding: 216 216 62
Width: 1440
GlyphClass: 2
Flags: MW
HStem: -32 245<696.5 819.5 696.5 917.5> 1420 245<622.5 746> 1736 20G<1023 1276 1276 1276>
VStem: 109 307<752 1024.5 752 1089.5> 1026 306<609 881.5>
AnchorPoint: "Anchor-3" 0 0 basechar 0
AnchorPoint: "Anchor-2" 721 817 basechar 0
AnchorPoint: "Anchor-1" 0 0 basechar 0
AnchorPoint: "Anchor-0" 720 1633 basechar 0
LayerCount: 2
Fore
SplineSet
1149 1477 m 1
 1269 1334 1332 1110 1332 817 c 0
 1332 272 1114 -32 721 -32 c 0
 633 -32 553 -17 483 13 c 1
 422 -121 l 1
 167 -121 l 1
 293 155 l 1
 173 299 109 523 109 817 c 0
 109 1362 327 1665 721 1665 c 0
 810 1665 890 1649 961 1619 c 1
 1023 1756 l 1
 1276 1756 l 1
 1149 1477 l 1
416 817 m 0
 416 687 427 580 447 493 c 1
 853 1383 l 1
 815 1408 771 1420 721 1420 c 0
 524 1420 416 1232 416 817 c 0
721 213 m 0
 918 213 1026 401 1026 817 c 0
 1026 946 1016 1053 995 1139 c 1
 590 249 l 1
 628 225 672 213 721 213 c 0
EndSplineSet
EndChar

StartChar: Otilde
Encoding: 213 213 63
Width: 1440
GlyphClass: 2
Flags: MW
HStem: -32 245<622.5 819.5 622.5 917.5> 1421 244<622.5 819.5> 1783 195<869 913 869 968> 1900 204<515 559.5>
VStem: 109 307<607 1027 607 1092.5> 1026 306<607 1027>
AnchorPoint: "Anchor-3" 0 0 basechar 0
AnchorPoint: "Anchor-2" 720 817 basechar 0
AnchorPoint: "Anchor-1" 0 0 basechar 0
AnchorPoint: "Anchor-0" 720 1633 basechar 0
LayerCount: 2
Fore
SplineSet
894 1783 m 0xec
 832 1783 771 1801 708 1835 c 2xec
 661 1861 l 2
 615 1886 576 1900 543 1900 c 0
 487 1900 450 1872 424 1786 c 1
 244 1845 l 1
 280 2022 384 2104 533 2104 c 0
 596 2104 658 2087 721 2051 c 2xdc
 767 2026 l 2
 818 1997 853 1978 885 1978 c 0
 941 1978 979 2013 1005 2100 c 1
 1184 2041 l 1
 1148 1860 1042 1783 894 1783 c 0xec
721 -32 m 0
 327 -32 109 265 109 817 c 0
 109 1368 327 1665 721 1665 c 0
 1114 1665 1332 1368 1332 817 c 0
 1332 265 1114 -32 721 -32 c 0
721 213 m 0
 918 213 1026 397 1026 817 c 0
 1026 1237 918 1421 721 1421 c 0
 524 1421 416 1237 416 817 c 0
 416 397 524 213 721 213 c 0
EndSplineSet
EndChar

StartChar: OE
Encoding: 338 338 64
Width: 1440
Flags: MW
HStem: -32 224<451 564.5> 0 229<978 1404 978 1404 786 1404> 714 230<978 1356 978 1356> 1404 229<978 1404 978 978> 1441 224<451 564.5 359 579> 1447 20G<786 786>
VStem: 59 251<588.5 1045 588.5 1116> 786 192<0 714 167 714>
LayerCount: 2
Fore
SplineSet
1404 1404 m 1x73
 978 1404 l 1
 978 944 l 1
 1356 944 l 1
 1356 714 l 1
 978 714 l 1
 978 229 l 1
 1404 229 l 1
 1404 0 l 1
 786 0 l 1x73
 786 167 l 1
 724 30 629 -32 500 -32 c 0
 218 -32 59 218 59 817 c 0
 59 1415 218 1665 500 1665 c 0xab
 629 1665 724 1603 786 1467 c 1x67
 786 1633 l 1
 1404 1633 l 1
 1404 1404 l 1x73
512 192 m 0xab
 646 192 721 359 721 817 c 0
 721 1274 646 1441 512 1441 c 0
 390 1441 310 1273 310 817 c 0
 310 360 390 192 512 192 c 0xab
EndSplineSet
EndChar

StartChar: P
Encoding: 80 80 65
Width: 1440
Flags: MW
HStem: 0 21G<223 223 223 509> 615 239<509 772 772 800 509 772> 1389 244<509 789 509 509>
VStem: 223 286<0 615 854 1389> 1022 289<1049 1218.5>
LayerCount: 2
Fore
SplineSet
223 0 m 1
 223 1633 l 1
 816 1633 l 2
 1196 1633 1311 1431 1311 1131 c 0
 1311 817 1172 615 800 615 c 2
 509 615 l 1
 509 0 l 1
 223 0 l 1
509 854 m 1
 772 854 l 2
 956 854 1022 957 1022 1141 c 0
 1022 1296 972 1389 789 1389 c 2
 509 1389 l 1
 509 854 l 1
EndSplineSet
EndChar

StartChar: Q
Encoding: 81 81 66
Width: 1440
GlyphClass: 2
Flags: MW
HStem: -434 211<923.5 948> -21 21G<847 847> -20 21G<593 593> 1421 244<622.5 819.5>
VStem: 109 307<607 1027 607 1092.5> 593 254<-68 -67 -67 -21 -116 -20 -116 -20> 1026 306<607 1027>
AnchorPoint: "Anchor-3" 0 0 basechar 0
AnchorPoint: "Anchor-2" 720 817 basechar 0
AnchorPoint: "Anchor-1" 0 0 basechar 0
AnchorPoint: "Anchor-0" 720 1633 basechar 0
LayerCount: 2
Fore
SplineSet
1332 817 m 0xbe
 1332 327 1160 38 847 -21 c 1xde
 847 -67 l 2
 847 -165 875 -223 972 -223 c 0
 1009 -223 1046 -215 1086 -201 c 1
 1117 -402 l 1
 1048 -423 984 -434 912 -434 c 0
 707 -434 593 -307 593 -68 c 2
 593 -20 l 1
 280 39 109 328 109 817 c 0
 109 1368 327 1665 721 1665 c 0
 1114 1665 1332 1368 1332 817 c 0xbe
416 817 m 0
 416 397 524 213 721 213 c 0
 918 213 1026 397 1026 817 c 0
 1026 1237 918 1421 721 1421 c 0
 524 1421 416 1237 416 817 c 0
EndSplineSet
EndChar

StartChar: R
Encoding: 82 82 67
Width: 1440
GlyphClass: 2
Flags: MW
HStem: 0 21G<186 470 186 186 1015 1333 1015 1015> 645 227<470 733 470 773> 1397 236<470 470 470 795>
VStem: 186 284<0 645 0 872 872 1397> 1002 287<1052 1237>
AnchorPoint: "Anchor-3" 0 0 basechar 0
AnchorPoint: "Anchor-2" 0 0 basechar 0
AnchorPoint: "Anchor-1" 720 0 basechar 0
AnchorPoint: "Anchor-0" 701 1633 basechar 0
LayerCount: 2
Fore
SplineSet
1333 0 m 1
 1015 0 l 1
 733 645 l 1
 470 645 l 1
 470 0 l 1
 186 0 l 1
 186 1633 l 1
 822 1633 l 2
 1140 1633 1289 1479 1289 1157 c 0
 1289 926 1198 757 1009 685 c 1
 1333 0 l 1
470 1397 m 1
 470 872 l 1
 773 872 l 2
 921 872 1002 952 1002 1152 c 0
 1002 1322 939 1397 795 1397 c 2
 470 1397 l 1
EndSplineSet
EndChar

StartChar: Racute
Encoding: 340 340 68
Width: 1440
GlyphClass: 2
Flags: MW
HStem: 0 21G<186 470 186 186 1015 1333 1015 1015> 645 227<470 733 470 773> 1397 236<470 470 470 795> 1782 310<708 819 577 1066>
VStem: 186 284<0 645 0 872 872 1397> 1002 287<1052 1237>
AnchorPoint: "Anchor-3" 0 0 basechar 0
AnchorPoint: "Anchor-2" 0 0 basechar 0
AnchorPoint: "Anchor-1" 720 0 basechar 0
AnchorPoint: "Anchor-0" 701 1633 basechar 0
LayerCount: 2
Fore
SplineSet
1066 2092 m 1
 819 1782 l 1
 577 1782 l 1
 708 2092 l 1
 1066 2092 l 1
1333 0 m 1
 1015 0 l 1
 733 645 l 1
 470 645 l 1
 470 0 l 1
 186 0 l 1
 186 1633 l 1
 822 1633 l 2
 1140 1633 1289 1479 1289 1157 c 0
 1289 926 1198 757 1009 685 c 1
 1333 0 l 1
470 1397 m 1
 470 872 l 1
 773 872 l 2
 921 872 1002 952 1002 1152 c 0
 1002 1322 939 1397 795 1397 c 2
 470 1397 l 1
EndSplineSet
EndChar

StartChar: Rcaron
Encoding: 344 344 69
Width: 1440
GlyphClass: 2
Flags: MW
HStem: 0 21G<186 470 186 186 1015 1333 1015 1015> 645 227<470 733 470 773> 1397 236<470 470 470 795> 1782 310<504 521 881 898 504 504>
VStem: 186 284<0 645 0 872 872 1397> 1002 287<1052 1237>
AnchorPoint: "Anchor-3" 0 0 basechar 0
AnchorPoint: "Anchor-2" 0 0 basechar 0
AnchorPoint: "Anchor-1" 720 0 basechar 0
AnchorPoint: "Anchor-0" 701 1633 basechar 0
LayerCount: 2
Fore
SplineSet
898 1782 m 1
 504 1782 l 1
 300 2092 l 1
 521 2092 l 1
 701 1921 l 1
 881 2092 l 1
 1101 2092 l 1
 898 1782 l 1
1333 0 m 1
 1015 0 l 1
 733 645 l 1
 470 645 l 1
 470 0 l 1
 186 0 l 1
 186 1633 l 1
 822 1633 l 2
 1140 1633 1289 1479 1289 1157 c 0
 1289 926 1198 757 1009 685 c 1
 1333 0 l 1
470 1397 m 1
 470 872 l 1
 773 872 l 2
 921 872 1002 952 1002 1152 c 0
 1002 1322 939 1397 795 1397 c 2
 470 1397 l 1
EndSplineSet
EndChar

StartChar: uni0156
Encoding: 342 342 70
Width: 1440
GlyphClass: 2
Flags: MW
HStem: -336 241<670 693 693 704> 0 21G<186 470 186 186 1015 1333 1015 1015> 645 227<470 733 470 773> 1397 236<470 470 470 795>
VStem: 186 284<0 645 0 872 872 1397> 1002 287<1052 1237>
AnchorPoint: "Anchor-3" 0 0 basechar 0
AnchorPoint: "Anchor-2" 0 0 basechar 0
AnchorPoint: "Anchor-1" 720 0 basechar 0
AnchorPoint: "Anchor-0" 701 1633 basechar 0
LayerCount: 2
Fore
SplineSet
1009 685 m 1
 1333 0 l 1
 1015 0 l 1
 733 645 l 1
 470 645 l 1
 470 0 l 1
 186 0 l 1
 186 1633 l 1
 822 1633 l 2
 1140 1633 1289 1479 1289 1157 c 0
 1289 926 1198 757 1009 685 c 1
470 1397 m 1
 470 872 l 1
 773 872 l 2
 921 872 1002 952 1002 1152 c 0
 1002 1322 939 1397 795 1397 c 2
 470 1397 l 1
718 -95 m 0
 820 -95 877 -154 877 -267 c 0
 877 -394 796 -492 647 -549 c 1
 567 -456 l 1
 644 -425 688 -388 704 -336 c 1
 693 -336 l 2
 616 -336 564 -292 564 -220 c 0
 564 -145 622 -95 718 -95 c 0
EndSplineSet
EndChar

StartChar: S
Encoding: 83 83 71
Width: 1440
GlyphClass: 2
Flags: MW
HStem: -32 236<651.5 832 651.5 914> 1428 237<669 836>
VStem: 208 297<1155.5 1283.5 1155.5 1335.5> 1008 291<358 489>
AnchorPoint: "Anchor-3" 0 0 basechar 0
AnchorPoint: "Anchor-2" 0 0 basechar 0
AnchorPoint: "Anchor-1" 746 0 basechar 0
AnchorPoint: "Anchor-0" 754 1633 basechar 0
LayerCount: 2
Fore
SplineSet
735 -32 m 0
 452 -32 255 76 146 333 c 1
 357 474 l 1
 434 294 560 204 743 204 c 0
 921 204 1008 294 1008 422 c 0
 1008 556 943 607 768 662 c 2
 636 705 l 2
 359 794 208 930 208 1198 c 0
 208 1473 407 1665 768 1665 c 0
 1039 1665 1214 1565 1307 1310 c 1
 1090 1178 l 1
 1032 1353 915 1428 757 1428 c 0
 581 1428 505 1351 505 1216 c 0
 505 1095 562 1026 735 969 c 2
 864 928 l 2
 1179 828 1299 706 1299 450 c 0
 1299 158 1093 -32 735 -32 c 0
EndSplineSet
EndChar

StartChar: Sacute
Encoding: 346 346 72
Width: 1440
GlyphClass: 2
Flags: MW
HStem: -32 236<651.5 832 651.5 914> 1428 237<669 836> 1782 310<630 1119 761 872>
VStem: 208 297<1155.5 1283.5 1155.5 1335.5> 1008 291<358 489>
AnchorPoint: "Anchor-3" 0 0 basechar 0
AnchorPoint: "Anchor-2" 0 0 basechar 0
AnchorPoint: "Anchor-1" 746 0 basechar 0
AnchorPoint: "Anchor-0" 754 1633 basechar 0
LayerCount: 2
Fore
SplineSet
630 1782 m 1
 761 2092 l 1
 1119 2092 l 1
 872 1782 l 1
 630 1782 l 1
735 -32 m 0
 452 -32 255 76 146 333 c 1
 357 474 l 1
 434 294 560 204 743 204 c 0
 921 204 1008 294 1008 422 c 0
 1008 556 943 607 768 662 c 2
 636 705 l 2
 359 794 208 930 208 1198 c 0
 208 1473 407 1665 768 1665 c 0
 1039 1665 1214 1565 1307 1310 c 1
 1090 1178 l 1
 1032 1353 915 1428 757 1428 c 0
 581 1428 505 1351 505 1216 c 0
 505 1095 562 1026 735 969 c 2
 864 928 l 2
 1179 828 1299 706 1299 450 c 0
 1299 158 1093 -32 735 -32 c 0
EndSplineSet
EndChar

StartChar: Scaron
Encoding: 352 352 73
Width: 1440
GlyphClass: 2
Flags: MW
HStem: -32 236<651.5 832 651.5 914> 1428 237<669 836> 1782 310<557 574 934 951 557 557>
VStem: 208 297<1155.5 1283.5 1155.5 1335.5> 1008 291<358 489>
AnchorPoint: "Anchor-3" 0 0 basechar 0
AnchorPoint: "Anchor-2" 0 0 basechar 0
AnchorPoint: "Anchor-1" 746 0 basechar 0
AnchorPoint: "Anchor-0" 754 1633 basechar 0
LayerCount: 2
Fore
SplineSet
951 1782 m 1
 557 1782 l 1
 353 2092 l 1
 574 2092 l 1
 754 1921 l 1
 934 2092 l 1
 1154 2092 l 1
 951 1782 l 1
864 928 m 2
 1179 828 1299 706 1299 450 c 0
 1299 158 1093 -32 735 -32 c 0
 452 -32 255 76 146 333 c 1
 357 474 l 1
 434 294 560 204 743 204 c 0
 921 204 1008 294 1008 422 c 0
 1008 556 943 607 768 662 c 2
 636 705 l 2
 359 794 208 930 208 1198 c 0
 208 1473 407 1665 768 1665 c 0
 1039 1665 1214 1565 1307 1310 c 1
 1090 1178 l 1
 1032 1353 915 1428 757 1428 c 0
 581 1428 505 1351 505 1216 c 0
 505 1095 562 1026 735 969 c 2
 864 928 l 2
EndSplineSet
EndChar

StartChar: uni0218
Encoding: 536 536 74
Width: 1440
GlyphClass: 2
Flags: MW
HStem: -336 241<696 719 719 730> -32 236<651.5 832 651.5 914> 1428 237<669 836>
VStem: 208 297<1155.5 1283.5 1155.5 1335.5> 1008 291<358 489>
AnchorPoint: "Anchor-3" 0 0 basechar 0
AnchorPoint: "Anchor-2" 0 0 basechar 0
AnchorPoint: "Anchor-1" 746 0 basechar 0
AnchorPoint: "Anchor-0" 754 1633 basechar 0
LayerCount: 2
Fore
SplineSet
864 928 m 2
 1179 828 1299 706 1299 450 c 0
 1299 158 1093 -32 735 -32 c 0
 452 -32 255 76 146 333 c 1
 357 474 l 1
 434 294 560 204 743 204 c 0
 921 204 1008 294 1008 422 c 0
 1008 556 943 607 768 662 c 2
 636 705 l 2
 359 794 208 930 208 1198 c 0
 208 1473 407 1665 768 1665 c 0
 1039 1665 1214 1565 1307 1310 c 1
 1090 1178 l 1
 1032 1353 915 1428 757 1428 c 0
 581 1428 505 1351 505 1216 c 0
 505 1095 562 1026 735 969 c 2
 864 928 l 2
744 -95 m 0
 846 -95 903 -154 903 -267 c 0
 903 -394 822 -492 673 -549 c 1
 593 -456 l 1
 670 -425 714 -388 730 -336 c 1
 719 -336 l 2
 642 -336 590 -292 590 -220 c 0
 590 -145 648 -95 744 -95 c 0
EndSplineSet
EndChar

StartChar: uni1E9E
Encoding: 7838 7838 75
Width: 1440
Flags: MW
HStem: 0 233<160 776 628 776 776 801 628 776> 1431 234<648 785.5>
VStem: 160 282<0 1004 1004 1033 0 1210> 1041 284<412 599>
LayerCount: 2
Fore
SplineSet
992 989 m 1
 1212 945 1325 788 1325 509 c 0
 1325 82 1062 0 801 0 c 2
 628 0 l 1
 628 233 l 1
 776 233 l 2
 957 233 1041 317 1041 507 c 0
 1041 691 957 779 801 779 c 2
 713 779 l 1
 691 910 l 1
 942 1378 l 1
 884 1416 824 1431 747 1431 c 0
 549 1431 442 1302 442 1033 c 2
 442 0 l 1
 160 0 l 1
 160 1004 l 2
 160 1416 324 1665 759 1665 c 0
 965 1665 1119 1610 1258 1483 c 1
 992 989 l 1
EndSplineSet
EndChar

StartChar: T
Encoding: 84 84 76
Width: 1440
GlyphClass: 2
Flags: MW
HStem: 0 21G<572 867 572 572> 1381 252<138 572 138 1301 867 1301 867 867>
VStem: 572 295<0 1381 0 1381>
AnchorPoint: "Anchor-3" 0 0 basechar 0
AnchorPoint: "Anchor-2" 720 817 basechar 0
AnchorPoint: "Anchor-1" 720 0 basechar 0
AnchorPoint: "Anchor-0" 720 1633 basechar 0
LayerCount: 2
Fore
SplineSet
1301 1633 m 1
 1301 1381 l 1
 867 1381 l 1
 867 0 l 1
 572 0 l 1
 572 1381 l 1
 138 1381 l 1
 138 1633 l 1
 1301 1633 l 1
EndSplineSet
EndChar

StartChar: Tcaron
Encoding: 356 356 77
Width: 1440
GlyphClass: 2
Flags: MW
HStem: 0 21G<572 867 572 572> 1381 252<138 572 138 1301 867 1301 867 867> 1782 310<523 540 900 917 523 523>
VStem: 572 295<0 1381 0 1381>
AnchorPoint: "Anchor-3" 0 0 basechar 0
AnchorPoint: "Anchor-2" 720 817 basechar 0
AnchorPoint: "Anchor-1" 720 0 basechar 0
AnchorPoint: "Anchor-0" 720 1633 basechar 0
LayerCount: 2
Fore
SplineSet
917 1782 m 1
 523 1782 l 1
 319 2092 l 1
 540 2092 l 1
 720 1921 l 1
 900 2092 l 1
 1120 2092 l 1
 917 1782 l 1
1301 1633 m 1
 1301 1381 l 1
 867 1381 l 1
 867 0 l 1
 572 0 l 1
 572 1381 l 1
 138 1381 l 1
 138 1633 l 1
 1301 1633 l 1
EndSplineSet
EndChar

StartChar: uni021A
Encoding: 538 538 78
Width: 1440
GlyphClass: 2
Flags: MW
HStem: -336 241<670 693 693 704> 0 21G<572 867 572 572> 1381 252<138 572 138 1301 867 1301 867 867>
VStem: 572 295<0 1381 0 1381>
AnchorPoint: "Anchor-3" 0 0 basechar 0
AnchorPoint: "Anchor-2" 720 817 basechar 0
AnchorPoint: "Anchor-1" 720 0 basechar 0
AnchorPoint: "Anchor-0" 720 1633 basechar 0
LayerCount: 2
Fore
SplineSet
138 1633 m 1
 1301 1633 l 1
 1301 1381 l 1
 867 1381 l 1
 867 0 l 1
 572 0 l 1
 572 1381 l 1
 138 1381 l 1
 138 1633 l 1
718 -95 m 0
 820 -95 877 -154 877 -267 c 0
 877 -394 796 -492 647 -549 c 1
 567 -456 l 1
 644 -425 688 -388 704 -336 c 1
 693 -336 l 2
 616 -336 564 -292 564 -220 c 0
 564 -145 622 -95 718 -95 c 0
EndSplineSet
EndChar

StartChar: U
Encoding: 85 85 79
Width: 1440
GlyphClass: 2
Flags: MW
HStem: -32 242<616 822.5 616 909> 1613 20G<166 454 454 454 987 1274 1274 1274>
VStem: 166 288<590 1633> 987 287<575 590 590 1633>
AnchorPoint: "Anchor-3" 0 0 basechar 0
AnchorPoint: "Anchor-2" 0 0 basechar 0
AnchorPoint: "Anchor-1" 0 0 basechar 0
AnchorPoint: "Anchor-0" 720 1633 basechar 0
LayerCount: 2
Fore
SplineSet
720 -32 m 0
 344 -32 166 162 166 590 c 2
 166 1633 l 1
 454 1633 l 1
 454 575 l 2
 454 348 512 210 720 210 c 0
 925 210 987 344 987 575 c 2
 987 1633 l 1
 1274 1633 l 1
 1274 590 l 2
 1274 162 1098 -32 720 -32 c 0
EndSplineSet
EndChar

StartChar: Uacute
Encoding: 218 218 80
Width: 1440
GlyphClass: 2
Flags: MW
HStem: -32 242<616 822.5 616 909> 1613 20G<166 454 454 454 987 1274 1274 1274> 1782 310<596 1085 727 838>
VStem: 166 288<590 1633> 987 287<575 590 590 1633>
AnchorPoint: "Anchor-3" 0 0 basechar 0
AnchorPoint: "Anchor-2" 0 0 basechar 0
AnchorPoint: "Anchor-1" 0 0 basechar 0
AnchorPoint: "Anchor-0" 720 1633 basechar 0
LayerCount: 2
Fore
SplineSet
596 1782 m 1
 727 2092 l 1
 1085 2092 l 1
 838 1782 l 1
 596 1782 l 1
720 -32 m 0
 344 -32 166 162 166 590 c 2
 166 1633 l 1
 454 1633 l 1
 454 575 l 2
 454 348 512 210 720 210 c 0
 925 210 987 344 987 575 c 2
 987 1633 l 1
 1274 1633 l 1
 1274 590 l 2
 1274 162 1098 -32 720 -32 c 0
EndSplineSet
EndChar

StartChar: Ubreve
Encoding: 364 364 81
Width: 1440
GlyphClass: 2
Flags: MW
HStem: -32 242<616 822.5 616 909> 1613 20G<166 454 454 454 987 1274 1274 1274> 1748 179<661 778.5 661 839.5>
VStem: 166 288<590 1633> 987 287<575 590 590 1633>
AnchorPoint: "Anchor-3" 0 0 basechar 0
AnchorPoint: "Anchor-2" 0 0 basechar 0
AnchorPoint: "Anchor-1" 0 0 basechar 0
AnchorPoint: "Anchor-0" 720 1633 basechar 0
LayerCount: 2
Fore
SplineSet
720 1748 m 0
 481 1748 333 1860 315 2085 c 1
 505 2102 l 1
 526 1989 602 1927 720 1927 c 0
 837 1927 913 1989 934 2102 c 1
 1124 2085 l 1
 1107 1860 959 1748 720 1748 c 0
720 -32 m 0
 344 -32 166 162 166 590 c 2
 166 1633 l 1
 454 1633 l 1
 454 575 l 2
 454 348 512 210 720 210 c 0
 925 210 987 344 987 575 c 2
 987 1633 l 1
 1274 1633 l 1
 1274 590 l 2
 1274 162 1098 -32 720 -32 c 0
EndSplineSet
EndChar

StartChar: Ucircumflex
Encoding: 219 219 82
Width: 1440
GlyphClass: 2
Flags: MW
HStem: -32 242<616 822.5 616 909> 1613 20G<166 454 454 454 987 1274 1274 1274> 1782 310<524 540 319 916 900 900 900 916 524 1120>
VStem: 166 288<590 1633> 987 287<575 590 590 1633>
AnchorPoint: "Anchor-3" 0 0 basechar 0
AnchorPoint: "Anchor-2" 0 0 basechar 0
AnchorPoint: "Anchor-1" 0 0 basechar 0
AnchorPoint: "Anchor-0" 720 1633 basechar 0
LayerCount: 2
Fore
SplineSet
720 1953 m 1
 540 1782 l 1
 319 1782 l 1
 524 2092 l 1
 916 2092 l 1
 1120 1782 l 1
 900 1782 l 1
 720 1953 l 1
987 1633 m 1
 1274 1633 l 1
 1274 590 l 2
 1274 162 1098 -32 720 -32 c 0
 344 -32 166 162 166 590 c 2
 166 1633 l 1
 454 1633 l 1
 454 575 l 2
 454 348 512 210 720 210 c 0
 925 210 987 344 987 575 c 2
 987 1633 l 1
EndSplineSet
EndChar

StartChar: Udieresis
Encoding: 220 220 83
Width: 1440
GlyphClass: 2
Flags: MW
HStem: -32 242<616 822.5 616 909> 1613 20G<166 454 454 454 987 1274 1274 1274>
VStem: 166 288<590 1633> 987 287<575 590 590 1633>
AnchorPoint: "Anchor-3" 0 0 basechar 0
AnchorPoint: "Anchor-2" 0 0 basechar 0
AnchorPoint: "Anchor-1" 0 0 basechar 0
AnchorPoint: "Anchor-0" 720 1633 basechar 0
LayerCount: 2
Fore
SplineSet
470 1766 m 0
 364 1766 284 1838 284 1943 c 0
 284 2048 364 2122 470 2122 c 0
 577 2122 657 2048 657 1943 c 0
 657 1838 577 1766 470 1766 c 0
968 1766 m 0
 862 1766 782 1838 782 1943 c 0
 782 2048 862 2122 968 2122 c 0
 1075 2122 1155 2048 1155 1943 c 0
 1155 1838 1075 1766 968 1766 c 0
720 -32 m 0
 344 -32 166 162 166 590 c 2
 166 1633 l 1
 454 1633 l 1
 454 575 l 2
 454 348 512 210 720 210 c 0
 925 210 987 344 987 575 c 2
 987 1633 l 1
 1274 1633 l 1
 1274 590 l 2
 1274 162 1098 -32 720 -32 c 0
EndSplineSet
EndChar

StartChar: Ugrave
Encoding: 217 217 84
Width: 1440
GlyphClass: 2
Flags: MW
HStem: -32 242<616 822.5 616 909> 1613 20G<166 454 454 454 987 1274 1274 1274> 1782 310<602 602 602 722 354 847>
VStem: 166 288<590 1633> 987 287<575 590 590 1633>
AnchorPoint: "Anchor-3" 0 0 basechar 0
AnchorPoint: "Anchor-2" 0 0 basechar 0
AnchorPoint: "Anchor-1" 0 0 basechar 0
AnchorPoint: "Anchor-0" 720 1633 basechar 0
LayerCount: 2
Fore
SplineSet
602 1782 m 1
 354 2092 l 1
 722 2092 l 1
 847 1782 l 1
 602 1782 l 1
720 -32 m 0
 344 -32 166 162 166 590 c 2
 166 1633 l 1
 454 1633 l 1
 454 575 l 2
 454 348 512 210 720 210 c 0
 925 210 987 344 987 575 c 2
 987 1633 l 1
 1274 1633 l 1
 1274 590 l 2
 1274 162 1098 -32 720 -32 c 0
EndSplineSet
EndChar

StartChar: Uring
Encoding: 366 366 85
Width: 1440
GlyphClass: 2
Flags: MW
HStem: -32 242<616 822.5 616 909> 1613 20G<166 454 454 454 987 1274 1274 1274> 1714 119<690.5 749 690.5 795> 2038 118<690.5 749>
VStem: 166 288<590 1633> 461 162<1901.5 1968.5 1901.5 2009> 817 162<1901.5 1968.5> 987 287<575 590 590 1633>
AnchorPoint: "Anchor-3" 0 0 basechar 0
AnchorPoint: "Anchor-2" 0 0 basechar 0
AnchorPoint: "Anchor-1" 0 0 basechar 0
AnchorPoint: "Anchor-0" 720 1633 basechar 0
LayerCount: 2
Fore
SplineSet
720 1714 m 0
 569 1714 461 1789 461 1935 c 0
 461 2083 569 2156 720 2156 c 0
 870 2156 979 2083 979 1935 c 0
 979 1789 870 1714 720 1714 c 0
720 1833 m 0
 778 1833 817 1868 817 1935 c 0
 817 2002 778 2038 720 2038 c 0
 661 2038 623 2002 623 1935 c 0
 623 1868 661 1833 720 1833 c 0
720 -32 m 0xf9
 344 -32 166 162 166 590 c 2
 166 1633 l 1
 454 1633 l 1
 454 575 l 2
 454 348 512 210 720 210 c 0
 925 210 987 344 987 575 c 2
 987 1633 l 1
 1274 1633 l 1
 1274 590 l 2
 1274 162 1098 -32 720 -32 c 0xf9
EndSplineSet
EndChar

StartChar: Utilde
Encoding: 360 360 86
Width: 1440
GlyphClass: 2
Flags: MW
HStem: -32 242<616 822.5 616 909> 1613 20G<166 454 454 454 987 1274 1274 1274> 1783 195<869 913 869 968> 1900 204<515 559.5>
VStem: 166 288<590 1633> 987 287<575 590 590 1633>
AnchorPoint: "Anchor-3" 0 0 basechar 0
AnchorPoint: "Anchor-2" 0 0 basechar 0
AnchorPoint: "Anchor-1" 0 0 basechar 0
AnchorPoint: "Anchor-0" 720 1633 basechar 0
LayerCount: 2
Fore
SplineSet
894 1783 m 0xec
 832 1783 771 1801 708 1835 c 2xec
 661 1861 l 2
 615 1886 576 1900 543 1900 c 0
 487 1900 450 1872 424 1786 c 1
 244 1845 l 1
 280 2022 384 2104 533 2104 c 0
 596 2104 658 2087 721 2051 c 2xdc
 767 2026 l 2
 818 1997 853 1978 885 1978 c 0
 941 1978 979 2013 1005 2100 c 1
 1184 2041 l 1
 1148 1860 1042 1783 894 1783 c 0xec
720 -32 m 0
 344 -32 166 162 166 590 c 2
 166 1633 l 1
 454 1633 l 1
 454 575 l 2
 454 348 512 210 720 210 c 0
 925 210 987 344 987 575 c 2
 987 1633 l 1
 1274 1633 l 1
 1274 590 l 2
 1274 162 1098 -32 720 -32 c 0
EndSplineSet
EndChar

StartChar: V
Encoding: 86 86 87
Width: 1440
Flags: MW
HStem: 0 21G<514 514 514 926> 1613 20G<66 365 365 365 1075 1374 1374 1374>
VStem: 66 1308<1633 1633>
LayerCount: 2
Fore
SplineSet
514 0 m 1
 66 1633 l 1
 365 1633 l 1
 577 824 l 2
 622 655 665 475 717 252 c 1
 723 252 l 1
 775 475 818 655 863 824 c 2
 1075 1633 l 1
 1374 1633 l 1
 926 0 l 1
 514 0 l 1
EndSplineSet
EndChar

StartChar: W
Encoding: 87 87 88
Width: 1440
GlyphClass: 2
Flags: MW
HStem: 0 21G<238 238 238 582 858 858 858 1202> 1613 20G<10 281 281 281 1159 1430 1430 1430>
VStem: 10 1420<1633 1633>
AnchorPoint: "Anchor-3" 0 0 basechar 0
AnchorPoint: "Anchor-2" 0 0 basechar 0
AnchorPoint: "Anchor-1" 0 0 basechar 0
AnchorPoint: "Anchor-0" 720 1633 basechar 0
LayerCount: 2
Fore
SplineSet
238 0 m 1
 10 1633 l 1
 281 1633 l 1
 371 776 l 2
 389 600 405 441 422 261 c 1
 425 261 l 1
 445 440 466 616 486 775 c 2
 574 1425 l 1
 866 1425 l 1
 954 775 l 2
 974 616 995 440 1015 261 c 1
 1018 261 l 1
 1035 441 1051 600 1069 776 c 2
 1159 1633 l 1
 1430 1633 l 1
 1202 0 l 1
 858 0 l 1
 771 635 l 2
 753 774 738 909 723 1066 c 1
 717 1066 l 1
 702 909 687 774 669 635 c 2
 582 0 l 1
 238 0 l 1
EndSplineSet
EndChar

StartChar: Wacute
Encoding: 7810 7810 89
Width: 1440
GlyphClass: 2
Flags: MW
HStem: 0 21G<238 238 238 582 858 858 858 1202> 1613 20G<10 281 281 281 1159 1430 1430 1430> 1782 310<596 1085 727 838>
VStem: 10 1420<1633 1633>
AnchorPoint: "Anchor-3" 0 0 basechar 0
AnchorPoint: "Anchor-2" 0 0 basechar 0
AnchorPoint: "Anchor-1" 0 0 basechar 0
AnchorPoint: "Anchor-0" 720 1633 basechar 0
LayerCount: 2
Fore
SplineSet
596 1782 m 1
 727 2092 l 1
 1085 2092 l 1
 838 1782 l 1
 596 1782 l 1
238 0 m 1
 10 1633 l 1
 281 1633 l 1
 371 776 l 2
 389 600 405 441 422 261 c 1
 425 261 l 1
 445 440 466 616 486 775 c 2
 574 1425 l 1
 866 1425 l 1
 954 775 l 2
 974 616 995 440 1015 261 c 1
 1018 261 l 1
 1035 441 1051 600 1069 776 c 2
 1159 1633 l 1
 1430 1633 l 1
 1202 0 l 1
 858 0 l 1
 771 635 l 2
 753 774 738 909 723 1066 c 1
 717 1066 l 1
 702 909 687 774 669 635 c 2
 582 0 l 1
 238 0 l 1
EndSplineSet
EndChar

StartChar: Wcircumflex
Encoding: 372 372 90
Width: 1440
GlyphClass: 2
Flags: MW
HStem: 0 21G<238 582 238 238 858 1202 858 858> 1613 20G<10 281 281 281 1159 1430 1430 1430> 1782 310<524 540 319 916 900 900 900 916 524 1120>
VStem: 10 1420<1633 1633>
AnchorPoint: "Anchor-3" 0 0 basechar 0
AnchorPoint: "Anchor-2" 0 0 basechar 0
AnchorPoint: "Anchor-1" 0 0 basechar 0
AnchorPoint: "Anchor-0" 720 1633 basechar 0
LayerCount: 2
Fore
SplineSet
720 1953 m 1
 540 1782 l 1
 319 1782 l 1
 524 2092 l 1
 916 2092 l 1
 1120 1782 l 1
 900 1782 l 1
 720 1953 l 1
1159 1633 m 1
 1430 1633 l 1
 1202 0 l 1
 858 0 l 1
 771 635 l 2
 753 774 738 909 723 1066 c 1
 717 1066 l 1
 702 909 687 774 669 635 c 2
 582 0 l 1
 238 0 l 1
 10 1633 l 1
 281 1633 l 1
 371 776 l 2
 389 600 405 441 422 261 c 1
 425 261 l 1
 445 440 466 616 486 775 c 2
 574 1425 l 1
 866 1425 l 1
 954 775 l 2
 974 616 995 440 1015 261 c 1
 1018 261 l 1
 1035 441 1051 600 1069 776 c 2
 1159 1633 l 1
EndSplineSet
EndChar

StartChar: Wdieresis
Encoding: 7812 7812 91
Width: 1440
GlyphClass: 2
Flags: MW
HStem: 0 21G<238 238 238 582 858 858 858 1202> 1613 20G<10 281 281 281 1159 1430 1430 1430>
VStem: 10 1420<1633 1633>
AnchorPoint: "Anchor-3" 0 0 basechar 0
AnchorPoint: "Anchor-2" 0 0 basechar 0
AnchorPoint: "Anchor-1" 0 0 basechar 0
AnchorPoint: "Anchor-0" 720 1633 basechar 0
LayerCount: 2
Fore
SplineSet
470 1766 m 0
 364 1766 284 1838 284 1943 c 0
 284 2048 364 2122 470 2122 c 0
 577 2122 657 2048 657 1943 c 0
 657 1838 577 1766 470 1766 c 0
968 1766 m 0
 862 1766 782 1838 782 1943 c 0
 782 2048 862 2122 968 2122 c 0
 1075 2122 1155 2048 1155 1943 c 0
 1155 1838 1075 1766 968 1766 c 0
238 0 m 1
 10 1633 l 1
 281 1633 l 1
 371 776 l 2
 389 600 405 441 422 261 c 1
 425 261 l 1
 445 440 466 616 486 775 c 2
 574 1425 l 1
 866 1425 l 1
 954 775 l 2
 974 616 995 440 1015 261 c 1
 1018 261 l 1
 1035 441 1051 600 1069 776 c 2
 1159 1633 l 1
 1430 1633 l 1
 1202 0 l 1
 858 0 l 1
 771 635 l 2
 753 774 738 909 723 1066 c 1
 717 1066 l 1
 702 909 687 774 669 635 c 2
 582 0 l 1
 238 0 l 1
EndSplineSet
EndChar

StartChar: Wgrave
Encoding: 7808 7808 92
Width: 1440
GlyphClass: 2
Flags: MW
HStem: 0 21G<238 238 238 582 858 858 858 1202> 1613 20G<10 281 281 281 1159 1430 1430 1430> 1782 310<602 602 602 722 354 847>
VStem: 10 1420<1633 1633>
AnchorPoint: "Anchor-3" 0 0 basechar 0
AnchorPoint: "Anchor-2" 0 0 basechar 0
AnchorPoint: "Anchor-1" 0 0 basechar 0
AnchorPoint: "Anchor-0" 720 1633 basechar 0
LayerCount: 2
Fore
SplineSet
602 1782 m 1
 354 2092 l 1
 722 2092 l 1
 847 1782 l 1
 602 1782 l 1
238 0 m 1
 10 1633 l 1
 281 1633 l 1
 371 776 l 2
 389 600 405 441 422 261 c 1
 425 261 l 1
 445 440 466 616 486 775 c 2
 574 1425 l 1
 866 1425 l 1
 954 775 l 2
 974 616 995 440 1015 261 c 1
 1018 261 l 1
 1035 441 1051 600 1069 776 c 2
 1159 1633 l 1
 1430 1633 l 1
 1202 0 l 1
 858 0 l 1
 771 635 l 2
 753 774 738 909 723 1066 c 1
 717 1066 l 1
 702 909 687 774 669 635 c 2
 582 0 l 1
 238 0 l 1
EndSplineSet
EndChar

StartChar: X
Encoding: 88 88 93
Width: 1440
Flags: MW
HStem: 0 21G<60 368 60 60 1073 1379 1073 1073> 1613 20G<70 389 389 389 1052 1371 1371 1371>
VStem: 60 1319<0 0>
LayerCount: 2
Fore
SplineSet
1379 0 m 1
 1073 0 l 1
 713 637 l 1
 368 0 l 1
 60 0 l 1
 521 829 l 1
 70 1633 l 1
 389 1633 l 1
 713 1023 l 1
 1052 1633 l 1
 1371 1633 l 1
 904 829 l 1
 1379 0 l 1
EndSplineSet
EndChar

StartChar: Y
Encoding: 89 89 94
Width: 1440
GlyphClass: 2
Flags: MW
HStem: 0 21G<572 867 572 572> 1613 20G<58 372 372 372 1067 1382 1382 1382>
VStem: 572 295<0 582 0 582>
AnchorPoint: "Anchor-3" 0 0 basechar 0
AnchorPoint: "Anchor-2" 0 0 basechar 0
AnchorPoint: "Anchor-1" 0 0 basechar 0
AnchorPoint: "Anchor-0" 721 1633 basechar 0
LayerCount: 2
Fore
SplineSet
1067 1633 m 1
 1382 1633 l 1
 867 582 l 1
 867 0 l 1
 572 0 l 1
 572 582 l 1
 58 1633 l 1
 372 1633 l 1
 720 849 l 1
 1067 1633 l 1
EndSplineSet
EndChar

StartChar: Yacute
Encoding: 221 221 95
Width: 1440
GlyphClass: 2
Flags: MW
HStem: 0 21G<572 867 572 572> 1613 20G<58 372 372 372 1067 1382 1382 1382> 1782 310<727 838 596 1085>
VStem: 572 295<0 582 0 582>
AnchorPoint: "Anchor-3" 0 0 basechar 0
AnchorPoint: "Anchor-2" 0 0 basechar 0
AnchorPoint: "Anchor-1" 0 0 basechar 0
AnchorPoint: "Anchor-0" 721 1633 basechar 0
LayerCount: 2
Fore
SplineSet
1085 2092 m 1
 838 1782 l 1
 596 1782 l 1
 727 2092 l 1
 1085 2092 l 1
1067 1633 m 1
 1382 1633 l 1
 867 582 l 1
 867 0 l 1
 572 0 l 1
 572 582 l 1
 58 1633 l 1
 372 1633 l 1
 720 849 l 1
 1067 1633 l 1
EndSplineSet
EndChar

StartChar: Ycircumflex
Encoding: 374 374 96
Width: 1440
GlyphClass: 2
Flags: MW
HStem: 0 21G<572 867 572 572> 1613 20G<58 372 372 372 1067 1382 1382 1382> 1782 310<525 541 320 917 901 901 901 917 525 1121>
VStem: 572 295<0 582 0 582>
AnchorPoint: "Anchor-3" 0 0 basechar 0
AnchorPoint: "Anchor-2" 0 0 basechar 0
AnchorPoint: "Anchor-1" 0 0 basechar 0
AnchorPoint: "Anchor-0" 721 1633 basechar 0
LayerCount: 2
Fore
SplineSet
721 1953 m 1
 541 1782 l 1
 320 1782 l 1
 525 2092 l 1
 917 2092 l 1
 1121 1782 l 1
 901 1782 l 1
 721 1953 l 1
1067 1633 m 1
 1382 1633 l 1
 867 582 l 1
 867 0 l 1
 572 0 l 1
 572 582 l 1
 58 1633 l 1
 372 1633 l 1
 720 849 l 1
 1067 1633 l 1
EndSplineSet
EndChar

StartChar: Ydieresis
Encoding: 376 376 97
Width: 1440
GlyphClass: 2
Flags: MW
HStem: 0 21G<572 867 572 572> 1613 20G<58 372 372 372 1067 1382 1382 1382>
VStem: 572 295<0 582 0 582>
AnchorPoint: "Anchor-3" 0 0 basechar 0
AnchorPoint: "Anchor-2" 0 0 basechar 0
AnchorPoint: "Anchor-1" 0 0 basechar 0
AnchorPoint: "Anchor-0" 721 1633 basechar 0
LayerCount: 2
Fore
SplineSet
471 1766 m 0
 365 1766 285 1838 285 1943 c 0
 285 2048 365 2122 471 2122 c 0
 578 2122 658 2048 658 1943 c 0
 658 1838 578 1766 471 1766 c 0
969 1766 m 0
 863 1766 783 1838 783 1943 c 0
 783 2048 863 2122 969 2122 c 0
 1076 2122 1156 2048 1156 1943 c 0
 1156 1838 1076 1766 969 1766 c 0
1067 1633 m 1
 1382 1633 l 1
 867 582 l 1
 867 0 l 1
 572 0 l 1
 572 582 l 1
 58 1633 l 1
 372 1633 l 1
 720 849 l 1
 1067 1633 l 1
EndSplineSet
EndChar

StartChar: Ygrave
Encoding: 7922 7922 98
Width: 1440
GlyphClass: 2
Flags: MW
HStem: 0 21G<572 867 572 572> 1613 20G<58 372 372 372 1067 1382 1382 1382> 1782 310<603 723 355 848 603 603>
VStem: 572 295<0 582 0 582>
AnchorPoint: "Anchor-3" 0 0 basechar 0
AnchorPoint: "Anchor-2" 0 0 basechar 0
AnchorPoint: "Anchor-1" 0 0 basechar 0
AnchorPoint: "Anchor-0" 721 1633 basechar 0
LayerCount: 2
Fore
SplineSet
848 1782 m 1
 603 1782 l 1
 355 2092 l 1
 723 2092 l 1
 848 1782 l 1
1067 1633 m 1
 1382 1633 l 1
 867 582 l 1
 867 0 l 1
 572 0 l 1
 572 582 l 1
 58 1633 l 1
 372 1633 l 1
 720 849 l 1
 1067 1633 l 1
EndSplineSet
EndChar

StartChar: Z
Encoding: 90 90 99
Width: 1440
GlyphClass: 2
Flags: MW
HStem: 0 252<498 1310 498 1310> 1381 252<159 942 159 1300>
VStem: 137 1173<0 240 240 240>
AnchorPoint: "Anchor-3" 0 0 basechar 0
AnchorPoint: "Anchor-2" 0 0 basechar 0
AnchorPoint: "Anchor-1" 0 0 basechar 0
AnchorPoint: "Anchor-0" 728 1633 basechar 0
LayerCount: 2
Fore
SplineSet
137 0 m 1
 137 240 l 1
 942 1381 l 1
 159 1381 l 1
 159 1633 l 1
 1300 1633 l 1
 1300 1393 l 1
 498 252 l 1
 1310 252 l 1
 1310 0 l 1
 137 0 l 1
EndSplineSet
EndChar

StartChar: Zacute
Encoding: 377 377 100
Width: 1440
GlyphClass: 2
Flags: MW
HStem: 0 252<498 1310 498 1310> 1381 252<159 942 159 1300> 1782 310<604 1093 735 846>
VStem: 137 1173<0 240 240 240>
AnchorPoint: "Anchor-3" 0 0 basechar 0
AnchorPoint: "Anchor-2" 0 0 basechar 0
AnchorPoint: "Anchor-1" 0 0 basechar 0
AnchorPoint: "Anchor-0" 728 1633 basechar 0
LayerCount: 2
Fore
SplineSet
604 1782 m 1
 735 2092 l 1
 1093 2092 l 1
 846 1782 l 1
 604 1782 l 1
137 0 m 1
 137 240 l 1
 942 1381 l 1
 159 1381 l 1
 159 1633 l 1
 1300 1633 l 1
 1300 1393 l 1
 498 252 l 1
 1310 252 l 1
 1310 0 l 1
 137 0 l 1
EndSplineSet
EndChar

StartChar: Zcaron
Encoding: 381 381 101
Width: 1440
GlyphClass: 2
Flags: MW
HStem: 0 252<498 1310 498 1310> 1381 252<159 942 159 1300> 1782 310<531 548 908 925 531 531>
VStem: 137 1173<0 240 240 240>
AnchorPoint: "Anchor-3" 0 0 basechar 0
AnchorPoint: "Anchor-2" 0 0 basechar 0
AnchorPoint: "Anchor-1" 0 0 basechar 0
AnchorPoint: "Anchor-0" 728 1633 basechar 0
LayerCount: 2
Fore
SplineSet
925 1782 m 1
 531 1782 l 1
 327 2092 l 1
 548 2092 l 1
 728 1921 l 1
 908 2092 l 1
 1128 2092 l 1
 925 1782 l 1
498 252 m 1
 1310 252 l 1
 1310 0 l 1
 137 0 l 1
 137 240 l 1
 942 1381 l 1
 159 1381 l 1
 159 1633 l 1
 1300 1633 l 1
 1300 1393 l 1
 498 252 l 1
EndSplineSet
EndChar

StartChar: Zdotaccent
Encoding: 379 379 102
Width: 1440
GlyphClass: 2
Flags: MW
HStem: 0 252<498 1310 498 1310> 1381 252<159 942 159 1300>
VStem: 137 1173<0 240 240 240>
AnchorPoint: "Anchor-3" 0 0 basechar 0
AnchorPoint: "Anchor-2" 0 0 basechar 0
AnchorPoint: "Anchor-1" 0 0 basechar 0
AnchorPoint: "Anchor-0" 728 1633 basechar 0
LayerCount: 2
Fore
SplineSet
728 1768 m 0
 615 1768 531 1840 531 1945 c 0
 531 2050 615 2124 728 2124 c 0
 842 2124 926 2050 926 1945 c 0
 926 1840 842 1768 728 1768 c 0
137 0 m 1
 137 240 l 1
 942 1381 l 1
 159 1381 l 1
 159 1633 l 1
 1300 1633 l 1
 1300 1393 l 1
 498 252 l 1
 1310 252 l 1
 1310 0 l 1
 137 0 l 1
EndSplineSet
EndChar

StartChar: O.slash
Encoding: 65537 -1 103
Width: 1440
GlyphClass: 2
Flags: MW
HStem: -32 245<622.5 819.5 622.5 917.5> 1420 245<622.5 819.5>
VStem: 109 307<609 1024.5 609 1089.5> 1026 306<609 1024.5>
AnchorPoint: "Anchor-3" 0 0 basechar 0
AnchorPoint: "Anchor-2" 721 817 basechar 0
AnchorPoint: "Anchor-1" 0 0 basechar 0
AnchorPoint: "Anchor-0" 720 1633 basechar 0
LayerCount: 2
Fore
SplineSet
721 -32 m 0
 327 -32 109 272 109 817 c 0
 109 1362 327 1665 721 1665 c 0
 1114 1665 1332 1362 1332 817 c 0
 1332 272 1114 -32 721 -32 c 0
721 213 m 0
 918 213 1026 401 1026 817 c 0
 1026 1232 918 1420 721 1420 c 0
 524 1420 416 1232 416 817 c 0
 416 401 524 213 721 213 c 0
EndSplineSet
EndChar

StartChar: a
Encoding: 97 97 104
Width: 1440
GlyphClass: 2
Flags: MW
HStem: -32 207 -18 21G<1118.5 1217> -18 223.27 518 194 1063 217<615 769>
VStem: 136 287<290.5 405 290.5 459> 932 266<297 331 331 458 458 458 642 803 803 812>
AnchorPoint: "Anchor-3" 0 0 basechar 0
AnchorPoint: "Anchor-2" 0 0 basechar 0
AnchorPoint: "Anchor-1" 0 0 basechar 0
AnchorPoint: "Anchor-0" 705 1249 basechar 0
LayerCount: 2
Fore
SplineSet
1342 209 m 1x5a
 1347 9 l 1
 1297 -9 1249 -18 1185 -18 c 0x5a
 1052 -18 973 32 945 138 c 1
 870 21 736 -32 561 -32 c 0x9e
 298 -32 136 117 136 345 c 0
 136 573 302 712 614 712 c 0
 740 712 842 690 932 642 c 1
 932 803 l 2
 932 990 849 1063 689 1063 c 0
 541 1063 468 1004 450 855 c 1
 180 891 l 1
 212 1142 381 1280 693 1280 c 0
 1033 1280 1198 1123 1198 812 c 2
 1198 331 l 2x3e
 1198 224 1235 193 1342 209 c 1x5a
644 175 m 0x9e
 765 174 855 210 932 297 c 1
 932 458 l 1
 854 499 771 519 667 518 c 0
 500 517 423 463 423 347 c 0
 423 234 503 176 644 175 c 0x9e
EndSplineSet
Substitution2: "Single Substitution lookup 28 subtable" ordfeminine
Substitution2: "'ss01' Style Set 1 in Latin lookup 23 subtable" a.ss01
Substitution2: "'salt' Stylistic Alternatives in Latin lookup 22 subtable" a.ss01
AlternateSubs2: "'aalt' Access All Alternates in Latin lookup 1 subtable" ordfeminine a.ss01
EndChar

StartChar: aacute
Encoding: 225 225 105
Width: 1440
GlyphClass: 2
Flags: MW
HStem: -32 207 -18 21G<1118.5 1217> -18 223.27 518 194 1063 217<615 769>
VStem: 136 287<290.5 405 290.5 459> 932 266<297 331 331 458 458 458 642 803 803 812>
AnchorPoint: "Anchor-3" 0 0 basechar 0
AnchorPoint: "Anchor-2" 0 0 basechar 0
AnchorPoint: "Anchor-1" 0 0 basechar 0
AnchorPoint: "Anchor-0" 705 1249 basechar 0
LayerCount: 2
Fore
SplineSet
1083 1763 m 1x5a
 818 1415 l 1
 584 1415 l 1
 737 1763 l 1
 1083 1763 l 1x5a
1342 209 m 1
 1347 9 l 1
 1297 -9 1249 -18 1185 -18 c 0x5a
 1052 -18 973 32 945 138 c 1
 870 21 736 -32 561 -32 c 0x9e
 298 -32 136 117 136 345 c 0
 136 573 302 712 614 712 c 0
 740 712 842 690 932 642 c 1
 932 803 l 2
 932 990 849 1063 689 1063 c 0
 541 1063 468 1004 450 855 c 1
 180 891 l 1
 212 1142 381 1280 693 1280 c 0
 1033 1280 1198 1123 1198 812 c 2
 1198 331 l 2x3e
 1198 224 1235 193 1342 209 c 1
644 175 m 0x9e
 765 174 855 210 932 297 c 1
 932 458 l 1
 854 499 771 519 667 518 c 0
 500 517 423 463 423 347 c 0
 423 234 503 176 644 175 c 0x9e
EndSplineSet
Substitution2: "'ss01' Style Set 1 in Latin lookup 23 subtable" aacute.ss01
Substitution2: "'salt' Stylistic Alternatives in Latin lookup 22 subtable" aacute.ss01
Substitution2: "'aalt' Access All Alternates in Latin lookup 0 subtable" aacute.ss01
EndChar

StartChar: abreve
Encoding: 259 259 106
Width: 1440
GlyphClass: 2
Flags: MW
HStem: -32 207 -18 21G<1118.5 1217> -18 223.27 518 194 1063 217<615 769> 1415 179<648 765.5 648 826.5> 1732 20G<302 302 1111 1111>
VStem: 136 287<290.5 405 290.5 459> 932 266<297 331 331 458 458 458 642 803 803 812>
AnchorPoint: "Anchor-3" 0 0 basechar 0
AnchorPoint: "Anchor-2" 0 0 basechar 0
AnchorPoint: "Anchor-1" 0 0 basechar 0
AnchorPoint: "Anchor-0" 705 1249 basechar 0
LayerCount: 2
Fore
SplineSet
707 1415 m 0x5e80
 468 1415 320 1526 302 1752 c 1
 492 1769 l 1
 513 1656 589 1594 707 1594 c 0
 824 1594 900 1656 921 1769 c 1
 1111 1752 l 1
 1094 1526 946 1415 707 1415 c 0x5e80
1342 209 m 1
 1347 9 l 1
 1297 -9 1249 -18 1185 -18 c 0x5e80
 1052 -18 973 32 945 138 c 1
 870 21 736 -32 561 -32 c 0x9f80
 298 -32 136 117 136 345 c 0
 136 573 302 712 614 712 c 0
 740 712 842 690 932 642 c 1
 932 803 l 2
 932 990 849 1063 689 1063 c 0
 541 1063 468 1004 450 855 c 1
 180 891 l 1
 212 1142 381 1280 693 1280 c 0
 1033 1280 1198 1123 1198 812 c 2
 1198 331 l 2x3f80
 1198 224 1235 193 1342 209 c 1
644 175 m 0x9f80
 765 174 855 210 932 297 c 1
 932 458 l 1
 854 499 771 519 667 518 c 0
 500 517 423 463 423 347 c 0
 423 234 503 176 644 175 c 0x9f80
EndSplineSet
Substitution2: "'ss01' Style Set 1 in Latin lookup 23 subtable" abreve.ss01
Substitution2: "'salt' Stylistic Alternatives in Latin lookup 22 subtable" abreve.ss01
Substitution2: "'aalt' Access All Alternates in Latin lookup 0 subtable" abreve.ss01
EndChar

StartChar: acircumflex
Encoding: 226 226 107
Width: 1440
GlyphClass: 2
Flags: MW
HStem: -32 207 -18 21G<1118.5 1217> -18 223.27 518 194 1063 217<615 769> 1617 146<703 703>
VStem: 136 287<290.5 405 290.5 459> 932 266<297 331 331 458 458 458 642 803 803 812>
AnchorPoint: "Anchor-3" 0 0 basechar 0
AnchorPoint: "Anchor-2" 0 0 basechar 0
AnchorPoint: "Anchor-1" 0 0 basechar 0
AnchorPoint: "Anchor-0" 705 1249 basechar 0
LayerCount: 2
Fore
SplineSet
703 1617 m 1x5d
 525 1415 l 1
 322 1415 l 1
 530 1763 l 1
 875 1763 l 1
 1083 1415 l 1
 880 1415 l 1
 703 1617 l 1x5d
1342 209 m 1
 1347 9 l 1
 1297 -9 1249 -18 1185 -18 c 0x5d
 1052 -18 973 32 945 138 c 1
 870 21 736 -32 561 -32 c 0x9f
 298 -32 136 117 136 345 c 0
 136 573 302 712 614 712 c 0
 740 712 842 690 932 642 c 1
 932 803 l 2
 932 990 849 1063 689 1063 c 0
 541 1063 468 1004 450 855 c 1
 180 891 l 1
 212 1142 381 1280 693 1280 c 0
 1033 1280 1198 1123 1198 812 c 2
 1198 331 l 2x3f
 1198 224 1235 193 1342 209 c 1
644 175 m 0x9f
 765 174 855 210 932 297 c 1
 932 458 l 1
 854 499 771 519 667 518 c 0
 500 517 423 463 423 347 c 0
 423 234 503 176 644 175 c 0x9f
EndSplineSet
Substitution2: "'ss01' Style Set 1 in Latin lookup 23 subtable" acircumflex.ss01
Substitution2: "'salt' Stylistic Alternatives in Latin lookup 22 subtable" acircumflex.ss01
Substitution2: "'aalt' Access All Alternates in Latin lookup 0 subtable" acircumflex.ss01
EndChar

StartChar: adieresis
Encoding: 228 228 108
Width: 1440
GlyphClass: 2
Flags: MW
HStem: -32 207 -18 21G<1118.5 1217> -18 223.27 518 194 1063 217<615 769>
VStem: 136 287<290.5 405 290.5 459> 932 266<297 331 331 458 458 458 642 803 803 812>
AnchorPoint: "Anchor-3" 0 0 basechar 0
AnchorPoint: "Anchor-2" 0 0 basechar 0
AnchorPoint: "Anchor-1" 0 0 basechar 0
AnchorPoint: "Anchor-0" 705 1249 basechar 0
LayerCount: 2
Fore
SplineSet
455 1417 m 0x5a
 349 1417 269 1492 269 1603 c 0
 269 1712 349 1790 455 1790 c 0
 562 1790 642 1712 642 1603 c 0
 642 1492 562 1417 455 1417 c 0x5a
953 1417 m 0
 847 1417 767 1492 767 1603 c 0
 767 1712 847 1790 953 1790 c 0
 1060 1790 1140 1712 1140 1603 c 0
 1140 1492 1060 1417 953 1417 c 0
1342 209 m 1
 1347 9 l 1
 1297 -9 1249 -18 1185 -18 c 0x5a
 1052 -18 973 32 945 138 c 1
 870 21 736 -32 561 -32 c 0x9e
 298 -32 136 117 136 345 c 0
 136 573 302 712 614 712 c 0
 740 712 842 690 932 642 c 1
 932 803 l 2
 932 990 849 1063 689 1063 c 0
 541 1063 468 1004 450 855 c 1
 180 891 l 1
 212 1142 381 1280 693 1280 c 0
 1033 1280 1198 1123 1198 812 c 2
 1198 331 l 2x3e
 1198 224 1235 193 1342 209 c 1
644 175 m 0x9e
 765 174 855 210 932 297 c 1
 932 458 l 1
 854 499 771 519 667 518 c 0
 500 517 423 463 423 347 c 0
 423 234 503 176 644 175 c 0x9e
EndSplineSet
Substitution2: "'ss01' Style Set 1 in Latin lookup 23 subtable" adieresis.ss01
Substitution2: "'salt' Stylistic Alternatives in Latin lookup 22 subtable" adieresis.ss01
Substitution2: "'aalt' Access All Alternates in Latin lookup 0 subtable" adieresis.ss01
EndChar

StartChar: agrave
Encoding: 224 224 109
Width: 1440
GlyphClass: 2
Flags: MW
HStem: -32 207 -18 21G<1118.5 1217> -18 223.27 518 194 1063 217<615 769>
VStem: 136 287<290.5 405 290.5 459> 932 266<297 331 331 458 458 458 642 803 803 812>
AnchorPoint: "Anchor-3" 0 0 basechar 0
AnchorPoint: "Anchor-2" 0 0 basechar 0
AnchorPoint: "Anchor-1" 0 0 basechar 0
AnchorPoint: "Anchor-0" 705 1249 basechar 0
LayerCount: 2
Fore
SplineSet
827 1415 m 1x5a
 592 1415 l 1
 328 1763 l 1
 673 1763 l 1
 827 1415 l 1x5a
1342 209 m 1
 1347 9 l 1
 1297 -9 1249 -18 1185 -18 c 0x5a
 1052 -18 973 32 945 138 c 1
 870 21 736 -32 561 -32 c 0x9e
 298 -32 136 117 136 345 c 0
 136 573 302 712 614 712 c 0
 740 712 842 690 932 642 c 1
 932 803 l 2
 932 990 849 1063 689 1063 c 0
 541 1063 468 1004 450 855 c 1
 180 891 l 1
 212 1142 381 1280 693 1280 c 0
 1033 1280 1198 1123 1198 812 c 2
 1198 331 l 2x3e
 1198 224 1235 193 1342 209 c 1
644 175 m 0x9e
 765 174 855 210 932 297 c 1
 932 458 l 1
 854 499 771 519 667 518 c 0
 500 517 423 463 423 347 c 0
 423 234 503 176 644 175 c 0x9e
EndSplineSet
Substitution2: "'ss01' Style Set 1 in Latin lookup 23 subtable" agrave.ss01
Substitution2: "'salt' Stylistic Alternatives in Latin lookup 22 subtable" agrave.ss01
Substitution2: "'aalt' Access All Alternates in Latin lookup 0 subtable" agrave.ss01
EndChar

StartChar: aogonek
Encoding: 261 261 110
Width: 1440
Flags: MW
HStem: -477 21G<1095 1217.5> -477 196<1095 1271.5> -32 207 0 21G 518 194 1063 217<614.5 789>
VStem: 136 287<290.5 405 290.5 459> 921 226<-209 -189> 932 266<297 331 331 458 458 458 642 803 803 812>
LayerCount: 2
Fore
SplineSet
1348 -265 m 1x5d
 1375 -442 l 1
 1321 -466 1251 -477 1184 -477 c 0
 1006 -477 921 -374 921 -238 c 0xaf
 921 -140 966 -58 1072 0 c 1x9c80
 1006 22 964 68 946 139 c 1
 870 22 737 -32 561 -32 c 0
 298 -32 136 117 136 345 c 0
 136 573 302 712 614 712 c 0
 740 712 842 690 932 642 c 1
 932 803 l 2
 932 937 890 1063 688 1063 c 0
 541 1063 468 1004 450 855 c 1
 180 891 l 1
 213 1143 381 1280 695 1280 c 0
 1033 1280 1198 1122 1198 812 c 2
 1198 331 l 2xae80
 1198 224 1235 193 1343 209 c 1
 1347 9 l 1
 1198 -34 1147 -96 1147 -176 c 0
 1147 -242 1182 -281 1256 -281 c 0
 1287 -281 1316 -276 1348 -265 c 1x5d
644 175 m 0
 765 174 855 210 932 297 c 1
 932 458 l 1x9c80
 854 499 771 519 667 518 c 0
 500 517 423 463 423 347 c 0
 423 234 503 176 644 175 c 0
EndSplineSet
Substitution2: "'ss01' Style Set 1 in Latin lookup 23 subtable" aogonek.ss01
Substitution2: "'salt' Stylistic Alternatives in Latin lookup 22 subtable" aogonek.ss01
Substitution2: "'aalt' Access All Alternates in Latin lookup 0 subtable" aogonek.ss01
EndChar

StartChar: aring
Encoding: 229 229 111
Width: 1440
GlyphClass: 2
Flags: MW
HStem: -32 207 -18 21G<1118.5 1217> -18 223.27 518 194 1063 217<615 769> 1369 118<676.5 733.5 676.5 779.5> 1692 119<676.5 733.5>
VStem: 136 287<290.5 405 290.5 459> 450 159<1556 1623 1556 1663.5> 801 161<1556 1623> 932 266<297 331 331 458 458 458 642 803 803 812>
AnchorPoint: "Anchor-3" 0 0 basechar 0
AnchorPoint: "Anchor-2" 0 0 basechar 0
AnchorPoint: "Anchor-1" 0 0 basechar 0
AnchorPoint: "Anchor-0" 705 1249 basechar 0
LayerCount: 2
Fore
SplineSet
705 1369 m 0x5ea0
 557 1369 450 1442 450 1590 c 0
 450 1737 557 1811 705 1811 c 0
 854 1811 962 1737 962 1590 c 0x5ec0
 962 1442 854 1369 705 1369 c 0x5ea0
705 1692 m 0x5ec0
 648 1692 609 1656 609 1590 c 0
 609 1522 648 1487 705 1487 c 0
 762 1487 801 1522 801 1590 c 0
 801 1656 762 1692 705 1692 c 0x5ec0
1342 209 m 1
 1347 9 l 1
 1297 -9 1249 -18 1185 -18 c 0x5ea0
 1052 -18 973 32 945 138 c 1
 870 21 736 -32 561 -32 c 0x9fa0
 298 -32 136 117 136 345 c 0
 136 573 302 712 614 712 c 0
 740 712 842 690 932 642 c 1
 932 803 l 2
 932 990 849 1063 689 1063 c 0
 541 1063 468 1004 450 855 c 1
 180 891 l 1
 212 1142 381 1280 693 1280 c 0
 1033 1280 1198 1123 1198 812 c 2
 1198 331 l 2x3fa0
 1198 224 1235 193 1342 209 c 1
644 175 m 0x9fa0
 765 174 855 210 932 297 c 1
 932 458 l 1
 854 499 771 519 667 518 c 0
 500 517 423 463 423 347 c 0
 423 234 503 176 644 175 c 0x9fa0
EndSplineSet
Substitution2: "'ss01' Style Set 1 in Latin lookup 23 subtable" aring.ss01
Substitution2: "'salt' Stylistic Alternatives in Latin lookup 22 subtable" aring.ss01
Substitution2: "'aalt' Access All Alternates in Latin lookup 0 subtable" aring.ss01
EndChar

StartChar: atilde
Encoding: 227 227 112
Width: 1440
GlyphClass: 2
Flags: MW
HStem: -32 207 -18 21G<1118.5 1217> -18 223.27 518 194 1063 217<615 769> 1426 199<859.5 904 859.5 956.5> 1544 200<507 551.5> 1719 20G<994 994> 1724 20G<452 556>
VStem: 136 287<290.5 405 290.5 459> 932 266<297 331 331 458 458 458 642 803 803 812>
AnchorPoint: "Anchor-3" 0 0 basechar 0
AnchorPoint: "Anchor-2" 0 0 basechar 0
AnchorPoint: "Anchor-1" 0 0 basechar 0
AnchorPoint: "Anchor-0" 705 1249 basechar 0
LayerCount: 2
Fore
SplineSet
535 1544 m 0x5a20
 479 1544 442 1516 416 1430 c 1
 238 1484 l 1
 274 1662 379 1744 525 1744 c 0
 587 1744 648 1725 712 1691 c 2x5ca0
 758 1666 l 2
 805 1641 843 1625 876 1625 c 0
 932 1625 969 1654 994 1739 c 1
 1172 1686 l 1
 1136 1505 1030 1426 883 1426 c 0
 822 1426 762 1445 699 1479 c 2x5d20
 653 1504 l 2
 606 1529 568 1544 535 1544 c 0x5a20
1342 209 m 1
 1347 9 l 1
 1297 -9 1249 -18 1185 -18 c 0x5ca0
 1052 -18 973 32 945 138 c 1
 870 21 736 -32 561 -32 c 0x9ce0
 298 -32 136 117 136 345 c 0
 136 573 302 712 614 712 c 0
 740 712 842 690 932 642 c 1
 932 803 l 2
 932 990 849 1063 689 1063 c 0
 541 1063 468 1004 450 855 c 1
 180 891 l 1
 212 1142 381 1280 693 1280 c 0
 1033 1280 1198 1123 1198 812 c 2
 1198 331 l 2x3ce0
 1198 224 1235 193 1342 209 c 1
644 175 m 0x9ce0
 765 174 855 210 932 297 c 1
 932 458 l 1
 854 499 771 519 667 518 c 0
 500 517 423 463 423 347 c 0
 423 234 503 176 644 175 c 0x9ce0
EndSplineSet
Substitution2: "'ss01' Style Set 1 in Latin lookup 23 subtable" atilde.ss01
Substitution2: "'salt' Stylistic Alternatives in Latin lookup 22 subtable" atilde.ss01
Substitution2: "'aalt' Access All Alternates in Latin lookup 0 subtable" atilde.ss01
EndChar

StartChar: ae
Encoding: 230 230 113
Width: 1440
GlyphClass: 2
Flags: MW
HStem: -32 198<423 475.5> -32 217<939.5 1039 939.5 1073> 519 190 554 191<814 1078 814 1307 813 1078> 1077 203<915.5 1004> 1083 197<431.5 512.5>
VStem: 91 252 585 229<745 745 745 816 745 907.5> 596.65 216.35 1078 239<745 745>
AnchorPoint: "Anchor-3" 0 0 basechar 0
AnchorPoint: "Anchor-2" 0 0 basechar 0
AnchorPoint: "Anchor-1" 0 0 basechar 0
AnchorPoint: "Anchor-0" 713 1250 basechar 0
LayerCount: 2
Fore
SplineSet
1154 359 m 1x5740
 1318 316 l 1
 1278 69 1167 -32 979 -32 c 0
 837 -32 743 32 682 140 c 1
 634 27 538 -32 413 -32 c 0
 216 -32 91 102 91 337 c 0
 91 570 208 709 398 709 c 0
 475 709 535 689 585 651 c 1
 585 816 l 2x6740
 585 999 555 1083 470 1083 c 0
 393 1083 358 1021 348 864 c 1
 120 900 l 1
 142 1142 248 1280 456 1280 c 0
 576 1280 667 1237 710 1133 c 1
 758 1236 848 1280 967 1280 c 0
 1203 1280 1317 1059 1317 704 c 0
 1317 652 1314 604 1307 554 c 1
 813 554 l 1x56c0
 823 315 879 185 1000 185 c 0
 1078 185 1122 232 1154 359 c 1x5740
961 1077 m 0x5b40
 870 1077 823 944 814 745 c 1
 1078 745 l 1
 1079 943 1047 1077 961 1077 c 0x5b40
466 166 m 0xa6c0
 553 166 610 225 594 443 c 1
 556 497 513 520 460 519 c 0
 385 518 341 459 343 347 c 0
 344 233 380 166 466 166 c 0xa6c0
EndSplineSet
EndChar

StartChar: b
Encoding: 98 98 114
Width: 1440
Flags: MW
HStem: -32 229<718 830.5 670 967> 0 21G<183 426 183 183> 1052 228<744.5 840.5> 1707 20G<183 463 463 463>
VStem: 183 280<434 808 1082 1727> 1019 296<495.5 754.5>
LayerCount: 2
Fore
SplineSet
826 1280 m 0x7c
 1150 1280 1315 1021 1315 637 c 0
 1315 245 1135 -32 799 -32 c 0xbc
 637 -32 514 36 443 174 c 1
 426 0 l 1
 183 0 l 1
 183 1727 l 1
 463 1727 l 1
 463 1082 l 1
 539 1221 663 1280 826 1280 c 0x7c
738 197 m 0xbc
 923 197 1019 362 1019 629 c 0
 1019 880 937 1052 744 1052 c 0
 610 1052 506 975 463 808 c 1
 463 434 l 1
 507 277 602 197 738 197 c 0xbc
EndSplineSet
EndChar

StartChar: c
Encoding: 99 99 115
Width: 1440
GlyphClass: 2
Flags: MW
HStem: -32 225<665.5 835 665.5 905.5> 1056 224<661 834.5>
VStem: 155 296<472 775 472 814>
AnchorPoint: "Anchor-3" 0 0 basechar 0
AnchorPoint: "Anchor-2" 0 0 basechar 0
AnchorPoint: "Anchor-1" 762 0 basechar 0
AnchorPoint: "Anchor-0" 763 1249 basechar 0
LayerCount: 2
Fore
SplineSet
759 -32 m 0
 345 -32 155 250 155 628 c 0
 155 1000 341 1280 761 1280 c 0
 1072 1280 1248 1128 1295 824 c 1
 1017 786 l 1
 989 966 911 1056 758 1056 c 0
 564 1056 451 925 451 625 c 0
 451 319 571 193 760 193 c 0
 910 193 989 278 1022 453 c 1
 1293 410 l 1
 1249 114 1052 -32 759 -32 c 0
EndSplineSet
EndChar

StartChar: cacute
Encoding: 263 263 116
Width: 1440
GlyphClass: 2
Flags: MW
HStem: -32 225<665.5 835 665.5 905.5> 1056 224<661 834.5>
VStem: 155 296<472 775 472 814>
AnchorPoint: "Anchor-3" 0 0 basechar 0
AnchorPoint: "Anchor-2" 0 0 basechar 0
AnchorPoint: "Anchor-1" 762 0 basechar 0
AnchorPoint: "Anchor-0" 763 1249 basechar 0
LayerCount: 2
Fore
SplineSet
641 1415 m 1
 794 1763 l 1
 1140 1763 l 1
 875 1415 l 1
 641 1415 l 1
759 -32 m 0
 345 -32 155 250 155 628 c 0
 155 1000 341 1280 761 1280 c 0
 1072 1280 1248 1128 1295 824 c 1
 1017 786 l 1
 989 966 911 1056 758 1056 c 0
 564 1056 451 925 451 625 c 0
 451 319 571 193 760 193 c 0
 910 193 989 278 1022 453 c 1
 1293 410 l 1
 1249 114 1052 -32 759 -32 c 0
EndSplineSet
EndChar

StartChar: ccaron
Encoding: 269 269 117
Width: 1440
GlyphClass: 2
Flags: MW
HStem: -32 225<665.5 835 665.5 905.5> 1056 224<661 834.5>
VStem: 155 296<472 775 472 814>
AnchorPoint: "Anchor-3" 0 0 basechar 0
AnchorPoint: "Anchor-2" 0 0 basechar 0
AnchorPoint: "Anchor-1" 762 0 basechar 0
AnchorPoint: "Anchor-0" 763 1249 basechar 0
LayerCount: 2
Fore
SplineSet
932 1415 m 1
 593 1415 l 1
 379 1763 l 1
 585 1763 l 1
 762 1562 l 1
 940 1763 l 1
 1146 1763 l 1
 932 1415 l 1
760 193 m 0
 910 193 989 278 1022 453 c 1
 1293 410 l 1
 1249 114 1052 -32 759 -32 c 0
 345 -32 155 250 155 628 c 0
 155 1000 341 1280 761 1280 c 0
 1072 1280 1248 1128 1295 824 c 1
 1017 786 l 1
 989 966 911 1056 758 1056 c 0
 564 1056 451 925 451 625 c 0
 451 319 571 193 760 193 c 0
EndSplineSet
EndChar

StartChar: ccedilla
Encoding: 231 231 118
Width: 1440
GlyphClass: 2
Flags: MW
HStem: -503.16 131.39 -461 21G<489 489> -247.37 118.37 -25 21G<653 653> 1056 224<661 834.5>
VStem: 155 296<472 775 472 814> 793 198<-340.5 -279.5>
AnchorPoint: "Anchor-3" 0 0 basechar 0
AnchorPoint: "Anchor-2" 0 0 basechar 0
AnchorPoint: "Anchor-1" 762 0 basechar 0
AnchorPoint: "Anchor-0" 763 1249 basechar 0
LayerCount: 2
Fore
SplineSet
760 193 m 0x7e
 910 193 989 278 1022 453 c 1
 1293 410 l 1
 1252 133 1076 -13 813 -30 c 1
 788 -129 l 1
 930 -134 991 -209 991 -309 c 0xbe
 991 -469 766 -563 489 -461 c 1x7e
 518 -338 l 1xbe
 670 -397 793 -374 793 -307 c 0
 793 -252 721 -230 578 -261 c 1
 653 -25 l 1
 312 19 155 284 155 628 c 0
 155 1000 341 1280 761 1280 c 0
 1072 1280 1248 1128 1295 824 c 1
 1017 786 l 1
 989 966 911 1056 758 1056 c 0
 564 1056 451 925 451 625 c 0
 451 319 571 193 760 193 c 0x7e
EndSplineSet
EndChar

StartChar: cdotaccent
Encoding: 267 267 119
Width: 1440
GlyphClass: 2
Flags: MW
HStem: -32 225<665.5 835 665.5 905.5> 1056 224<661 834.5>
VStem: 155 296<472 775 472 814>
AnchorPoint: "Anchor-3" 0 0 basechar 0
AnchorPoint: "Anchor-2" 0 0 basechar 0
AnchorPoint: "Anchor-1" 762 0 basechar 0
AnchorPoint: "Anchor-0" 763 1249 basechar 0
LayerCount: 2
Fore
SplineSet
762 1417 m 0
 650 1417 567 1492 567 1603 c 0
 567 1712 650 1790 762 1790 c 0
 875 1790 958 1712 958 1603 c 0
 958 1492 875 1417 762 1417 c 0
759 -32 m 0
 345 -32 155 250 155 628 c 0
 155 1000 341 1280 761 1280 c 0
 1072 1280 1248 1128 1295 824 c 1
 1017 786 l 1
 989 966 911 1056 758 1056 c 0
 564 1056 451 925 451 625 c 0
 451 319 571 193 760 193 c 0
 910 193 989 278 1022 453 c 1
 1293 410 l 1
 1249 114 1052 -32 759 -32 c 0
EndSplineSet
EndChar

StartChar: d
Encoding: 100 100 120
Width: 1440
GlyphClass: 2
Flags: MW
HStem: -32 229<604.5 711.5> 0 21G<1011 1254 1011 1011> 1052 228<611.5 722 465.5 774> 1707 20G<974 1254 1254 1254>
VStem: 117 302<487.5 753.5 487.5 813.5> 974 280<426 812 812 812 1111 1727 0 1727>
AnchorPoint: "Anchor-3" 1361 1249 basechar 0
AnchorPoint: "Anchor-2" 0 0 basechar 0
AnchorPoint: "Anchor-1" 0 0 basechar 0
AnchorPoint: "Anchor-0" 0 0 basechar 0
LayerCount: 2
Fore
SplineSet
974 1727 m 1x7c
 1254 1727 l 1
 1254 0 l 1
 1011 0 l 1x7c
 994 185 l 1
 925 38 796 -32 627 -32 c 0xbc
 282 -32 117 258 117 629 c 0
 117 998 288 1280 643 1280 c 0
 801 1280 909 1224 974 1111 c 1
 974 1727 l 1x7c
699 197 m 0xbc
 831 197 931 270 974 426 c 1
 974 812 l 1
 933 975 840 1052 708 1052 c 0
 515 1052 419 887 419 620 c 0
 419 355 510 197 699 197 c 0xbc
EndSplineSet
EndChar

StartChar: dcaron
Encoding: 271 271 121
Width: 1440
Flags: MW
HStem: -32 229<586 699> 0 21G<994 1231 994 994> 1052 228<591.5 706 450.5 755> 1707 20G<962 1231 1231 1231 1351 1584 1584 1584>
VStem: 106 291<487.5 753 487.5 812.5> 962 269<430 803 803 803 1105 1727 0 1727>
LayerCount: 2
Fore
SplineSet
962 1105 m 1x7c
 962 1727 l 1
 1231 1727 l 1
 1231 0 l 1
 994 0 l 1x7c
 980 188 l 1
 912 41 784 -32 614 -32 c 0xbc
 272 -32 106 259 106 628 c 0
 106 997 277 1280 624 1280 c 0
 788 1280 898 1220 962 1105 c 1x7c
1351 1727 m 1
 1584 1727 l 1
 1486 1243 l 1
 1322 1243 l 1
 1351 1727 l 1
682 197 m 0xbc
 814 197 917 272 962 430 c 1
 962 803 l 1
 920 974 821 1052 689 1052 c 0
 494 1052 397 886 397 620 c 0
 397 355 490 197 682 197 c 0xbc
EndSplineSet
EndChar

StartChar: e
Encoding: 101 101 122
Width: 1440
GlyphClass: 2
Flags: MW
HStem: -32 229<680.5 863 680.5 872> 544 203<446 1010 446 1271 442 1010> 1065 215<649 845.5>
VStem: 1010 274<747 747>
AnchorPoint: "Anchor-3" 0 0 basechar 0
AnchorPoint: "Anchor-2" 0 0 basechar 0
AnchorPoint: "Anchor-1" 0 0 basechar 0
AnchorPoint: "Anchor-0" 755 1249 basechar 0
LayerCount: 2
Fore
SplineSet
1284 702 m 0
 1284 651 1280 598 1271 544 c 1
 442 544 l 1
 462 325 570 197 791 197 c 0
 935 197 1036 247 1121 351 c 1
 1263 197 l 1
 1146 42 978 -32 766 -32 c 0
 354 -32 155 245 155 628 c 0
 155 1016 367 1280 750 1280 c 0
 1101 1280 1284 1055 1284 702 c 0
748 1065 m 0
 550 1065 469 936 446 747 c 1
 1010 747 l 1
 1013 939 943 1065 748 1065 c 0
EndSplineSet
EndChar

StartChar: eacute
Encoding: 233 233 123
Width: 1440
GlyphClass: 2
Flags: MW
HStem: -32 229<680.5 863 680.5 872> 544 203<446 1010 446 1271 442 1010> 1065 215<649 845.5>
VStem: 155 1129<676.5 822>
AnchorPoint: "Anchor-3" 0 0 basechar 0
AnchorPoint: "Anchor-2" 0 0 basechar 0
AnchorPoint: "Anchor-1" 0 0 basechar 0
AnchorPoint: "Anchor-0" 755 1249 basechar 0
LayerCount: 2
Fore
SplineSet
1132 1763 m 1
 867 1415 l 1
 633 1415 l 1
 786 1763 l 1
 1132 1763 l 1
1284 702 m 0
 1284 651 1280 598 1271 544 c 1
 442 544 l 1
 462 325 570 197 791 197 c 0
 935 197 1036 247 1121 351 c 1
 1263 197 l 1
 1146 42 978 -32 766 -32 c 0
 354 -32 155 245 155 628 c 0
 155 1016 367 1280 750 1280 c 0
 1101 1280 1284 1055 1284 702 c 0
748 1065 m 0
 550 1065 469 936 446 747 c 1
 1010 747 l 1
 1013 939 943 1065 748 1065 c 0
EndSplineSet
EndChar

StartChar: ebreve
Encoding: 277 277 124
Width: 1440
GlyphClass: 2
Flags: MW
HStem: -32 229<680.5 863 680.5 872> 544 203<446 1010 446 1271 442 1010> 1065 215<649 845.5> 1415 179<698 815.5 698 876.5> 1732 20G<352 352 1161 1161>
VStem: 155 1129<676.5 822>
AnchorPoint: "Anchor-3" 0 0 basechar 0
AnchorPoint: "Anchor-2" 0 0 basechar 0
AnchorPoint: "Anchor-1" 0 0 basechar 0
AnchorPoint: "Anchor-0" 755 1249 basechar 0
LayerCount: 2
Fore
SplineSet
757 1415 m 0
 518 1415 370 1526 352 1752 c 1
 542 1769 l 1
 563 1656 639 1594 757 1594 c 0
 874 1594 950 1656 971 1769 c 1
 1161 1752 l 1
 1144 1526 996 1415 757 1415 c 0
1284 702 m 0
 1284 651 1280 598 1271 544 c 1
 442 544 l 1
 462 325 570 197 791 197 c 0
 935 197 1036 247 1121 351 c 1
 1263 197 l 1
 1146 42 978 -32 766 -32 c 0
 354 -32 155 245 155 628 c 0
 155 1016 367 1280 750 1280 c 0
 1101 1280 1284 1055 1284 702 c 0
748 1065 m 0
 550 1065 469 936 446 747 c 1
 1010 747 l 1
 1013 939 943 1065 748 1065 c 0
EndSplineSet
EndChar

StartChar: ecaron
Encoding: 283 283 125
Width: 1440
GlyphClass: 2
Flags: MW
HStem: -32 229<680.5 863 680.5 872> 544 203<446 1010 446 1271 442 1010> 1065 215<649 845.5>
VStem: 155 1129<676.5 822>
AnchorPoint: "Anchor-3" 0 0 basechar 0
AnchorPoint: "Anchor-2" 0 0 basechar 0
AnchorPoint: "Anchor-1" 0 0 basechar 0
AnchorPoint: "Anchor-0" 755 1249 basechar 0
LayerCount: 2
Fore
SplineSet
924 1415 m 1
 585 1415 l 1
 371 1763 l 1
 577 1763 l 1
 754 1562 l 1
 932 1763 l 1
 1138 1763 l 1
 924 1415 l 1
1284 702 m 0
 1284 651 1280 598 1271 544 c 1
 442 544 l 1
 462 325 570 197 791 197 c 0
 935 197 1036 247 1121 351 c 1
 1263 197 l 1
 1146 42 978 -32 766 -32 c 0
 354 -32 155 245 155 628 c 0
 155 1016 367 1280 750 1280 c 0
 1101 1280 1284 1055 1284 702 c 0
748 1065 m 0
 550 1065 469 936 446 747 c 1
 1010 747 l 1
 1013 939 943 1065 748 1065 c 0
EndSplineSet
EndChar

StartChar: ecircumflex
Encoding: 234 234 126
Width: 1440
GlyphClass: 2
Flags: MW
HStem: -32 229<680.5 863 680.5 872> 544 203<446 1010 446 1271 442 1010> 1065 215<649 845.5> 1617 146<753 753>
VStem: 155 1129<676.5 822>
AnchorPoint: "Anchor-3" 0 0 basechar 0
AnchorPoint: "Anchor-2" 0 0 basechar 0
AnchorPoint: "Anchor-1" 0 0 basechar 0
AnchorPoint: "Anchor-0" 755 1249 basechar 0
LayerCount: 2
Fore
SplineSet
753 1617 m 1
 575 1415 l 1
 372 1415 l 1
 580 1763 l 1
 925 1763 l 1
 1133 1415 l 1
 930 1415 l 1
 753 1617 l 1
1284 702 m 0
 1284 651 1280 598 1271 544 c 1
 442 544 l 1
 462 325 570 197 791 197 c 0
 935 197 1036 247 1121 351 c 1
 1263 197 l 1
 1146 42 978 -32 766 -32 c 0
 354 -32 155 245 155 628 c 0
 155 1016 367 1280 750 1280 c 0
 1101 1280 1284 1055 1284 702 c 0
748 1065 m 0
 550 1065 469 936 446 747 c 1
 1010 747 l 1
 1013 939 943 1065 748 1065 c 0
EndSplineSet
EndChar

StartChar: edieresis
Encoding: 235 235 127
Width: 1440
GlyphClass: 2
Flags: MW
HStem: -32 229<680.5 863 680.5 872> 544 203<446 1010 446 1271 442 1010> 1065 215<649 845.5>
VStem: 155 1129<676.5 822>
AnchorPoint: "Anchor-3" 0 0 basechar 0
AnchorPoint: "Anchor-2" 0 0 basechar 0
AnchorPoint: "Anchor-1" 0 0 basechar 0
AnchorPoint: "Anchor-0" 755 1249 basechar 0
LayerCount: 2
Fore
SplineSet
505 1417 m 0
 399 1417 319 1492 319 1603 c 0
 319 1712 399 1790 505 1790 c 0
 612 1790 692 1712 692 1603 c 0
 692 1492 612 1417 505 1417 c 0
1003 1417 m 0
 897 1417 817 1492 817 1603 c 0
 817 1712 897 1790 1003 1790 c 0
 1110 1790 1190 1712 1190 1603 c 0
 1190 1492 1110 1417 1003 1417 c 0
1284 702 m 0
 1284 651 1280 598 1271 544 c 1
 442 544 l 1
 462 325 570 197 791 197 c 0
 935 197 1036 247 1121 351 c 1
 1263 197 l 1
 1146 42 978 -32 766 -32 c 0
 354 -32 155 245 155 628 c 0
 155 1016 367 1280 750 1280 c 0
 1101 1280 1284 1055 1284 702 c 0
748 1065 m 0
 550 1065 469 936 446 747 c 1
 1010 747 l 1
 1013 939 943 1065 748 1065 c 0
EndSplineSet
EndChar

StartChar: edotaccent
Encoding: 279 279 128
Width: 1440
GlyphClass: 2
Flags: MW
HStem: -32 229<680.5 863 680.5 872> 544 203<446 1010 446 1271 442 1010> 1065 215<649 845.5>
VStem: 155 1129<676.5 822>
AnchorPoint: "Anchor-3" 0 0 basechar 0
AnchorPoint: "Anchor-2" 0 0 basechar 0
AnchorPoint: "Anchor-1" 0 0 basechar 0
AnchorPoint: "Anchor-0" 755 1249 basechar 0
LayerCount: 2
Fore
SplineSet
755 1417 m 0
 643 1417 560 1492 560 1603 c 0
 560 1712 643 1790 755 1790 c 0
 868 1790 951 1712 951 1603 c 0
 951 1492 868 1417 755 1417 c 0
1284 702 m 0
 1284 651 1280 598 1271 544 c 1
 442 544 l 1
 462 325 570 197 791 197 c 0
 935 197 1036 247 1121 351 c 1
 1263 197 l 1
 1146 42 978 -32 766 -32 c 0
 354 -32 155 245 155 628 c 0
 155 1016 367 1280 750 1280 c 0
 1101 1280 1284 1055 1284 702 c 0
748 1065 m 0
 550 1065 469 936 446 747 c 1
 1010 747 l 1
 1013 939 943 1065 748 1065 c 0
EndSplineSet
EndChar

StartChar: egrave
Encoding: 232 232 129
Width: 1440
GlyphClass: 2
Flags: MW
HStem: -32 229<680.5 863 680.5 872> 544 203<446 1010 446 1271 442 1010> 1065 215<649 845.5>
VStem: 155 1129<676.5 822>
AnchorPoint: "Anchor-3" 0 0 basechar 0
AnchorPoint: "Anchor-2" 0 0 basechar 0
AnchorPoint: "Anchor-1" 0 0 basechar 0
AnchorPoint: "Anchor-0" 755 1249 basechar 0
LayerCount: 2
Fore
SplineSet
877 1415 m 1
 642 1415 l 1
 378 1763 l 1
 723 1763 l 1
 877 1415 l 1
1284 702 m 0
 1284 651 1280 598 1271 544 c 1
 442 544 l 1
 462 325 570 197 791 197 c 0
 935 197 1036 247 1121 351 c 1
 1263 197 l 1
 1146 42 978 -32 766 -32 c 0
 354 -32 155 245 155 628 c 0
 155 1016 367 1280 750 1280 c 0
 1101 1280 1284 1055 1284 702 c 0
748 1065 m 0
 550 1065 469 936 446 747 c 1
 1010 747 l 1
 1013 939 943 1065 748 1065 c 0
EndSplineSet
EndChar

StartChar: eogonek
Encoding: 281 281 130
Width: 1440
Flags: MW
HStem: -477 21G<861.5 992.5> -477 196<986.5 992.5> -32 229<680.5 766 766 782> 543.5 203.5 1065 215<649 845.5>
VStem: 682 228<-202.5 -195> 1010 274<747 747>
LayerCount: 2
Fore
SplineSet
1284 702 m 0xbe
 1284 651 1280 598 1271 544 c 1
 442 543 l 1
 463 325 570 197 791 197 c 0
 935 197 1036 247 1121 351 c 1
 1262 197 l 1
 1208 124 1146 77 1071 33 c 0
 951 -37 910 -89 910 -163 c 0
 910 -242 948 -281 1025 -281 c 0
 1055 -281 1085 -275 1125 -261 c 1x7e
 1157 -438 l 1
 1102 -465 1033 -477 952 -477 c 0
 771 -477 682 -374 682 -237 c 0
 682 -153 715 -83 782 -32 c 1
 766 -32 l 2
 354 -32 155 245 155 628 c 0
 155 1016 367 1280 750 1280 c 0
 1101 1280 1284 1055 1284 702 c 0xbe
748 1065 m 0
 550 1065 469 936 446 747 c 1
 1010 747 l 1xba
 1013 939 943 1065 748 1065 c 0
EndSplineSet
EndChar

StartChar: f
Encoding: 102 102 131
Width: 1440
Flags: MW
HStem: 0 226<170 480 760 1221 170 480> 1023 226<170 480 170 480 760 1221> 1534 226<909 1026 817.5 1034>
VStem: 480 280<226 1023 226 1023 1249 1340>
LayerCount: 2
Fore
SplineSet
760 1340 m 2
 760 1249 l 1
 1221 1249 l 1
 1221 1023 l 1
 760 1023 l 1
 760 226 l 1
 1221 226 l 1
 1221 0 l 1
 170 0 l 1
 170 226 l 1
 480 226 l 1
 480 1023 l 1
 170 1023 l 1
 170 1249 l 1
 480 1249 l 1
 480 1350 l 2
 480 1611 666 1760 969 1760 c 0
 1083 1760 1181 1742 1270 1703 c 1
 1203 1490 l 1
 1135 1520 1074 1534 994 1534 c 0
 824 1534 760 1466 760 1340 c 2
EndSplineSet
EndChar

StartChar: g
Encoding: 103 103 132
Width: 1440
GlyphClass: 2
Flags: MW
HStem: -480 226<585 770 585 853.5> 12 229<604.5 710> 1053 227<611.5 723 461 774> 1229 20G<1010 1254 1254 1254>
VStem: 117 302<518 770.5 518 824> 974 280<459 826 826 826>
AnchorPoint: "Anchor-3" 0 0 basechar 0
AnchorPoint: "Anchor-2" 0 0 basechar 0
AnchorPoint: "Anchor-1" 0 0 basechar 0
AnchorPoint: "Anchor-0" 712 1249 basechar 0
LayerCount: 2
Fore
SplineSet
1010 1249 m 1xd4
 1254 1249 l 1xdc
 1254 99 l 2
 1254 -269 1051 -480 656 -480 c 0
 446 -480 283 -418 151 -294 c 1
 279 -106 l 1
 387 -202 522 -254 648 -254 c 0
 892 -254 988 -134 988 79 c 2
 988 222 l 1
 919 78 794 12 626 12 c 0
 282 12 117 290 117 647 c 0
 117 1001 287 1280 635 1280 c 0xec
 811 1280 931 1220 997 1073 c 1
 1010 1249 l 1xd4
699 241 m 0
 831 241 931 311 974 459 c 1
 974 826 l 1
 933 980 840 1053 708 1053 c 0xec
 515 1053 419 897 419 644 c 0
 419 392 510 241 699 241 c 0
EndSplineSet
EndChar

StartChar: gbreve
Encoding: 287 287 133
Width: 1440
GlyphClass: 2
Flags: MW
HStem: -480 226<585 770 585 853.5> 12 229<604.5 710> 1053 227<611.5 723 461 774> 1229 20G<1010 1254 1254 1254> 1415 179<655 772.5 655 833.5> 1732 20G<309 309 1118 1118>
VStem: 117 302<518 770.5 518 824> 974 280<459 826 826 826>
AnchorPoint: "Anchor-3" 0 0 basechar 0
AnchorPoint: "Anchor-2" 0 0 basechar 0
AnchorPoint: "Anchor-1" 0 0 basechar 0
AnchorPoint: "Anchor-0" 712 1249 basechar 0
LayerCount: 2
Fore
SplineSet
714 1415 m 0xdd
 475 1415 327 1526 309 1752 c 1
 499 1769 l 1
 520 1656 596 1594 714 1594 c 0
 831 1594 907 1656 928 1769 c 1
 1118 1752 l 1
 1101 1526 953 1415 714 1415 c 0xdd
1010 1249 m 1
 1254 1249 l 1xdf
 1254 99 l 2
 1254 -269 1051 -480 656 -480 c 0
 446 -480 283 -418 151 -294 c 1
 279 -106 l 1
 387 -202 522 -254 648 -254 c 0
 892 -254 988 -134 988 79 c 2
 988 222 l 1
 919 78 794 12 626 12 c 0
 282 12 117 290 117 647 c 0
 117 1001 287 1280 635 1280 c 0xef
 811 1280 931 1220 997 1073 c 1
 1010 1249 l 1
699 241 m 0
 831 241 931 311 974 459 c 1
 974 826 l 1
 933 980 840 1053 708 1053 c 0xef
 515 1053 419 897 419 644 c 0
 419 392 510 241 699 241 c 0
EndSplineSet
EndChar

StartChar: uni0123
Encoding: 291 291 134
Width: 1440
GlyphClass: 2
Flags: MW
HStem: -480 226<585 770 585 853.5> 12 229<604.5 710> 1053 227<611.5 723 461 774> 1229 20G<1010 1254 1254 1254> 1616 20G<728 739 739 777.5> 1736 20G<865 865>
VStem: 117 302<518 770.5 518 824> 974 280<459 826 826 826>
AnchorPoint: "Anchor-3" 0 0 basechar 0
AnchorPoint: "Anchor-2" 0 0 basechar 0
AnchorPoint: "Anchor-1" 0 0 basechar 0
AnchorPoint: "Anchor-0" 712 1249 basechar 0
LayerCount: 2
Fore
SplineSet
716 1394 m 0xdd
 612 1394 555 1457 555 1569 c 0
 555 1698 636 1795 785 1848 c 1
 865 1756 l 1
 788 1725 744 1688 728 1636 c 1
 739 1636 l 2
 816 1636 868 1591 868 1519 c 0
 868 1444 809 1394 716 1394 c 0xdd
1010 1249 m 1
 1254 1249 l 1xdf
 1254 99 l 2
 1254 -269 1051 -480 656 -480 c 0
 446 -480 283 -418 151 -294 c 1
 279 -106 l 1
 387 -202 522 -254 648 -254 c 0
 892 -254 988 -134 988 79 c 2
 988 222 l 1
 919 78 794 12 626 12 c 0
 282 12 117 290 117 647 c 0
 117 1001 287 1280 635 1280 c 0xef
 811 1280 931 1220 997 1073 c 1
 1010 1249 l 1
699 241 m 0
 831 241 931 311 974 459 c 1
 974 826 l 1
 933 980 840 1053 708 1053 c 0xef
 515 1053 419 897 419 644 c 0
 419 392 510 241 699 241 c 0
EndSplineSet
EndChar

StartChar: gdotaccent
Encoding: 289 289 135
Width: 1440
GlyphClass: 2
Flags: MW
HStem: -480 226<585 770 585 853.5> 12 229<604.5 710> 1053 227<611.5 723 461 774> 1229 20G<1010 1254 1254 1254>
VStem: 117 302<518 770.5 518 824> 974 280<459 826 826 826>
AnchorPoint: "Anchor-3" 0 0 basechar 0
AnchorPoint: "Anchor-2" 0 0 basechar 0
AnchorPoint: "Anchor-1" 0 0 basechar 0
AnchorPoint: "Anchor-0" 712 1249 basechar 0
LayerCount: 2
Fore
SplineSet
712 1417 m 0xd4
 600 1417 517 1492 517 1603 c 0
 517 1712 600 1790 712 1790 c 0
 825 1790 908 1712 908 1603 c 0
 908 1492 825 1417 712 1417 c 0xd4
1010 1249 m 1
 1254 1249 l 1xdc
 1254 99 l 2
 1254 -269 1051 -480 656 -480 c 0
 446 -480 283 -418 151 -294 c 1
 279 -106 l 1
 387 -202 522 -254 648 -254 c 0
 892 -254 988 -134 988 79 c 2
 988 222 l 1
 919 78 794 12 626 12 c 0
 282 12 117 290 117 647 c 0
 117 1001 287 1280 635 1280 c 0xec
 811 1280 931 1220 997 1073 c 1
 1010 1249 l 1
699 241 m 0
 831 241 931 311 974 459 c 1
 974 826 l 1
 933 980 840 1053 708 1053 c 0xec
 515 1053 419 897 419 644 c 0
 419 392 510 241 699 241 c 0
EndSplineSet
EndChar

StartChar: h
Encoding: 104 104 136
Width: 1440
Flags: MW
HStem: 0 21G<177 457 177 177 982 1262 982 982> 1039 241<756.5 856.5> 1707 20G<177 457 457 457>
VStem: 177 280<0 728 1051 1727> 982 280<0 811 811 818 0 883.5>
LayerCount: 2
Fore
SplineSet
845 1280 m 0
 1117 1280 1262 1135 1262 818 c 2
 1262 0 l 1
 982 0 l 1
 982 811 l 2
 982 956 933 1039 780 1039 c 0
 635 1039 514 955 457 728 c 1
 457 0 l 1
 177 0 l 1
 177 1727 l 1
 457 1727 l 1
 457 1051 l 1
 537 1211 668 1280 845 1280 c 0
EndSplineSet
EndChar

StartChar: i
Encoding: 105 105 137
Width: 1440
Flags: MW
HStem: 0 227<162 583 162 583 863 1278> 1022 227<162 583 162 863>
VStem: 583 280<227 1022 1022 1022>
LayerCount: 2
Fore
SplineSet
722 1417 m 0
 605 1417 522 1493 522 1603 c 0
 522 1712 605 1790 722 1790 c 0
 839 1790 922 1712 922 1603 c 0
 922 1493 839 1417 722 1417 c 0
162 0 m 1
 162 227 l 1
 583 227 l 1
 583 1022 l 1
 162 1022 l 1
 162 1249 l 1
 863 1249 l 1
 863 227 l 1
 1278 227 l 1
 1278 0 l 1
 162 0 l 1
EndSplineSet
Substitution2: "Single Substitution lookup 26 subtable" dotlessi
Substitution2: "'locl' Localized Forms in Latin lookup 9 subtable" i.loclTRK
Substitution2: "'locl' Localized Forms in Latin lookup 8 subtable" i.loclTRK
Substitution2: "'locl' Localized Forms in Latin lookup 6 subtable" i.loclTRK
Substitution2: "'locl' Localized Forms in Latin lookup 5 subtable" i.loclTRK
Substitution2: "'locl' Localized Forms in Latin lookup 4 subtable" i.loclTRK
Substitution2: "'aalt' Access All Alternates in Latin lookup 0 subtable" i.loclTRK
EndChar

StartChar: dotlessi
Encoding: 305 305 138
Width: 1440
GlyphClass: 2
Flags: MW
HStem: 0 227<162 584 162 584 861 1278> 1022 227<162 584 162 861>
VStem: 584 277<227 1022 1022 1022>
AnchorPoint: "Anchor-3" 0 0 basechar 0
AnchorPoint: "Anchor-2" 0 0 basechar 0
AnchorPoint: "Anchor-1" 0 0 basechar 0
AnchorPoint: "Anchor-0" 722 1249 basechar 0
LayerCount: 2
Fore
SplineSet
162 0 m 1
 162 227 l 1
 584 227 l 1
 584 1022 l 1
 162 1022 l 1
 162 1249 l 1
 861 1249 l 1
 861 227 l 1
 1278 227 l 1
 1278 0 l 1
 162 0 l 1
EndSplineSet
EndChar

StartChar: iacute
Encoding: 237 237 139
Width: 1440
GlyphClass: 2
Flags: MW
HStem: 0 227<162 584 162 584 861 1278> 1022 227<162 584 162 861>
VStem: 584 277<227 1022 1022 1022>
AnchorPoint: "Anchor-3" 0 0 basechar 0
AnchorPoint: "Anchor-2" 0 0 basechar 0
AnchorPoint: "Anchor-1" 0 0 basechar 0
AnchorPoint: "Anchor-0" 722 1249 basechar 0
LayerCount: 2
Fore
SplineSet
600 1415 m 1
 753 1763 l 1
 1099 1763 l 1
 834 1415 l 1
 600 1415 l 1
162 0 m 1
 162 227 l 1
 584 227 l 1
 584 1022 l 1
 162 1022 l 1
 162 1249 l 1
 861 1249 l 1
 861 227 l 1
 1278 227 l 1
 1278 0 l 1
 162 0 l 1
EndSplineSet
EndChar

StartChar: ibreve
Encoding: 301 301 140
Width: 1440
GlyphClass: 2
Flags: MW
HStem: 0 227<162 584 162 584 861 1278> 1022 227<162 584 162 861> 1415 179<664 781.5 664 842.5> 1732 20G<318 318 1127 1127>
VStem: 584 277<227 1022 1022 1022>
AnchorPoint: "Anchor-3" 0 0 basechar 0
AnchorPoint: "Anchor-2" 0 0 basechar 0
AnchorPoint: "Anchor-1" 0 0 basechar 0
AnchorPoint: "Anchor-0" 722 1249 basechar 0
LayerCount: 2
Fore
SplineSet
723 1415 m 0
 484 1415 336 1526 318 1752 c 1
 508 1769 l 1
 529 1656 605 1594 723 1594 c 0
 840 1594 916 1656 937 1769 c 1
 1127 1752 l 1
 1110 1526 962 1415 723 1415 c 0
162 0 m 1
 162 227 l 1
 584 227 l 1
 584 1022 l 1
 162 1022 l 1
 162 1249 l 1
 861 1249 l 1
 861 227 l 1
 1278 227 l 1
 1278 0 l 1
 162 0 l 1
EndSplineSet
EndChar

StartChar: icircumflex
Encoding: 238 238 141
Width: 1440
GlyphClass: 2
Flags: MW
HStem: 0 227<162 584 861 1278 162 584> 1022 227<162 584 162 861> 1617 146<719 719>
VStem: 584 277<227 1022 1022 1022>
AnchorPoint: "Anchor-3" 0 0 basechar 0
AnchorPoint: "Anchor-2" 0 0 basechar 0
AnchorPoint: "Anchor-1" 0 0 basechar 0
AnchorPoint: "Anchor-0" 722 1249 basechar 0
LayerCount: 2
Fore
SplineSet
719 1617 m 1
 541 1415 l 1
 338 1415 l 1
 546 1763 l 1
 891 1763 l 1
 1099 1415 l 1
 896 1415 l 1
 719 1617 l 1
861 227 m 1
 1278 227 l 1
 1278 0 l 1
 162 0 l 1
 162 227 l 1
 584 227 l 1
 584 1022 l 1
 162 1022 l 1
 162 1249 l 1
 861 1249 l 1
 861 227 l 1
EndSplineSet
EndChar

StartChar: idieresis
Encoding: 239 239 142
Width: 1440
GlyphClass: 2
Flags: MW
HStem: 0 227<162 584 162 584 861 1278> 1022 227<162 584 162 861>
VStem: 584 277<227 1022 1022 1022>
AnchorPoint: "Anchor-3" 0 0 basechar 0
AnchorPoint: "Anchor-2" 0 0 basechar 0
AnchorPoint: "Anchor-1" 0 0 basechar 0
AnchorPoint: "Anchor-0" 722 1249 basechar 0
LayerCount: 2
Fore
SplineSet
472 1417 m 0
 366 1417 286 1492 286 1603 c 0
 286 1712 366 1790 472 1790 c 0
 579 1790 659 1712 659 1603 c 0
 659 1492 579 1417 472 1417 c 0
970 1417 m 0
 864 1417 784 1492 784 1603 c 0
 784 1712 864 1790 970 1790 c 0
 1077 1790 1157 1712 1157 1603 c 0
 1157 1492 1077 1417 970 1417 c 0
162 0 m 1
 162 227 l 1
 584 227 l 1
 584 1022 l 1
 162 1022 l 1
 162 1249 l 1
 861 1249 l 1
 861 227 l 1
 1278 227 l 1
 1278 0 l 1
 162 0 l 1
EndSplineSet
EndChar

StartChar: i.loclTRK
Encoding: 65538 -1 143
Width: 1440
GlyphClass: 2
Flags: MW
HStem: 0 227<162 584 162 584 861 1278> 1022 227<162 584 162 861>
VStem: 584 277<227 1022 1022 1022>
AnchorPoint: "Anchor-3" 0 0 basechar 0
AnchorPoint: "Anchor-2" 0 0 basechar 0
AnchorPoint: "Anchor-1" 0 0 basechar 0
AnchorPoint: "Anchor-0" 722 1249 basechar 0
LayerCount: 2
Fore
SplineSet
721 1417 m 0
 609 1417 526 1492 526 1603 c 0
 526 1712 609 1790 721 1790 c 0
 834 1790 917 1712 917 1603 c 0
 917 1492 834 1417 721 1417 c 0
162 0 m 1
 162 227 l 1
 584 227 l 1
 584 1022 l 1
 162 1022 l 1
 162 1249 l 1
 861 1249 l 1
 861 227 l 1
 1278 227 l 1
 1278 0 l 1
 162 0 l 1
EndSplineSet
EndChar

StartChar: igrave
Encoding: 236 236 144
Width: 1440
GlyphClass: 2
Flags: MW
HStem: 0 227<162 584 162 584 861 1278> 1022 227<162 584 162 861>
VStem: 584 277<227 1022 1022 1022>
AnchorPoint: "Anchor-3" 0 0 basechar 0
AnchorPoint: "Anchor-2" 0 0 basechar 0
AnchorPoint: "Anchor-1" 0 0 basechar 0
AnchorPoint: "Anchor-0" 722 1249 basechar 0
LayerCount: 2
Fore
SplineSet
608 1415 m 1
 344 1763 l 1
 689 1763 l 1
 843 1415 l 1
 608 1415 l 1
162 0 m 1
 162 227 l 1
 584 227 l 1
 584 1022 l 1
 162 1022 l 1
 162 1249 l 1
 861 1249 l 1
 861 227 l 1
 1278 227 l 1
 1278 0 l 1
 162 0 l 1
EndSplineSet
EndChar

StartChar: iogonek
Encoding: 303 303 145
Width: 1440
Flags: MW
HStem: -477 21G<617.5 745> -477 196<617.5 803.5> 0 227<162 559 162 583 863 1278> 1022 227<162 583 162 863>
VStem: 436 238<-214 -185> 583 280<227 1022 1022 1022>
LayerCount: 2
Fore
SplineSet
722 1417 m 0xb4
 605 1417 522 1493 522 1603 c 0
 522 1712 605 1790 722 1790 c 0
 839 1790 922 1712 922 1603 c 0
 922 1493 839 1417 722 1417 c 0xb4
848 0 m 1xb8
 721 -42 674 -102 674 -177 c 0
 674 -251 716 -281 788 -281 c 0
 819 -281 848 -275 879 -264 c 1x78
 908 -442 l 1
 854 -465 781 -477 709 -477 c 0
 526 -477 436 -372 436 -232 c 0xb8
 436 -138 477 -58 559 0 c 1
 162 0 l 1
 162 227 l 1
 583 227 l 1
 583 1022 l 1
 162 1022 l 1
 162 1249 l 1
 863 1249 l 1
 863 227 l 1xb4
 1278 227 l 1
 1278 0 l 1
 848 0 l 1xb8
EndSplineSet
EndChar

StartChar: itilde
Encoding: 297 297 146
Width: 1440
GlyphClass: 2
Flags: MW
HStem: 0 227<162 584 162 584 861 1278> 1022 227<162 584 162 861> 1426 199<876.5 921 876.5 973.5> 1544 200<524 568.5> 1719 20G<1011 1011> 1724 20G<469 573>
VStem: 584 277<227 1022 1022 1022>
AnchorPoint: "Anchor-3" 0 0 basechar 0
AnchorPoint: "Anchor-2" 0 0 basechar 0
AnchorPoint: "Anchor-1" 0 0 basechar 0
AnchorPoint: "Anchor-0" 722 1249 basechar 0
LayerCount: 2
Fore
SplineSet
900 1426 m 0xe6
 839 1426 779 1445 716 1479 c 2xe6
 670 1504 l 2
 623 1529 585 1544 552 1544 c 0xd2
 496 1544 459 1516 433 1430 c 1
 255 1484 l 1
 291 1662 396 1744 542 1744 c 0
 604 1744 665 1725 729 1691 c 2xe6
 775 1666 l 2
 822 1641 860 1625 893 1625 c 0
 949 1625 986 1654 1011 1739 c 1xea
 1189 1686 l 1
 1153 1505 1047 1426 900 1426 c 0xe6
162 0 m 1
 162 227 l 1
 584 227 l 1
 584 1022 l 1
 162 1022 l 1
 162 1249 l 1
 861 1249 l 1
 861 227 l 1
 1278 227 l 1
 1278 0 l 1
 162 0 l 1
EndSplineSet
EndChar

StartChar: j
Encoding: 106 106 147
Width: 1440
Flags: MW
HStem: -480 218<577.5 724 577.5 808.5> 1022 227<190 847 190 1124>
VStem: 165 274<-85 21.5> 847 277<11 18 18 1022 1022 1022>
LayerCount: 2
Fore
SplineSet
978 1417 m 0
 861 1417 779 1492 779 1603 c 0
 779 1712 861 1790 978 1790 c 0
 1096 1790 1178 1712 1178 1603 c 0
 1178 1492 1096 1417 978 1417 c 0
643 -480 m 0
 302 -480 165 -295 165 -9 c 0
 165 52 175 116 195 188 c 1
 468 209 l 1
 449 140 439 76 439 10 c 0
 439 -180 512 -262 643 -262 c 0
 805 -262 847 -153 847 11 c 2
 847 1022 l 1
 190 1022 l 1
 190 1249 l 1
 1124 1249 l 1
 1124 18 l 2
 1124 -307 974 -480 643 -480 c 0
EndSplineSet
Substitution2: "Single Substitution lookup 26 subtable" uni0237
EndChar

StartChar: uni0237
Encoding: 567 567 148
Width: 1440
GlyphClass: 2
Flags: MW
HStem: -480 218<577.5 724 577.5 808.5> 1022 227<190 847 190 1124>
VStem: 165 274<-85 21.5> 847 277<11 18 18 1022 1022 1022>
AnchorPoint: "Anchor-3" 0 0 basechar 0
AnchorPoint: "Anchor-2" 0 0 basechar 0
AnchorPoint: "Anchor-1" 0 0 basechar 0
AnchorPoint: "Anchor-0" 657 1249 basechar 0
LayerCount: 2
Fore
SplineSet
643 -480 m 0
 302 -480 165 -295 165 -9 c 0
 165 52 175 116 195 188 c 1
 468 209 l 1
 449 140 439 76 439 10 c 0
 439 -180 512 -262 643 -262 c 0
 805 -262 847 -153 847 11 c 2
 847 1022 l 1
 190 1022 l 1
 190 1249 l 1
 1124 1249 l 1
 1124 18 l 2
 1124 -307 974 -480 643 -480 c 0
EndSplineSet
EndChar

StartChar: k
Encoding: 107 107 149
Width: 1440
Flags: MW
HStem: 0 21G<218 497 218 218 1047 1374 1047 1047> 1229 20G<992 1327 1327 1327> 1707 20G<218 497 497 497>
VStem: 218 279<0 377 679 1727>
LayerCount: 2
Fore
SplineSet
1047 0 m 1
 660 564 l 1
 497 377 l 1
 497 0 l 1
 218 0 l 1
 218 1727 l 1
 497 1727 l 1
 497 679 l 1
 992 1249 l 1
 1327 1249 l 1
 862 737 l 1
 1374 0 l 1
 1047 0 l 1
EndSplineSet
EndChar

StartChar: l
Encoding: 108 108 150
Width: 1440
GlyphClass: 2
Flags: MW
HStem: 0 227<162 583 162 583 863 1278> 1499 228<162 583 162 863>
VStem: 583 280<227 1499 1499 1499>
AnchorPoint: "Anchor-3" 1056 1249 basechar 0
AnchorPoint: "Anchor-2" 720 960 basechar 0
AnchorPoint: "Anchor-1" 720 0 basechar 0
AnchorPoint: "Anchor-0" 720 1920 basechar 0
LayerCount: 2
Fore
SplineSet
162 0 m 1
 162 227 l 1
 583 227 l 1
 583 1499 l 1
 162 1499 l 1
 162 1727 l 1
 863 1727 l 1
 863 227 l 1
 1278 227 l 1
 1278 0 l 1
 162 0 l 1
EndSplineSet
EndChar

StartChar: lcaron
Encoding: 318 318 151
Width: 1440
GlyphClass: 2
Flags: MW
HStem: 0 227<162 583 162 583 863 1278> 1499 228<162 583 162 863>
VStem: 583 280<227 1499 1499 1499>
AnchorPoint: "Anchor-3" 1056 1249 basechar 0
AnchorPoint: "Anchor-2" 720 960 basechar 0
AnchorPoint: "Anchor-1" 720 0 basechar 0
AnchorPoint: "Anchor-0" 720 1920 basechar 0
LayerCount: 2
Fore
SplineSet
162 0 m 1
 162 227 l 1
 583 227 l 1
 583 1499 l 1
 162 1499 l 1
 162 1727 l 1
 863 1727 l 1
 863 227 l 1
 1278 227 l 1
 1278 0 l 1
 162 0 l 1
1031 1243 m 1
 1061 1727 l 1
 1299 1727 l 1
 1200 1243 l 1
 1031 1243 l 1
EndSplineSet
EndChar

StartChar: ldot
Encoding: 320 320 152
Width: 1440
GlyphClass: 2
Flags: MW
HStem: 0 227<162 583 162 583 863 1278> 1499 228<162 583 162 863>
VStem: 583 280<227 1499 1499 1499>
AnchorPoint: "Anchor-3" 1056 1249 basechar 0
AnchorPoint: "Anchor-2" 720 960 basechar 0
AnchorPoint: "Anchor-1" 720 0 basechar 0
AnchorPoint: "Anchor-0" 720 1920 basechar 0
LayerCount: 2
Fore
SplineSet
162 0 m 1
 162 227 l 1
 583 227 l 1
 583 1499 l 1
 162 1499 l 1
 162 1727 l 1
 863 1727 l 1
 863 227 l 1
 1278 227 l 1
 1278 0 l 1
 162 0 l 1
1429 700 m 0
 1334 700 1264 760 1264 862 c 0
 1264 963 1334 1027 1429 1027 c 0
 1525 1027 1594 963 1594 862 c 0
 1594 760 1525 700 1429 700 c 0
EndSplineSet
Ligature2: "Ligature Substitution lookup 27 subtable" l periodcentered
EndChar

StartChar: lslash
Encoding: 322 322 153
Width: 1440
GlyphClass: 2
Flags: MW
HStem: 0 227<162 583 863 1278 162 583> 1499 228<162 583 162 863>
VStem: 583 280<227 797 797 797 1111 1499 1499 1499>
AnchorPoint: "Anchor-3" 1056 1249 basechar 0
AnchorPoint: "Anchor-2" 720 960 basechar 0
AnchorPoint: "Anchor-1" 720 0 basechar 0
AnchorPoint: "Anchor-0" 720 1920 basechar 0
LayerCount: 2
Fore
SplineSet
863 227 m 1
 1278 227 l 1
 1278 0 l 1
 162 0 l 1
 162 227 l 1
 583 227 l 1
 583 797 l 1
 267 685 l 1
 267 899 l 1
 583 1011 l 1
 583 1499 l 1
 162 1499 l 1
 162 1727 l 1
 863 1727 l 1
 863 1111 l 1
 1173 1221 l 1
 1173 1007 l 1
 863 897 l 1
 863 227 l 1
EndSplineSet
EndChar

StartChar: m
Encoding: 109 109 154
Width: 1440
Flags: MW
HStem: 0 21G<128 380 128 128 602 855 602 602 1077 1329 1077 1077> 1045 235<539.5 540 1011 1014.5> 1229 20G<128 343 343 343> 1260 20G<539.5 651.5 1011 1160.5>
VStem: 128 252<0 926 0 1249> 602 253<0 883 883 896 896 922 0 941.5> 1077 252<0 883 883 896 0 941.5>
LayerCount: 2
Fore
SplineSet
1065 1280 m 0xbe
 1256 1280 1329 1144 1329 896 c 2
 1329 0 l 1
 1077 0 l 1
 1077 883 l 2
 1077 1000 1046 1045 983 1045 c 0
 927 1045 883 1012 855 922 c 1
 855 896 l 1
 855 0 l 1
 602 0 l 1
 602 883 l 2
 602 1000 571 1045 509 1045 c 0xce
 454 1045 409 1014 380 926 c 1
 380 0 l 1
 128 0 l 1
 128 1249 l 1
 343 1249 l 1
 350 1130 l 1
 403 1239 487 1280 592 1280 c 0
 711 1280 784 1227 822 1127 c 1
 873 1238 957 1280 1065 1280 c 0xbe
EndSplineSet
EndChar

StartChar: n
Encoding: 110 110 155
Width: 1440
GlyphClass: 2
Flags: MW
HStem: 0 21G<177 457 177 177 982 1262 982 982> 1039 241<748 855.5> 1229 20G<177 429 429 429>
VStem: 177 280<0 729 0 1249> 982 280<0 810 810 815 0 882.5>
AnchorPoint: "Anchor-3" 0 0 basechar 0
AnchorPoint: "Anchor-2" 0 0 basechar 0
AnchorPoint: "Anchor-1" 0 0 basechar 0
AnchorPoint: "Anchor-0" 720 1249 basechar 0
LayerCount: 2
Fore
SplineSet
841 1280 m 0xd8
 1115 1280 1262 1134 1262 815 c 2
 1262 0 l 1
 982 0 l 1
 982 810 l 2
 982 955 932 1039 779 1039 c 0xd8
 633 1039 513 953 457 729 c 1
 457 0 l 1
 177 0 l 1
 177 1249 l 1
 429 1249 l 1xb8
 440 1030 l 1
 521 1205 655 1280 841 1280 c 0xd8
EndSplineSet
EndChar

StartChar: nacute
Encoding: 324 324 156
Width: 1440
GlyphClass: 2
Flags: MW
HStem: 0 21G<177 457 177 177 982 1262 982 982> 1039 241<748 855.5> 1229 20G<177 429 429 429>
VStem: 177 280<0 729 0 1249> 982 280<0 810 810 815 0 882.5>
AnchorPoint: "Anchor-3" 0 0 basechar 0
AnchorPoint: "Anchor-2" 0 0 basechar 0
AnchorPoint: "Anchor-1" 0 0 basechar 0
AnchorPoint: "Anchor-0" 720 1249 basechar 0
LayerCount: 2
Fore
SplineSet
1098 1763 m 1xb8
 833 1415 l 1
 599 1415 l 1
 752 1763 l 1
 1098 1763 l 1xb8
841 1280 m 0xd8
 1115 1280 1262 1134 1262 815 c 2
 1262 0 l 1
 982 0 l 1
 982 810 l 2
 982 955 932 1039 779 1039 c 0xd8
 633 1039 513 953 457 729 c 1
 457 0 l 1
 177 0 l 1
 177 1249 l 1
 429 1249 l 1xb8
 440 1030 l 1
 521 1205 655 1280 841 1280 c 0xd8
EndSplineSet
EndChar

StartChar: ncaron
Encoding: 328 328 157
Width: 1440
GlyphClass: 2
Flags: MW
HStem: 0 21G<177 457 177 177 982 1262 982 982> 1039 241<748 855.5> 1229 20G<177 429 429 429>
VStem: 177 280<0 729 0 1249> 982 280<0 810 810 815 0 882.5>
AnchorPoint: "Anchor-3" 0 0 basechar 0
AnchorPoint: "Anchor-2" 0 0 basechar 0
AnchorPoint: "Anchor-1" 0 0 basechar 0
AnchorPoint: "Anchor-0" 720 1249 basechar 0
LayerCount: 2
Fore
SplineSet
889 1415 m 1xb8
 550 1415 l 1
 336 1763 l 1
 542 1763 l 1
 719 1562 l 1
 897 1763 l 1
 1103 1763 l 1
 889 1415 l 1xb8
841 1280 m 0xd8
 1115 1280 1262 1134 1262 815 c 2
 1262 0 l 1
 982 0 l 1
 982 810 l 2
 982 955 932 1039 779 1039 c 0xd8
 633 1039 513 953 457 729 c 1
 457 0 l 1
 177 0 l 1
 177 1249 l 1
 429 1249 l 1xb8
 440 1030 l 1
 521 1205 655 1280 841 1280 c 0xd8
EndSplineSet
EndChar

StartChar: ntilde
Encoding: 241 241 158
Width: 1440
GlyphClass: 2
Flags: MW
HStem: 0 21G<177 457 177 177 982 1262 982 982> 1039 241<748 855.5> 1229 20G<177 429 429 429> 1426 199<874.5 919 874.5 971.5> 1544 200<522 566.5> 1719 20G<1009 1009> 1724 20G<467 571>
VStem: 177 280<0 729 0 1249> 982 280<0 810 810 815 0 882.5>
AnchorPoint: "Anchor-3" 0 0 basechar 0
AnchorPoint: "Anchor-2" 0 0 basechar 0
AnchorPoint: "Anchor-1" 0 0 basechar 0
AnchorPoint: "Anchor-0" 720 1249 basechar 0
LayerCount: 2
Fore
SplineSet
550 1544 m 0xa980
 494 1544 457 1516 431 1430 c 1
 253 1484 l 1
 289 1662 394 1744 540 1744 c 0
 602 1744 663 1725 727 1691 c 2xb380
 773 1666 l 2
 820 1641 858 1625 891 1625 c 0
 947 1625 984 1654 1009 1739 c 1
 1187 1686 l 1
 1151 1505 1045 1426 898 1426 c 0
 837 1426 777 1445 714 1479 c 2xb580
 668 1504 l 2
 621 1529 583 1544 550 1544 c 0xa980
841 1280 m 0xd380
 1115 1280 1262 1134 1262 815 c 2
 1262 0 l 1
 982 0 l 1
 982 810 l 2
 982 955 932 1039 779 1039 c 0xd380
 633 1039 513 953 457 729 c 1
 457 0 l 1
 177 0 l 1
 177 1249 l 1
 429 1249 l 1xb380
 440 1030 l 1
 521 1205 655 1280 841 1280 c 0xd380
EndSplineSet
EndChar

StartChar: o
Encoding: 111 111 159
Width: 1440
GlyphClass: 2
Flags: MW
HStem: -32 221<621 818.5 621 911> 1059 221<621 818.5>
VStem: 120 297<473 772.5 473 828.5> 1023 296<473 772.5>
AnchorPoint: "Anchor-3" 0 0 basechar 0
AnchorPoint: "Anchor-2" 0 0 basechar 0
AnchorPoint: "Anchor-1" 0 0 basechar 0
AnchorPoint: "Anchor-0" 720 1249 basechar 0
LayerCount: 2
Fore
SplineSet
720 -32 m 0
 338 -32 120 217 120 625 c 0
 120 1032 338 1280 720 1280 c 0
 1102 1280 1319 1032 1319 625 c 0
 1319 217 1102 -32 720 -32 c 0
720 189 m 0
 917 189 1023 321 1023 625 c 0
 1023 920 917 1059 720 1059 c 0
 522 1059 417 920 417 625 c 0
 417 321 522 189 720 189 c 0
EndSplineSet
Substitution2: "Single Substitution lookup 28 subtable" ordmasculine
Substitution2: "'aalt' Access All Alternates in Latin lookup 0 subtable" ordmasculine
EndChar

StartChar: oacute
Encoding: 243 243 160
Width: 1440
GlyphClass: 2
Flags: MW
HStem: -32 221<621 818.5 621 911> 1059 221<621 818.5>
VStem: 120 297<473 772.5 473 828.5> 1023 296<473 772.5>
AnchorPoint: "Anchor-3" 0 0 basechar 0
AnchorPoint: "Anchor-2" 0 0 basechar 0
AnchorPoint: "Anchor-1" 0 0 basechar 0
AnchorPoint: "Anchor-0" 720 1249 basechar 0
LayerCount: 2
Fore
SplineSet
598 1415 m 1
 751 1763 l 1
 1097 1763 l 1
 832 1415 l 1
 598 1415 l 1
720 -32 m 0
 338 -32 120 217 120 625 c 0
 120 1032 338 1280 720 1280 c 0
 1102 1280 1319 1032 1319 625 c 0
 1319 217 1102 -32 720 -32 c 0
720 189 m 0
 917 189 1023 321 1023 625 c 0
 1023 920 917 1059 720 1059 c 0
 522 1059 417 920 417 625 c 0
 417 321 522 189 720 189 c 0
EndSplineSet
EndChar

StartChar: obreve
Encoding: 335 335 161
Width: 1440
GlyphClass: 2
Flags: MW
HStem: -32 221<621 818.5 621 911> 1059 221<621 818.5> 1415 179<663 780.5 663 841.5> 1732 20G<317 317 1126 1126>
VStem: 120 297<473 772.5 473 828.5> 1023 296<473 772.5>
AnchorPoint: "Anchor-3" 0 0 basechar 0
AnchorPoint: "Anchor-2" 0 0 basechar 0
AnchorPoint: "Anchor-1" 0 0 basechar 0
AnchorPoint: "Anchor-0" 720 1249 basechar 0
LayerCount: 2
Fore
SplineSet
722 1415 m 0
 483 1415 335 1526 317 1752 c 1
 507 1769 l 1
 528 1656 604 1594 722 1594 c 0
 839 1594 915 1656 936 1769 c 1
 1126 1752 l 1
 1109 1526 961 1415 722 1415 c 0
720 -32 m 0
 338 -32 120 217 120 625 c 0
 120 1032 338 1280 720 1280 c 0
 1102 1280 1319 1032 1319 625 c 0
 1319 217 1102 -32 720 -32 c 0
720 189 m 0
 917 189 1023 321 1023 625 c 0
 1023 920 917 1059 720 1059 c 0
 522 1059 417 920 417 625 c 0
 417 321 522 189 720 189 c 0
EndSplineSet
EndChar

StartChar: ocircumflex
Encoding: 244 244 162
Width: 1440
GlyphClass: 2
Flags: MW
HStem: -32 221<621 818.5 621 911> 1059 221<621 818.5> 1617 146<718 718>
VStem: 120 297<473 772.5 473 828.5> 1023 296<473 772.5>
AnchorPoint: "Anchor-3" 0 0 basechar 0
AnchorPoint: "Anchor-2" 0 0 basechar 0
AnchorPoint: "Anchor-1" 0 0 basechar 0
AnchorPoint: "Anchor-0" 720 1249 basechar 0
LayerCount: 2
Fore
SplineSet
718 1617 m 1
 540 1415 l 1
 337 1415 l 1
 545 1763 l 1
 890 1763 l 1
 1098 1415 l 1
 895 1415 l 1
 718 1617 l 1
720 1280 m 0
 1102 1280 1319 1032 1319 625 c 0
 1319 217 1102 -32 720 -32 c 0
 338 -32 120 217 120 625 c 0
 120 1032 338 1280 720 1280 c 0
720 189 m 0
 917 189 1023 321 1023 625 c 0
 1023 920 917 1059 720 1059 c 0
 522 1059 417 920 417 625 c 0
 417 321 522 189 720 189 c 0
EndSplineSet
EndChar

StartChar: odieresis
Encoding: 246 246 163
Width: 1440
GlyphClass: 2
Flags: MW
HStem: -32 221<621 818.5 621 911> 1059 221<621 818.5>
VStem: 120 297<473 772.5 473 828.5> 1023 296<473 772.5>
AnchorPoint: "Anchor-3" 0 0 basechar 0
AnchorPoint: "Anchor-2" 0 0 basechar 0
AnchorPoint: "Anchor-1" 0 0 basechar 0
AnchorPoint: "Anchor-0" 720 1249 basechar 0
LayerCount: 2
Fore
SplineSet
470 1417 m 0
 364 1417 284 1492 284 1603 c 0
 284 1712 364 1790 470 1790 c 0
 577 1790 657 1712 657 1603 c 0
 657 1492 577 1417 470 1417 c 0
968 1417 m 0
 862 1417 782 1492 782 1603 c 0
 782 1712 862 1790 968 1790 c 0
 1075 1790 1155 1712 1155 1603 c 0
 1155 1492 1075 1417 968 1417 c 0
720 -32 m 0
 338 -32 120 217 120 625 c 0
 120 1032 338 1280 720 1280 c 0
 1102 1280 1319 1032 1319 625 c 0
 1319 217 1102 -32 720 -32 c 0
720 189 m 0
 917 189 1023 321 1023 625 c 0
 1023 920 917 1059 720 1059 c 0
 522 1059 417 920 417 625 c 0
 417 321 522 189 720 189 c 0
EndSplineSet
EndChar

StartChar: ograve
Encoding: 242 242 164
Width: 1440
GlyphClass: 2
Flags: MW
HStem: -32 221<621 818.5 621 911> 1059 221<621 818.5>
VStem: 120 297<473 772.5 473 828.5> 1023 296<473 772.5>
AnchorPoint: "Anchor-3" 0 0 basechar 0
AnchorPoint: "Anchor-2" 0 0 basechar 0
AnchorPoint: "Anchor-1" 0 0 basechar 0
AnchorPoint: "Anchor-0" 720 1249 basechar 0
LayerCount: 2
Fore
SplineSet
607 1415 m 1
 343 1763 l 1
 688 1763 l 1
 842 1415 l 1
 607 1415 l 1
720 -32 m 0
 338 -32 120 217 120 625 c 0
 120 1032 338 1280 720 1280 c 0
 1102 1280 1319 1032 1319 625 c 0
 1319 217 1102 -32 720 -32 c 0
720 189 m 0
 917 189 1023 321 1023 625 c 0
 1023 920 917 1059 720 1059 c 0
 522 1059 417 920 417 625 c 0
 417 321 522 189 720 189 c 0
EndSplineSet
EndChar

StartChar: oslash
Encoding: 248 248 165
Width: 1440
GlyphClass: 2
Flags: MW
HStem: -32 221<697 818.5 697 911> 1059 221<621 743>
VStem: 120 297<575 772.5 575 828.5> 1023 296<473 673.5>
AnchorPoint: "Anchor-3" 0 0 basechar 0
AnchorPoint: "Anchor-2" 720 625 basechar 0
AnchorPoint: "Anchor-1" 0 0 basechar 0
AnchorPoint: "Anchor-0" 720 1249 basechar 0
LayerCount: 2
Fore
SplineSet
1144 1125 m 1
 1258 1012 1319 841 1319 625 c 0
 1319 217 1102 -32 720 -32 c 0
 630 -32 549 -18 477 9 c 1
 403 -116 l 1
 156 -116 l 1
 298 122 l 1
 182 235 120 407 120 625 c 0
 120 1032 338 1280 720 1280 c 0
 811 1280 893 1266 964 1239 c 1
 1037 1361 l 1
 1285 1361 l 1
 1144 1125 l 1
417 625 m 0
 417 525 428 443 451 379 c 1
 843 1036 l 1
 807 1051 766 1059 720 1059 c 0
 522 1059 417 920 417 625 c 0
720 189 m 0
 917 189 1023 321 1023 625 c 0
 1023 722 1012 802 989 866 c 1
 598 211 l 1
 634 196 674 189 720 189 c 0
EndSplineSet
EndChar

StartChar: otilde
Encoding: 245 245 166
Width: 1440
GlyphClass: 2
Flags: MW
HStem: -32 221<621 818.5 621 911> 1059 221<621 818.5> 1426 199<874.5 919 874.5 971.5> 1544 200<522 566.5> 1719 20G<1009 1009> 1724 20G<467 571>
VStem: 120 297<473 772.5 473 828.5> 1023 296<473 772.5>
AnchorPoint: "Anchor-3" 0 0 basechar 0
AnchorPoint: "Anchor-2" 0 0 basechar 0
AnchorPoint: "Anchor-1" 0 0 basechar 0
AnchorPoint: "Anchor-0" 720 1249 basechar 0
LayerCount: 2
Fore
SplineSet
898 1426 m 0xe7
 837 1426 777 1445 714 1479 c 2xe7
 668 1504 l 2
 621 1529 583 1544 550 1544 c 0xd3
 494 1544 457 1516 431 1430 c 1
 253 1484 l 1
 289 1662 394 1744 540 1744 c 0
 602 1744 663 1725 727 1691 c 2xe7
 773 1666 l 2
 820 1641 858 1625 891 1625 c 0
 947 1625 984 1654 1009 1739 c 1xeb
 1187 1686 l 1
 1151 1505 1045 1426 898 1426 c 0xe7
720 -32 m 0
 338 -32 120 217 120 625 c 0
 120 1032 338 1280 720 1280 c 0
 1102 1280 1319 1032 1319 625 c 0
 1319 217 1102 -32 720 -32 c 0
720 189 m 0
 917 189 1023 321 1023 625 c 0
 1023 920 917 1059 720 1059 c 0
 522 1059 417 920 417 625 c 0
 417 321 522 189 720 189 c 0
EndSplineSet
EndChar

StartChar: oe
Encoding: 339 339 167
Width: 1440
Flags: MW
HStem: -32 208<437 528 437 536> -32 217<995.5 1094.5 995.5 1131> 553 191<878 1139 878 1368 877 1139> 1073 208<437 528> 1077 204<979.5 1065.5>
VStem: 80 259<466 778 466 834.5> 625 252<553 553 553 777> 1139 240<744 744>
LayerCount: 2
Fore
SplineSet
1056 185 m 0x6f
 1133 185 1187 230 1211 360 c 1
 1373 315 l 1
 1327 80 1226 -32 1036 -32 c 0
 892 -32 800 34 744 148 c 1
 688 31 600 -32 472 -32 c 0xaf
 218 -32 80 204 80 624 c 0
 80 1045 218 1281 472 1281 c 0
 600 1281 688 1218 743 1102 c 1
 800 1217 890 1281 1025 1281 c 0
 1264 1281 1379 1061 1379 704 c 0
 1379 657 1375 602 1368 553 c 1
 877 553 l 1
 886 318 935 185 1056 185 c 0x6f
1024 1077 m 0
 935 1077 887 935 878 744 c 1
 1139 744 l 1
 1141 944 1107 1077 1024 1077 c 0
483 176 m 0xb7
 573 176 625 310 625 624 c 0
 625 930 573 1073 483 1073 c 0
 391 1073 339 932 339 624 c 0
 339 308 391 176 483 176 c 0xb7
EndSplineSet
EndChar

StartChar: p
Encoding: 112 112 168
Width: 1440
Flags: MW
HStem: -462 21G<183 463 183 183> -32 229<724.5 830.5 670 967> 1052 228<739 840.5> 1229 20G<183 434 434 434>
VStem: 183 280<-462 143 434 808> 1019 296<495.5 754.5>
LayerCount: 2
Fore
SplineSet
826 1280 m 0xec
 1150 1280 1315 1021 1315 637 c 0
 1315 245 1135 -32 799 -32 c 0
 650 -32 536 27 463 143 c 1
 463 -462 l 1
 183 -462 l 1
 183 1249 l 1
 434 1249 l 1xdc
 445 1063 l 1
 523 1217 652 1280 826 1280 c 0xec
738 197 m 0
 923 197 1019 362 1019 629 c 0
 1019 880 937 1052 744 1052 c 0
 610 1052 506 975 463 808 c 1
 463 434 l 1
 507 277 602 197 738 197 c 0
EndSplineSet
EndChar

StartChar: q
Encoding: 113 113 169
Width: 1440
Flags: MW
HStem: -462 21G<974 1254 974 974> -32 229<604.5 703> 1052 228<611.5 730.5 466.5 774> 1229 20G<1002 1254 1254 1254>
VStem: 117 302<487.5 753.5 487.5 813.5> 974 280<-462 158 158 158 426 812 812 812>
LayerCount: 2
Fore
SplineSet
1002 1249 m 1xd4
 1254 1249 l 1xdc
 1254 -462 l 1
 974 -462 l 1
 974 158 l 1
 902 29 780 -32 626 -32 c 0
 282 -32 117 258 117 629 c 0
 117 998 289 1280 644 1280 c 0xec
 817 1280 929 1213 993 1082 c 1
 1002 1249 l 1xd4
699 197 m 0
 831 197 931 270 974 426 c 1
 974 812 l 1
 933 975 840 1052 708 1052 c 0xec
 515 1052 419 887 419 620 c 0
 419 355 510 197 699 197 c 0
EndSplineSet
EndChar

StartChar: r
Encoding: 114 114 170
Width: 1440
GlyphClass: 2
Flags: MW
HStem: 0 21G<236 516 236 236> 1039 242<784.5 878> 1229 20G<236 482 482 482>
VStem: 236 280<0 732 0 1249> 987 288<793 876>
AnchorPoint: "Anchor-3" 0 0 basechar 0
AnchorPoint: "Anchor-2" 0 0 basechar 0
AnchorPoint: "Anchor-1" 376 0 basechar 0
AnchorPoint: "Anchor-0" 750 1249 basechar 0
LayerCount: 2
Fore
SplineSet
886 1281 m 0xd8
 1144 1281 1275 1128 1275 827 c 0
 1275 759 1267 689 1251 612 c 1
 968 584 l 1
 980 660 987 733 987 809 c 0
 987 943 952 1039 804 1039 c 0xd8
 678 1039 570 963 516 732 c 1
 516 0 l 1
 236 0 l 1
 236 1249 l 1
 482 1249 l 1xb0
 495 1013 l 1
 562 1184 683 1281 886 1281 c 0xd8
EndSplineSet
EndChar

StartChar: racute
Encoding: 341 341 171
Width: 1440
GlyphClass: 2
Flags: MW
HStem: 0 21G<236 516 236 236> 1039 242<784.5 878> 1229 20G<236 482 482 482>
VStem: 236 280<0 732 0 1249> 987 288<793 876>
AnchorPoint: "Anchor-3" 0 0 basechar 0
AnchorPoint: "Anchor-2" 0 0 basechar 0
AnchorPoint: "Anchor-1" 376 0 basechar 0
AnchorPoint: "Anchor-0" 750 1249 basechar 0
LayerCount: 2
Fore
SplineSet
1128 1763 m 1xb0
 863 1415 l 1
 629 1415 l 1
 782 1763 l 1
 1128 1763 l 1xb0
886 1281 m 0xd8
 1144 1281 1275 1128 1275 827 c 0
 1275 759 1267 689 1251 612 c 1
 968 584 l 1
 980 660 987 733 987 809 c 0
 987 943 952 1039 804 1039 c 0xd8
 678 1039 570 963 516 732 c 1
 516 0 l 1
 236 0 l 1
 236 1249 l 1
 482 1249 l 1xb0
 495 1013 l 1
 562 1184 683 1281 886 1281 c 0xd8
EndSplineSet
EndChar

StartChar: rcaron
Encoding: 345 345 172
Width: 1440
GlyphClass: 2
Flags: MW
HStem: 0 21G<236 516 236 236> 1039 242<784.5 878> 1229 20G<236 482 482 482>
VStem: 236 280<0 732 0 1249> 987 288<793 876>
AnchorPoint: "Anchor-3" 0 0 basechar 0
AnchorPoint: "Anchor-2" 0 0 basechar 0
AnchorPoint: "Anchor-1" 376 0 basechar 0
AnchorPoint: "Anchor-0" 750 1249 basechar 0
LayerCount: 2
Fore
SplineSet
919 1415 m 1xb0
 580 1415 l 1
 366 1763 l 1
 572 1763 l 1
 749 1562 l 1
 927 1763 l 1
 1133 1763 l 1
 919 1415 l 1xb0
886 1281 m 0xd8
 1144 1281 1275 1128 1275 827 c 0
 1275 759 1267 689 1251 612 c 1
 968 584 l 1
 980 660 987 733 987 809 c 0
 987 943 952 1039 804 1039 c 0xd8
 678 1039 570 963 516 732 c 1
 516 0 l 1
 236 0 l 1
 236 1249 l 1
 482 1249 l 1xb0
 495 1013 l 1
 562 1184 683 1281 886 1281 c 0xd8
EndSplineSet
EndChar

StartChar: uni0157
Encoding: 343 343 173
Width: 1440
GlyphClass: 2
Flags: MW
HStem: -336 241<326 349 349 360> 0 21G<236 516 236 236> 1039 242<784.5 878> 1229 20G<236 482 482 482>
VStem: 236 280<0 732 0 1249> 987 288<793 876>
AnchorPoint: "Anchor-3" 0 0 basechar 0
AnchorPoint: "Anchor-2" 0 0 basechar 0
AnchorPoint: "Anchor-1" 376 0 basechar 0
AnchorPoint: "Anchor-0" 750 1249 basechar 0
LayerCount: 2
Fore
SplineSet
886 1281 m 0x6c
 1144 1281 1275 1128 1275 827 c 0
 1275 759 1267 689 1251 612 c 1
 968 584 l 1
 980 660 987 733 987 809 c 0
 987 943 952 1039 804 1039 c 0x6c
 678 1039 570 963 516 732 c 1
 516 0 l 1
 236 0 l 1
 236 1249 l 1
 482 1249 l 1x58
 495 1013 l 1
 562 1184 683 1281 886 1281 c 0x6c
374 -95 m 0xd8
 476 -95 533 -154 533 -267 c 0
 533 -394 452 -492 303 -549 c 1
 223 -456 l 1
 300 -425 344 -388 360 -336 c 1
 349 -336 l 2
 272 -336 220 -292 220 -220 c 0
 220 -145 278 -95 374 -95 c 0xd8
EndSplineSet
EndChar

StartChar: s
Encoding: 115 115 174
Width: 1440
GlyphClass: 2
Flags: MW
HStem: -32 213<640 821 640 898> 1066 214<646 813.5>
VStem: 215 261<879.5 962 879.5 1016> 1002 259<287.5 376>
AnchorPoint: "Anchor-3" 0 0 basechar 0
AnchorPoint: "Anchor-2" 0 0 basechar 0
AnchorPoint: "Anchor-1" 736 0 basechar 0
AnchorPoint: "Anchor-0" 736 1249 basechar 0
LayerCount: 2
Fore
SplineSet
731 -32 m 0
 464 -32 272 52 180 261 c 1
 371 375 l 1
 434 246 545 181 735 181 c 0
 907 181 1002 243 1002 332 c 0
 1002 420 935 457 765 493 c 2
 644 519 l 2
 369 578 215 678 215 909 c 0
 215 1123 403 1280 738 1280 c 0
 1007 1280 1174 1196 1255 997 c 1
 1061 883 l 1
 1000 1011 899 1066 728 1066 c 0
 564 1066 476 1006 476 918 c 0
 476 841 527 792 701 756 c 2
 821 730 l 2
 1108 670 1261 585 1261 346 c 0
 1261 124 1065 -32 731 -32 c 0
EndSplineSet
EndChar

StartChar: sacute
Encoding: 347 347 175
Width: 1440
GlyphClass: 2
Flags: MW
HStem: -32 213<640 821 640 898> 1066 214<646 813.5>
VStem: 215 261<879.5 962 879.5 1016> 1002 259<287.5 376>
AnchorPoint: "Anchor-3" 0 0 basechar 0
AnchorPoint: "Anchor-2" 0 0 basechar 0
AnchorPoint: "Anchor-1" 736 0 basechar 0
AnchorPoint: "Anchor-0" 736 1249 basechar 0
LayerCount: 2
Fore
SplineSet
614 1415 m 1
 767 1763 l 1
 1113 1763 l 1
 848 1415 l 1
 614 1415 l 1
731 -32 m 0
 464 -32 272 52 180 261 c 1
 371 375 l 1
 434 246 545 181 735 181 c 0
 907 181 1002 243 1002 332 c 0
 1002 420 935 457 765 493 c 2
 644 519 l 2
 369 578 215 678 215 909 c 0
 215 1123 403 1280 738 1280 c 0
 1007 1280 1174 1196 1255 997 c 1
 1061 883 l 1
 1000 1011 899 1066 728 1066 c 0
 564 1066 476 1006 476 918 c 0
 476 841 527 792 701 756 c 2
 821 730 l 2
 1108 670 1261 585 1261 346 c 0
 1261 124 1065 -32 731 -32 c 0
EndSplineSet
EndChar

StartChar: scaron
Encoding: 353 353 176
Width: 1440
GlyphClass: 2
Flags: MW
HStem: -32 213<640 821 640 898> 1066 214<646 813.5>
VStem: 215 261<879.5 962 879.5 1016> 1002 259<287.5 376>
AnchorPoint: "Anchor-3" 0 0 basechar 0
AnchorPoint: "Anchor-2" 0 0 basechar 0
AnchorPoint: "Anchor-1" 736 0 basechar 0
AnchorPoint: "Anchor-0" 736 1249 basechar 0
LayerCount: 2
Fore
SplineSet
905 1415 m 1
 566 1415 l 1
 352 1763 l 1
 558 1763 l 1
 735 1562 l 1
 913 1763 l 1
 1119 1763 l 1
 905 1415 l 1
821 730 m 2
 1108 670 1261 585 1261 346 c 0
 1261 124 1065 -32 731 -32 c 0
 464 -32 272 52 180 261 c 1
 371 375 l 1
 434 246 545 181 735 181 c 0
 907 181 1002 243 1002 332 c 0
 1002 420 935 457 765 493 c 2
 644 519 l 2
 369 578 215 678 215 909 c 0
 215 1123 403 1280 738 1280 c 0
 1007 1280 1174 1196 1255 997 c 1
 1061 883 l 1
 1000 1011 899 1066 728 1066 c 0
 564 1066 476 1006 476 918 c 0
 476 841 527 792 701 756 c 2
 821 730 l 2
EndSplineSet
EndChar

StartChar: uni0219
Encoding: 537 537 177
Width: 1440
GlyphClass: 2
Flags: MW
HStem: -336 241<686 709 709 720> -32 213<640 821 640 898> 1066 214<646 813.5>
VStem: 215 261<879.5 962 879.5 1016> 1002 259<287.5 376>
AnchorPoint: "Anchor-3" 0 0 basechar 0
AnchorPoint: "Anchor-2" 0 0 basechar 0
AnchorPoint: "Anchor-1" 736 0 basechar 0
AnchorPoint: "Anchor-0" 736 1249 basechar 0
LayerCount: 2
Fore
SplineSet
821 730 m 2
 1108 670 1261 585 1261 346 c 0
 1261 124 1065 -32 731 -32 c 0
 464 -32 272 52 180 261 c 1
 371 375 l 1
 434 246 545 181 735 181 c 0
 907 181 1002 243 1002 332 c 0
 1002 420 935 457 765 493 c 2
 644 519 l 2
 369 578 215 678 215 909 c 0
 215 1123 403 1280 738 1280 c 0
 1007 1280 1174 1196 1255 997 c 1
 1061 883 l 1
 1000 1011 899 1066 728 1066 c 0
 564 1066 476 1006 476 918 c 0
 476 841 527 792 701 756 c 2
 821 730 l 2
734 -95 m 0
 836 -95 893 -154 893 -267 c 0
 893 -394 812 -492 663 -549 c 1
 583 -456 l 1
 660 -425 704 -388 720 -336 c 1
 709 -336 l 2
 632 -336 580 -292 580 -220 c 0
 580 -145 638 -95 734 -95 c 0
EndSplineSet
EndChar

StartChar: germandbls
Encoding: 223 223 178
Width: 1440
Flags: MW
HStem: 0 241<184 731 640 731 731 752 640 731> 819 209<640 678 678 697 640 640> 1538 221<619 705>
VStem: 184 278<0 1232 0 1404> 944 276<1221 1377> 1007 278<423 613.5 332 627.5>
LayerCount: 2
Fore
SplineSet
923 934 m 1xf4
 1177 901 1285 742 1285 485 c 0
 1285 179 1142 0 752 0 c 2
 640 0 l 1
 640 241 l 1
 731 241 l 2
 916 241 1007 316 1007 530 c 0xf4
 1007 725 914 819 697 819 c 2
 640 819 l 1
 639 1028 l 1
 678 1028 l 2
 861 1028 944 1132 944 1296 c 0
 944 1458 864 1537 705 1538 c 0
 533 1538 462 1440 462 1232 c 2
 462 0 l 1
 184 0 l 1
 184 1232 l 2
 184 1576 377 1759 714 1759 c 0
 1046 1759 1220 1598 1220 1329 c 0xf8
 1220 1113 1130 979 923 934 c 1xf4
EndSplineSet
EndChar

StartChar: t
Encoding: 116 116 179
Width: 1440
GlyphClass: 2
Flags: MW
HStem: -32 217<730 860 730 945> 1022 227<96 339 96 339 614 1214> 1636 20G<614 614>
VStem: 339 275<459 462 462 1022 1249 1613 1613 1613> 986 255<360 456.5 289 475>
AnchorPoint: "Anchor-3" 780 1399 basechar 0
AnchorPoint: "Anchor-2" 0 0 basechar 0
AnchorPoint: "Anchor-1" 757 0 basechar 0
AnchorPoint: "Anchor-0" 0 0 basechar 0
LayerCount: 2
Fore
SplineSet
1221 611 m 1
 1235 545 1241 485 1241 428 c 0
 1241 150 1099 -32 791 -32 c 0
 463 -32 339 163 339 459 c 2
 339 1022 l 1
 96 1022 l 1
 96 1249 l 1
 339 1249 l 1
 339 1613 l 1
 614 1656 l 1
 614 1249 l 1
 1214 1249 l 1
 1214 1022 l 1
 614 1022 l 1
 614 462 l 2
 614 272 665 185 795 185 c 0
 925 185 986 273 986 447 c 0
 986 503 979 568 971 633 c 1
 1221 611 l 1
EndSplineSet
EndChar

StartChar: tcaron
Encoding: 357 357 180
Width: 1440
GlyphClass: 2
Flags: MW
HStem: -32 217<730 860 730 945> 1022 227<96 339 96 339 614 1214> 1636 20G<614 614>
VStem: 339 275<459 462 462 1022 1249 1613 1613 1613> 986 255<360 456.5 289 475>
AnchorPoint: "Anchor-3" 780 1399 basechar 0
AnchorPoint: "Anchor-2" 0 0 basechar 0
AnchorPoint: "Anchor-1" 757 0 basechar 0
AnchorPoint: "Anchor-0" 0 0 basechar 0
LayerCount: 2
Fore
SplineSet
1024 1877 m 1
 925 1393 l 1
 756 1393 l 1
 786 1877 l 1
 1024 1877 l 1
1221 611 m 1
 1235 545 1241 485 1241 428 c 0
 1241 150 1099 -32 791 -32 c 0
 463 -32 339 163 339 459 c 2
 339 1022 l 1
 96 1022 l 1
 96 1249 l 1
 339 1249 l 1
 339 1613 l 1
 614 1656 l 1
 614 1249 l 1
 1214 1249 l 1
 1214 1022 l 1
 614 1022 l 1
 614 462 l 2
 614 272 665 185 795 185 c 0
 925 185 986 273 986 447 c 0
 986 503 979 568 971 633 c 1
 1221 611 l 1
EndSplineSet
EndChar

StartChar: uni021B
Encoding: 539 539 181
Width: 1440
GlyphClass: 2
Flags: MW
HStem: -336 241<707 730 730 741> -32 217<730 860 730 945> 1022 227<96 339 96 339 614 1214> 1636 20G<614 614>
VStem: 339 275<459 462 462 1022 1249 1613 1613 1613> 986 255<360 456.5 289 475>
AnchorPoint: "Anchor-3" 780 1399 basechar 0
AnchorPoint: "Anchor-2" 0 0 basechar 0
AnchorPoint: "Anchor-1" 757 0 basechar 0
AnchorPoint: "Anchor-0" 0 0 basechar 0
LayerCount: 2
Fore
SplineSet
1221 611 m 1
 1235 545 1241 485 1241 428 c 0
 1241 150 1099 -32 791 -32 c 0
 463 -32 339 163 339 459 c 2
 339 1022 l 1
 96 1022 l 1
 96 1249 l 1
 339 1249 l 1
 339 1613 l 1
 614 1656 l 1
 614 1249 l 1
 1214 1249 l 1
 1214 1022 l 1
 614 1022 l 1
 614 462 l 2
 614 272 665 185 795 185 c 0
 925 185 986 273 986 447 c 0
 986 503 979 568 971 633 c 1
 1221 611 l 1
755 -95 m 0
 857 -95 914 -154 914 -267 c 0
 914 -394 833 -492 684 -549 c 1
 604 -456 l 1
 681 -425 725 -388 741 -336 c 1
 730 -336 l 2
 653 -336 601 -292 601 -220 c 0
 601 -145 659 -95 755 -95 c 0
EndSplineSet
EndChar

StartChar: u
Encoding: 117 117 182
Width: 1440
GlyphClass: 2
Flags: MW
HStem: -32 242<583 687> -1 21G<1011 1263 1011 1011> 1228 20G<178 458 458 458 983 1263 1263 1263>
VStem: 178 280<434 439 439 1248> 983 280<465 1248 -1 1248>
AnchorPoint: "Anchor-3" 0 0 basechar 0
AnchorPoint: "Anchor-2" 0 0 basechar 0
AnchorPoint: "Anchor-1" 0 0 basechar 0
AnchorPoint: "Anchor-0" 720 1249 basechar 0
LayerCount: 2
Fore
SplineSet
983 1248 m 1x78
 1263 1248 l 1
 1263 -1 l 1
 1011 -1 l 1x78
 998 222 l 1
 918 45 782 -32 592 -32 c 0
 322 -32 178 116 178 434 c 2
 178 1248 l 1
 458 1248 l 1
 458 439 l 2
 458 294 507 210 659 210 c 0xb8
 800 210 919 280 983 465 c 1
 983 1248 l 1x78
EndSplineSet
EndChar

StartChar: uacute
Encoding: 250 250 183
Width: 1440
GlyphClass: 2
Flags: MW
HStem: -32 242<583 687> -1 21G<1011 1263 1011 1011> 1228 20G<178 458 458 458 983 1263 1263 1263>
VStem: 178 280<434 439 439 1248> 983 280<465 1248 -1 1248>
AnchorPoint: "Anchor-3" 0 0 basechar 0
AnchorPoint: "Anchor-2" 0 0 basechar 0
AnchorPoint: "Anchor-1" 0 0 basechar 0
AnchorPoint: "Anchor-0" 720 1249 basechar 0
LayerCount: 2
Fore
SplineSet
1097 1763 m 1x78
 832 1415 l 1
 598 1415 l 1
 751 1763 l 1
 1097 1763 l 1x78
983 1248 m 1
 1263 1248 l 1
 1263 -1 l 1
 1011 -1 l 1x78
 998 222 l 1
 918 45 782 -32 592 -32 c 0
 322 -32 178 116 178 434 c 2
 178 1248 l 1
 458 1248 l 1
 458 439 l 2
 458 294 507 210 659 210 c 0xb8
 800 210 919 280 983 465 c 1
 983 1248 l 1
EndSplineSet
EndChar

StartChar: ubreve
Encoding: 365 365 184
Width: 1440
GlyphClass: 2
Flags: MW
HStem: -32 242<583 687> -1 21G<1011 1263 1011 1011> 1228 20G<178 458 458 458 983 1263 1263 1263> 1415 179<663 780.5 663 841.5> 1732 20G<317 317 1126 1126>
VStem: 178 280<434 439 439 1248> 983 280<465 1248 -1 1248>
AnchorPoint: "Anchor-3" 0 0 basechar 0
AnchorPoint: "Anchor-2" 0 0 basechar 0
AnchorPoint: "Anchor-1" 0 0 basechar 0
AnchorPoint: "Anchor-0" 720 1249 basechar 0
LayerCount: 2
Fore
SplineSet
722 1415 m 0x7e
 483 1415 335 1526 317 1752 c 1
 507 1769 l 1
 528 1656 604 1594 722 1594 c 0
 839 1594 915 1656 936 1769 c 1
 1126 1752 l 1
 1109 1526 961 1415 722 1415 c 0x7e
983 1248 m 1
 1263 1248 l 1
 1263 -1 l 1
 1011 -1 l 1x7e
 998 222 l 1
 918 45 782 -32 592 -32 c 0
 322 -32 178 116 178 434 c 2
 178 1248 l 1
 458 1248 l 1
 458 439 l 2
 458 294 507 210 659 210 c 0xbe
 800 210 919 280 983 465 c 1
 983 1248 l 1
EndSplineSet
EndChar

StartChar: ucircumflex
Encoding: 251 251 185
Width: 1440
GlyphClass: 2
Flags: MW
HStem: -32 242<583 687> -1 21G<1011 1263 1011 1011> 1228 20G<178 458 458 458 983 1263 1263 1263> 1617 146<718 718>
VStem: 178 280<434 439 439 1248> 983 280<465 1248 -1 1248>
AnchorPoint: "Anchor-3" 0 0 basechar 0
AnchorPoint: "Anchor-2" 0 0 basechar 0
AnchorPoint: "Anchor-1" 0 0 basechar 0
AnchorPoint: "Anchor-0" 720 1249 basechar 0
LayerCount: 2
Fore
SplineSet
718 1617 m 1x7c
 540 1415 l 1
 337 1415 l 1
 545 1763 l 1
 890 1763 l 1
 1098 1415 l 1
 895 1415 l 1
 718 1617 l 1x7c
983 1248 m 1
 1263 1248 l 1
 1263 -1 l 1
 1011 -1 l 1x7c
 998 222 l 1
 918 45 782 -32 592 -32 c 0
 322 -32 178 116 178 434 c 2
 178 1248 l 1
 458 1248 l 1
 458 439 l 2
 458 294 507 210 659 210 c 0xbc
 800 210 919 280 983 465 c 1
 983 1248 l 1
EndSplineSet
EndChar

StartChar: udieresis
Encoding: 252 252 186
Width: 1440
GlyphClass: 2
Flags: MW
HStem: -32 242<583 687> -1 21G<1011 1263 1011 1011> 1228 20G<178 458 458 458 983 1263 1263 1263>
VStem: 178 280<434 439 439 1248> 983 280<465 1248 -1 1248>
AnchorPoint: "Anchor-3" 0 0 basechar 0
AnchorPoint: "Anchor-2" 0 0 basechar 0
AnchorPoint: "Anchor-1" 0 0 basechar 0
AnchorPoint: "Anchor-0" 720 1249 basechar 0
LayerCount: 2
Fore
SplineSet
470 1417 m 0x78
 364 1417 284 1492 284 1603 c 0
 284 1712 364 1790 470 1790 c 0
 577 1790 657 1712 657 1603 c 0
 657 1492 577 1417 470 1417 c 0x78
968 1417 m 0
 862 1417 782 1492 782 1603 c 0
 782 1712 862 1790 968 1790 c 0
 1075 1790 1155 1712 1155 1603 c 0
 1155 1492 1075 1417 968 1417 c 0
983 1248 m 1
 1263 1248 l 1
 1263 -1 l 1
 1011 -1 l 1x78
 998 222 l 1
 918 45 782 -32 592 -32 c 0
 322 -32 178 116 178 434 c 2
 178 1248 l 1
 458 1248 l 1
 458 439 l 2
 458 294 507 210 659 210 c 0xb8
 800 210 919 280 983 465 c 1
 983 1248 l 1
EndSplineSet
EndChar

StartChar: ugrave
Encoding: 249 249 187
Width: 1440
GlyphClass: 2
Flags: MW
HStem: -32 242<583 687> -1 21G<1011 1263 1011 1011> 1228 20G<178 458 458 458 983 1263 1263 1263>
VStem: 178 280<434 439 439 1248> 983 280<465 1248 -1 1248>
AnchorPoint: "Anchor-3" 0 0 basechar 0
AnchorPoint: "Anchor-2" 0 0 basechar 0
AnchorPoint: "Anchor-1" 0 0 basechar 0
AnchorPoint: "Anchor-0" 720 1249 basechar 0
LayerCount: 2
Fore
SplineSet
842 1415 m 1x78
 607 1415 l 1
 343 1763 l 1
 688 1763 l 1
 842 1415 l 1x78
983 1248 m 1
 1263 1248 l 1
 1263 -1 l 1
 1011 -1 l 1x78
 998 222 l 1
 918 45 782 -32 592 -32 c 0
 322 -32 178 116 178 434 c 2
 178 1248 l 1
 458 1248 l 1
 458 439 l 2
 458 294 507 210 659 210 c 0xb8
 800 210 919 280 983 465 c 1
 983 1248 l 1
EndSplineSet
EndChar

StartChar: uring
Encoding: 367 367 188
Width: 1440
GlyphClass: 2
Flags: MW
HStem: -32 242<583 687> -1 21G<1011 1263 1011 1011> 1228 20G<178 458 458 458 983 1263 1263 1263> 1369 118<691.5 748.5 691.5 794.5> 1692 119<691.5 748.5>
VStem: 178 280<434 439 439 1248> 465 159<1556 1623 1556 1663.5> 816 161<1556 1623> 983 280<465 1248 -1 1248>
AnchorPoint: "Anchor-3" 0 0 basechar 0
AnchorPoint: "Anchor-2" 0 0 basechar 0
AnchorPoint: "Anchor-1" 0 0 basechar 0
AnchorPoint: "Anchor-0" 720 1249 basechar 0
LayerCount: 2
Fore
SplineSet
720 1369 m 0x7b
 572 1369 465 1442 465 1590 c 0
 465 1737 572 1811 720 1811 c 0
 869 1811 977 1737 977 1590 c 0
 977 1442 869 1369 720 1369 c 0x7b
720 1692 m 0
 663 1692 624 1656 624 1590 c 0
 624 1522 663 1487 720 1487 c 0
 777 1487 816 1522 816 1590 c 0
 816 1656 777 1692 720 1692 c 0
983 1248 m 1xbc80
 1263 1248 l 1
 1263 -1 l 1
 1011 -1 l 1x7c80
 998 222 l 1
 918 45 782 -32 592 -32 c 0
 322 -32 178 116 178 434 c 2
 178 1248 l 1
 458 1248 l 1
 458 439 l 2
 458 294 507 210 659 210 c 0
 800 210 919 280 983 465 c 1
 983 1248 l 1xbc80
EndSplineSet
EndChar

StartChar: utilde
Encoding: 361 361 189
Width: 1440
GlyphClass: 2
Flags: MW
HStem: -32 242<583 687> -1 21G<1011 1263 1011 1011> 1228 20G<178 458 458 458 983 1263 1263 1263> 1426 199<874.5 919 874.5 971.5> 1544 200<522 566.5> 1719 20G<1009 1009> 1724 20G<467 571>
VStem: 178 280<434 439 439 1248> 983 280<465 1248 -1 1248>
AnchorPoint: "Anchor-3" 0 0 basechar 0
AnchorPoint: "Anchor-2" 0 0 basechar 0
AnchorPoint: "Anchor-1" 0 0 basechar 0
AnchorPoint: "Anchor-0" 720 1249 basechar 0
LayerCount: 2
Fore
SplineSet
550 1544 m 0x6980
 494 1544 457 1516 431 1430 c 1
 253 1484 l 1
 289 1662 394 1744 540 1744 c 0
 602 1744 663 1725 727 1691 c 2x7380
 773 1666 l 2
 820 1641 858 1625 891 1625 c 0
 947 1625 984 1654 1009 1739 c 1
 1187 1686 l 1
 1151 1505 1045 1426 898 1426 c 0
 837 1426 777 1445 714 1479 c 2x7580
 668 1504 l 2
 621 1529 583 1544 550 1544 c 0x6980
983 1248 m 1xb380
 1263 1248 l 1
 1263 -1 l 1
 1011 -1 l 1x7380
 998 222 l 1
 918 45 782 -32 592 -32 c 0
 322 -32 178 116 178 434 c 2
 178 1248 l 1
 458 1248 l 1
 458 439 l 2
 458 294 507 210 659 210 c 0
 800 210 919 280 983 465 c 1
 983 1248 l 1xb380
EndSplineSet
EndChar

StartChar: v
Encoding: 118 118 190
Width: 1440
Flags: MW
HStem: 0 21G<518 518 518 922> 0 198<718 722 718 922> 1229 20G<100 415 415 415 1025 1340 1340 1340>
VStem: 100 1240<1249 1249>
LayerCount: 2
Fore
SplineSet
518 0 m 1xb0
 100 1249 l 1
 415 1249 l 1
 607 607 l 2
 645 480 673 363 718 198 c 1
 722 198 l 1x70
 767 363 795 480 833 607 c 2
 1025 1249 l 1
 1340 1249 l 1
 922 0 l 1
 518 0 l 1xb0
EndSplineSet
EndChar

StartChar: w
Encoding: 119 119 191
Width: 1440
GlyphClass: 2
Flags: MW
HStem: 0 21G<255 255 255 573 867 867 867 1184> 1229 20G<20 265 265 265 591 849 849 849 1174 1419 1419 1419>
VStem: 20 1399<1249 1249>
AnchorPoint: "Anchor-3" 0 0 basechar 0
AnchorPoint: "Anchor-2" 0 0 basechar 0
AnchorPoint: "Anchor-1" 0 0 basechar 0
AnchorPoint: "Anchor-0" 720 1249 basechar 0
LayerCount: 2
Fore
SplineSet
255 0 m 1
 20 1249 l 1
 265 1249 l 1
 378 555 l 2
 399 423 409 357 424 237 c 1
 426 237 l 1
 444 369 456 459 473 556 c 2
 591 1249 l 1
 849 1249 l 1
 966 556 l 2
 981 467 995 372 1013 237 c 1
 1015 237 l 1
 1028 334 1037 403 1061 555 c 2
 1174 1249 l 1
 1419 1249 l 1
 1184 0 l 1
 867 0 l 1
 769 536 l 2
 750 642 738 735 722 846 c 1
 717 846 l 1
 701 729 689 638 670 536 c 2
 573 0 l 1
 255 0 l 1
EndSplineSet
EndChar

StartChar: wacute
Encoding: 7811 7811 192
Width: 1440
GlyphClass: 2
Flags: MW
HStem: 0 21G<255 255 255 573 867 867 867 1184> 1229 20G<20 265 265 265 591 849 849 849 1174 1419 1419 1419>
VStem: 20 1399<1249 1249>
AnchorPoint: "Anchor-3" 0 0 basechar 0
AnchorPoint: "Anchor-2" 0 0 basechar 0
AnchorPoint: "Anchor-1" 0 0 basechar 0
AnchorPoint: "Anchor-0" 720 1249 basechar 0
LayerCount: 2
Fore
SplineSet
598 1415 m 1
 751 1763 l 1
 1097 1763 l 1
 832 1415 l 1
 598 1415 l 1
255 0 m 1
 20 1249 l 1
 265 1249 l 1
 378 555 l 2
 399 423 409 357 424 237 c 1
 426 237 l 1
 444 369 456 459 473 556 c 2
 591 1249 l 1
 849 1249 l 1
 966 556 l 2
 981 467 995 372 1013 237 c 1
 1015 237 l 1
 1028 334 1037 403 1061 555 c 2
 1174 1249 l 1
 1419 1249 l 1
 1184 0 l 1
 867 0 l 1
 769 536 l 2
 750 642 738 735 722 846 c 1
 717 846 l 1
 701 729 689 638 670 536 c 2
 573 0 l 1
 255 0 l 1
EndSplineSet
EndChar

StartChar: wcircumflex
Encoding: 373 373 193
Width: 1440
GlyphClass: 2
Flags: MW
HStem: 0 21G<255 573 255 255 867 1184 867 867> 1229 20G<20 265 265 265 591 849 849 849 1174 1419 1419 1419> 1617 146<718 718>
VStem: 20 1399<1249 1249>
AnchorPoint: "Anchor-3" 0 0 basechar 0
AnchorPoint: "Anchor-2" 0 0 basechar 0
AnchorPoint: "Anchor-1" 0 0 basechar 0
AnchorPoint: "Anchor-0" 720 1249 basechar 0
LayerCount: 2
Fore
SplineSet
718 1617 m 1
 540 1415 l 1
 337 1415 l 1
 545 1763 l 1
 890 1763 l 1
 1098 1415 l 1
 895 1415 l 1
 718 1617 l 1
1174 1249 m 1
 1419 1249 l 1
 1184 0 l 1
 867 0 l 1
 769 536 l 2
 750 642 738 735 722 846 c 1
 717 846 l 1
 701 729 689 638 670 536 c 2
 573 0 l 1
 255 0 l 1
 20 1249 l 1
 265 1249 l 1
 378 555 l 2
 399 423 409 357 424 237 c 1
 426 237 l 1
 444 369 456 459 473 556 c 2
 591 1249 l 1
 849 1249 l 1
 966 556 l 2
 981 467 995 372 1013 237 c 1
 1015 237 l 1
 1028 334 1037 403 1061 555 c 2
 1174 1249 l 1
EndSplineSet
EndChar

StartChar: wdieresis
Encoding: 7813 7813 194
Width: 1440
GlyphClass: 2
Flags: MW
HStem: 0 21G<255 255 255 573 867 867 867 1184> 1229 20G<20 265 265 265 591 849 849 849 1174 1419 1419 1419>
VStem: 20 1399<1249 1249>
AnchorPoint: "Anchor-3" 0 0 basechar 0
AnchorPoint: "Anchor-2" 0 0 basechar 0
AnchorPoint: "Anchor-1" 0 0 basechar 0
AnchorPoint: "Anchor-0" 720 1249 basechar 0
LayerCount: 2
Fore
SplineSet
470 1417 m 0
 364 1417 284 1492 284 1603 c 0
 284 1712 364 1790 470 1790 c 0
 577 1790 657 1712 657 1603 c 0
 657 1492 577 1417 470 1417 c 0
968 1417 m 0
 862 1417 782 1492 782 1603 c 0
 782 1712 862 1790 968 1790 c 0
 1075 1790 1155 1712 1155 1603 c 0
 1155 1492 1075 1417 968 1417 c 0
255 0 m 1
 20 1249 l 1
 265 1249 l 1
 378 555 l 2
 399 423 409 357 424 237 c 1
 426 237 l 1
 444 369 456 459 473 556 c 2
 591 1249 l 1
 849 1249 l 1
 966 556 l 2
 981 467 995 372 1013 237 c 1
 1015 237 l 1
 1028 334 1037 403 1061 555 c 2
 1174 1249 l 1
 1419 1249 l 1
 1184 0 l 1
 867 0 l 1
 769 536 l 2
 750 642 738 735 722 846 c 1
 717 846 l 1
 701 729 689 638 670 536 c 2
 573 0 l 1
 255 0 l 1
EndSplineSet
EndChar

StartChar: wgrave
Encoding: 7809 7809 195
Width: 1440
GlyphClass: 2
Flags: MW
HStem: 0 21G<255 255 255 573 867 867 867 1184> 1229 20G<20 265 265 265 591 849 849 849 1174 1419 1419 1419>
VStem: 20 1399<1249 1249>
AnchorPoint: "Anchor-3" 0 0 basechar 0
AnchorPoint: "Anchor-2" 0 0 basechar 0
AnchorPoint: "Anchor-1" 0 0 basechar 0
AnchorPoint: "Anchor-0" 720 1249 basechar 0
LayerCount: 2
Fore
SplineSet
607 1415 m 1
 343 1763 l 1
 688 1763 l 1
 842 1415 l 1
 607 1415 l 1
255 0 m 1
 20 1249 l 1
 265 1249 l 1
 378 555 l 2
 399 423 409 357 424 237 c 1
 426 237 l 1
 444 369 456 459 473 556 c 2
 591 1249 l 1
 849 1249 l 1
 966 556 l 2
 981 467 995 372 1013 237 c 1
 1015 237 l 1
 1028 334 1037 403 1061 555 c 2
 1174 1249 l 1
 1419 1249 l 1
 1184 0 l 1
 867 0 l 1
 769 536 l 2
 750 642 738 735 722 846 c 1
 717 846 l 1
 701 729 689 638 670 536 c 2
 573 0 l 1
 255 0 l 1
EndSplineSet
EndChar

StartChar: x
Encoding: 120 120 196
Width: 1440
Flags: MW
HStem: 0 21G<137 462 137 137 979 1302 979 979> 1229 20G<144 478 478 478 963 1295 1295 1295>
VStem: 137 1165<0 0>
LayerCount: 2
Fore
SplineSet
1302 0 m 1
 979 0 l 1
 721 465 l 1
 462 0 l 1
 137 0 l 1
 525 632 l 1
 144 1249 l 1
 478 1249 l 1
 721 802 l 1
 963 1249 l 1
 1295 1249 l 1
 915 632 l 1
 1302 0 l 1
EndSplineSet
EndChar

StartChar: y
Encoding: 121 121 197
Width: 1440
GlyphClass: 2
Flags: MW
HStem: -466.09 236.74 0 21G<528 622 528 528> 1229 20G<101 417 417 417 1025 1339 1339 1339>
VStem: 101 1238<1249 1249>
AnchorPoint: "Anchor-3" 0 0 basechar 0
AnchorPoint: "Anchor-2" 0 0 basechar 0
AnchorPoint: "Anchor-1" 0 0 basechar 0
AnchorPoint: "Anchor-0" 719 1249 basechar 0
LayerCount: 2
Fore
SplineSet
1025 1249 m 1
 1339 1249 l 1
 882 -80 l 2
 788 -352 622 -537 169 -440 c 1
 175 -207 l 1
 458 -267 545 -201 594 -72 c 2
 622 0 l 1
 528 0 l 1
 101 1249 l 1
 417 1249 l 1
 720 205 l 1
 1025 1249 l 1
EndSplineSet
EndChar

StartChar: yacute
Encoding: 253 253 198
Width: 1440
GlyphClass: 2
Flags: MW
HStem: -466.09 236.74 0 21G<528 622 528 528> 1229 20G<101 417 417 417 1025 1339 1339 1339>
VStem: 101 1238<1249 1249>
AnchorPoint: "Anchor-3" 0 0 basechar 0
AnchorPoint: "Anchor-2" 0 0 basechar 0
AnchorPoint: "Anchor-1" 0 0 basechar 0
AnchorPoint: "Anchor-0" 719 1249 basechar 0
LayerCount: 2
Fore
SplineSet
1096 1763 m 1
 831 1415 l 1
 597 1415 l 1
 750 1763 l 1
 1096 1763 l 1
1025 1249 m 1
 1339 1249 l 1
 882 -80 l 2
 788 -352 622 -537 169 -440 c 1
 175 -207 l 1
 458 -267 545 -201 594 -72 c 2
 622 0 l 1
 528 0 l 1
 101 1249 l 1
 417 1249 l 1
 720 205 l 1
 1025 1249 l 1
EndSplineSet
EndChar

StartChar: ycircumflex
Encoding: 375 375 199
Width: 1440
GlyphClass: 2
Flags: MW
HStem: -466.09 236.74 0 21G<528 622 528 528> 1229 20G<101 417 417 417 1025 1339 1339 1339> 1617 146<717 717>
VStem: 101 1238<1249 1249>
AnchorPoint: "Anchor-3" 0 0 basechar 0
AnchorPoint: "Anchor-2" 0 0 basechar 0
AnchorPoint: "Anchor-1" 0 0 basechar 0
AnchorPoint: "Anchor-0" 719 1249 basechar 0
LayerCount: 2
Fore
SplineSet
717 1617 m 1
 539 1415 l 1
 336 1415 l 1
 544 1763 l 1
 889 1763 l 1
 1097 1415 l 1
 894 1415 l 1
 717 1617 l 1
1025 1249 m 1
 1339 1249 l 1
 882 -80 l 2
 788 -352 622 -537 169 -440 c 1
 175 -207 l 1
 458 -267 545 -201 594 -72 c 2
 622 0 l 1
 528 0 l 1
 101 1249 l 1
 417 1249 l 1
 720 205 l 1
 1025 1249 l 1
EndSplineSet
EndChar

StartChar: ydieresis
Encoding: 255 255 200
Width: 1440
GlyphClass: 2
Flags: MW
HStem: -466.09 236.74 0 21G<528 622 528 528> 1229 20G<101 417 417 417 1025 1339 1339 1339>
VStem: 101 1238<1249 1249>
AnchorPoint: "Anchor-3" 0 0 basechar 0
AnchorPoint: "Anchor-2" 0 0 basechar 0
AnchorPoint: "Anchor-1" 0 0 basechar 0
AnchorPoint: "Anchor-0" 719 1249 basechar 0
LayerCount: 2
Fore
SplineSet
469 1417 m 0
 363 1417 283 1492 283 1603 c 0
 283 1712 363 1790 469 1790 c 0
 576 1790 656 1712 656 1603 c 0
 656 1492 576 1417 469 1417 c 0
967 1417 m 0
 861 1417 781 1492 781 1603 c 0
 781 1712 861 1790 967 1790 c 0
 1074 1790 1154 1712 1154 1603 c 0
 1154 1492 1074 1417 967 1417 c 0
1025 1249 m 1
 1339 1249 l 1
 882 -80 l 2
 788 -352 622 -537 169 -440 c 1
 175 -207 l 1
 458 -267 545 -201 594 -72 c 2
 622 0 l 1
 528 0 l 1
 101 1249 l 1
 417 1249 l 1
 720 205 l 1
 1025 1249 l 1
EndSplineSet
EndChar

StartChar: ygrave
Encoding: 7923 7923 201
Width: 1440
GlyphClass: 2
Flags: MW
HStem: -466.09 236.74 0 21G<528 622 528 528> 1229 20G<101 417 417 417 1025 1339 1339 1339>
VStem: 101 1238<1249 1249>
AnchorPoint: "Anchor-3" 0 0 basechar 0
AnchorPoint: "Anchor-2" 0 0 basechar 0
AnchorPoint: "Anchor-1" 0 0 basechar 0
AnchorPoint: "Anchor-0" 719 1249 basechar 0
LayerCount: 2
Fore
SplineSet
841 1415 m 1
 606 1415 l 1
 342 1763 l 1
 687 1763 l 1
 841 1415 l 1
1025 1249 m 1
 1339 1249 l 1
 882 -80 l 2
 788 -352 622 -537 169 -440 c 1
 175 -207 l 1
 458 -267 545 -201 594 -72 c 2
 622 0 l 1
 528 0 l 1
 101 1249 l 1
 417 1249 l 1
 720 205 l 1
 1025 1249 l 1
EndSplineSet
EndChar

StartChar: z
Encoding: 122 122 202
Width: 1440
GlyphClass: 2
Flags: MW
HStem: 0 227<206 206 520 1233> 1023 226<226 903 226 1224 226 1224>
VStem: 206 1027<0 227 0 227>
AnchorPoint: "Anchor-3" 0 0 basechar 0
AnchorPoint: "Anchor-2" 0 0 basechar 0
AnchorPoint: "Anchor-1" 0 0 basechar 0
AnchorPoint: "Anchor-0" 726 1249 basechar 0
LayerCount: 2
Fore
SplineSet
206 0 m 1
 206 227 l 1
 903 1023 l 1
 226 1023 l 1
 226 1249 l 1
 1224 1249 l 1
 1224 1023 l 1
 520 227 l 1
 1233 227 l 1
 1233 0 l 1
 206 0 l 1
EndSplineSet
EndChar

StartChar: zacute
Encoding: 378 378 203
Width: 1440
GlyphClass: 2
Flags: MW
HStem: 0 227<206 206 520 1233> 1023 226<226 903 226 1224 226 1224>
VStem: 206 1027<0 227 0 227>
AnchorPoint: "Anchor-3" 0 0 basechar 0
AnchorPoint: "Anchor-2" 0 0 basechar 0
AnchorPoint: "Anchor-1" 0 0 basechar 0
AnchorPoint: "Anchor-0" 726 1249 basechar 0
LayerCount: 2
Fore
SplineSet
604 1415 m 1
 757 1763 l 1
 1103 1763 l 1
 838 1415 l 1
 604 1415 l 1
206 0 m 1
 206 227 l 1
 903 1023 l 1
 226 1023 l 1
 226 1249 l 1
 1224 1249 l 1
 1224 1023 l 1
 520 227 l 1
 1233 227 l 1
 1233 0 l 1
 206 0 l 1
EndSplineSet
EndChar

StartChar: zcaron
Encoding: 382 382 204
Width: 1440
GlyphClass: 2
Flags: MW
HStem: 0 227<520 1233 206 206> 1023 226<226 903 226 1224 226 1224>
VStem: 206 1027<0 227 0 227>
AnchorPoint: "Anchor-3" 0 0 basechar 0
AnchorPoint: "Anchor-2" 0 0 basechar 0
AnchorPoint: "Anchor-1" 0 0 basechar 0
AnchorPoint: "Anchor-0" 726 1249 basechar 0
LayerCount: 2
Fore
SplineSet
895 1415 m 1
 556 1415 l 1
 342 1763 l 1
 548 1763 l 1
 725 1562 l 1
 903 1763 l 1
 1109 1763 l 1
 895 1415 l 1
520 227 m 1
 1233 227 l 1
 1233 0 l 1
 206 0 l 1
 206 227 l 1
 903 1023 l 1
 226 1023 l 1
 226 1249 l 1
 1224 1249 l 1
 1224 1023 l 1
 520 227 l 1
EndSplineSet
EndChar

StartChar: zdotaccent
Encoding: 380 380 205
Width: 1440
GlyphClass: 2
Flags: MW
HStem: 0 227<206 206 520 1233> 1023 226<226 903 226 1224 226 1224>
VStem: 206 1027<0 227 0 227>
AnchorPoint: "Anchor-3" 0 0 basechar 0
AnchorPoint: "Anchor-2" 0 0 basechar 0
AnchorPoint: "Anchor-1" 0 0 basechar 0
AnchorPoint: "Anchor-0" 726 1249 basechar 0
LayerCount: 2
Fore
SplineSet
725 1417 m 0
 613 1417 530 1492 530 1603 c 0
 530 1712 613 1790 725 1790 c 0
 838 1790 921 1712 921 1603 c 0
 921 1492 838 1417 725 1417 c 0
206 0 m 1
 206 227 l 1
 903 1023 l 1
 226 1023 l 1
 226 1249 l 1
 1224 1249 l 1
 1224 1023 l 1
 520 227 l 1
 1233 227 l 1
 1233 0 l 1
 206 0 l 1
EndSplineSet
EndChar

StartChar: a.ss01
Encoding: 65539 -1 206
Width: 1440
GlyphClass: 2
Flags: MW
HStem: -32 229<604.5 710.5> 0 21G<1011 1254 1011 1011> 1052 228<611.5 730.5 466.5 774> 1229 20G<1002 1254 1254 1254>
VStem: 117 302<487.5 753.5 487.5 813.5> 974 280<426 812 812 812>
AnchorPoint: "Anchor-3" 0 0 basechar 0
AnchorPoint: "Anchor-2" 0 0 basechar 0
AnchorPoint: "Anchor-1" 0 0 basechar 0
AnchorPoint: "Anchor-0" 724 1249 basechar 0
LayerCount: 2
Fore
SplineSet
1002 1249 m 1x54
 1254 1249 l 1
 1254 0 l 1
 1011 0 l 1x54
 993 195 l 1
 924 41 795 -32 626 -32 c 0
 282 -32 117 258 117 629 c 0
 117 998 289 1280 644 1280 c 0xac
 817 1280 929 1213 993 1082 c 1
 1002 1249 l 1x54
699 197 m 0xac
 831 197 931 270 974 426 c 1
 974 812 l 1
 933 975 840 1052 708 1052 c 0
 515 1052 419 887 419 620 c 0
 419 355 510 197 699 197 c 0xac
EndSplineSet
EndChar

StartChar: aacute.ss01
Encoding: 65540 -1 207
Width: 1440
GlyphClass: 2
Flags: MW
HStem: -32 229<604.5 710.5> 0 21G<1011 1254 1011 1011> 1052 228<611.5 730.5 466.5 774> 1229 20G<1002 1254 1254 1254>
VStem: 117 302<487.5 753.5 487.5 813.5> 974 280<426 812 812 812>
AnchorPoint: "Anchor-3" 0 0 basechar 0
AnchorPoint: "Anchor-2" 0 0 basechar 0
AnchorPoint: "Anchor-1" 0 0 basechar 0
AnchorPoint: "Anchor-0" 724 1249 basechar 0
LayerCount: 2
Fore
SplineSet
1102 1763 m 1x54
 837 1415 l 1
 603 1415 l 1
 756 1763 l 1
 1102 1763 l 1x54
1002 1249 m 1
 1254 1249 l 1
 1254 0 l 1
 1011 0 l 1x54
 993 195 l 1
 924 41 795 -32 626 -32 c 0
 282 -32 117 258 117 629 c 0
 117 998 289 1280 644 1280 c 0xac
 817 1280 929 1213 993 1082 c 1
 1002 1249 l 1
699 197 m 0xac
 831 197 931 270 974 426 c 1
 974 812 l 1
 933 975 840 1052 708 1052 c 0
 515 1052 419 887 419 620 c 0
 419 355 510 197 699 197 c 0xac
EndSplineSet
EndChar

StartChar: abreve.ss01
Encoding: 65541 -1 208
Width: 1440
GlyphClass: 2
Flags: MW
HStem: -32 229<604.5 710.5> 0 21G<1011 1254 1011 1011> 1052 228<611.5 730.5 466.5 774> 1229 20G<1002 1254 1254 1254> 1415 179<667 784.5 667 845.5> 1732 20G<321 321 1130 1130>
VStem: 117 302<487.5 753.5 487.5 813.5> 974 280<426 812 812 812>
AnchorPoint: "Anchor-3" 0 0 basechar 0
AnchorPoint: "Anchor-2" 0 0 basechar 0
AnchorPoint: "Anchor-1" 0 0 basechar 0
AnchorPoint: "Anchor-0" 724 1249 basechar 0
LayerCount: 2
Fore
SplineSet
726 1415 m 0x5d
 487 1415 339 1526 321 1752 c 1
 511 1769 l 1
 532 1656 608 1594 726 1594 c 0
 843 1594 919 1656 940 1769 c 1
 1130 1752 l 1
 1113 1526 965 1415 726 1415 c 0x5d
1002 1249 m 1
 1254 1249 l 1
 1254 0 l 1
 1011 0 l 1x5d
 993 195 l 1
 924 41 795 -32 626 -32 c 0
 282 -32 117 258 117 629 c 0
 117 998 289 1280 644 1280 c 0xaf
 817 1280 929 1213 993 1082 c 1
 1002 1249 l 1
699 197 m 0xaf
 831 197 931 270 974 426 c 1
 974 812 l 1
 933 975 840 1052 708 1052 c 0
 515 1052 419 887 419 620 c 0
 419 355 510 197 699 197 c 0xaf
EndSplineSet
EndChar

StartChar: acircumflex.ss01
Encoding: 65542 -1 209
Width: 1440
GlyphClass: 2
Flags: MW
HStem: -32 229<604.5 710.5> 0 21G<1011 1254 1011 1011> 1052 228<611.5 730.5 466.5 774> 1229 20G<1002 1254 1254 1254> 1617 146<722 722>
VStem: 117 302<487.5 753.5 487.5 813.5> 974 280<426 812 812 812>
AnchorPoint: "Anchor-3" 0 0 basechar 0
AnchorPoint: "Anchor-2" 0 0 basechar 0
AnchorPoint: "Anchor-1" 0 0 basechar 0
AnchorPoint: "Anchor-0" 724 1249 basechar 0
LayerCount: 2
Fore
SplineSet
722 1617 m 1x5a
 544 1415 l 1
 341 1415 l 1
 549 1763 l 1
 894 1763 l 1
 1102 1415 l 1
 899 1415 l 1
 722 1617 l 1x5a
1002 1249 m 1
 1254 1249 l 1
 1254 0 l 1
 1011 0 l 1x5a
 993 195 l 1
 924 41 795 -32 626 -32 c 0
 282 -32 117 258 117 629 c 0
 117 998 289 1280 644 1280 c 0xae
 817 1280 929 1213 993 1082 c 1
 1002 1249 l 1
699 197 m 0xae
 831 197 931 270 974 426 c 1
 974 812 l 1
 933 975 840 1052 708 1052 c 0
 515 1052 419 887 419 620 c 0
 419 355 510 197 699 197 c 0xae
EndSplineSet
EndChar

StartChar: adieresis.ss01
Encoding: 65543 -1 210
Width: 1440
GlyphClass: 2
Flags: MW
HStem: -32 229<604.5 710.5> 0 21G<1011 1254 1011 1011> 1052 228<611.5 730.5 466.5 774> 1229 20G<1002 1254 1254 1254>
VStem: 117 302<487.5 753.5 487.5 813.5> 974 280<426 812 812 812>
AnchorPoint: "Anchor-3" 0 0 basechar 0
AnchorPoint: "Anchor-2" 0 0 basechar 0
AnchorPoint: "Anchor-1" 0 0 basechar 0
AnchorPoint: "Anchor-0" 724 1249 basechar 0
LayerCount: 2
Fore
SplineSet
474 1417 m 0x54
 368 1417 288 1492 288 1603 c 0
 288 1712 368 1790 474 1790 c 0
 581 1790 661 1712 661 1603 c 0
 661 1492 581 1417 474 1417 c 0x54
972 1417 m 0
 866 1417 786 1492 786 1603 c 0
 786 1712 866 1790 972 1790 c 0
 1079 1790 1159 1712 1159 1603 c 0
 1159 1492 1079 1417 972 1417 c 0
1002 1249 m 1
 1254 1249 l 1
 1254 0 l 1
 1011 0 l 1x54
 993 195 l 1
 924 41 795 -32 626 -32 c 0
 282 -32 117 258 117 629 c 0
 117 998 289 1280 644 1280 c 0xac
 817 1280 929 1213 993 1082 c 1
 1002 1249 l 1
699 197 m 0xac
 831 197 931 270 974 426 c 1
 974 812 l 1
 933 975 840 1052 708 1052 c 0
 515 1052 419 887 419 620 c 0
 419 355 510 197 699 197 c 0xac
EndSplineSet
EndChar

StartChar: agrave.ss01
Encoding: 65544 -1 211
Width: 1440
GlyphClass: 2
Flags: MW
HStem: -32 229<604.5 710.5> 0 21G<1011 1254 1011 1011> 1052 228<611.5 730.5 466.5 774> 1229 20G<1002 1254 1254 1254>
VStem: 117 302<487.5 753.5 487.5 813.5> 974 280<426 812 812 812>
AnchorPoint: "Anchor-3" 0 0 basechar 0
AnchorPoint: "Anchor-2" 0 0 basechar 0
AnchorPoint: "Anchor-1" 0 0 basechar 0
AnchorPoint: "Anchor-0" 724 1249 basechar 0
LayerCount: 2
Fore
SplineSet
846 1415 m 1x54
 611 1415 l 1
 347 1763 l 1
 692 1763 l 1
 846 1415 l 1x54
1002 1249 m 1
 1254 1249 l 1
 1254 0 l 1
 1011 0 l 1x54
 993 195 l 1
 924 41 795 -32 626 -32 c 0
 282 -32 117 258 117 629 c 0
 117 998 289 1280 644 1280 c 0xac
 817 1280 929 1213 993 1082 c 1
 1002 1249 l 1
699 197 m 0xac
 831 197 931 270 974 426 c 1
 974 812 l 1
 933 975 840 1052 708 1052 c 0
 515 1052 419 887 419 620 c 0
 419 355 510 197 699 197 c 0xac
EndSplineSet
EndChar

StartChar: aogonek.ss01
Encoding: 65545 -1 212
Width: 1440
Flags: MW
HStem: -477 21G<1036 1160> -477 196<1036 1210.5> -32 229<604.5 692.5> 0 21G<1254 1254> 1052 228<611.5 730.5 466.5 774> 1229 20G<1002 1254 1254 1254>
VStem: 117 302<487.5 753.5 487.5 813.5> 863 224<-214.5 -181.5> 974 280<426 812 812 812>
LayerCount: 2
Fore
SplineSet
1286 -265 m 1x55
 1319 -442 l 1
 1265 -466 1196 -477 1124 -477 c 0
 948 -477 863 -372 863 -233 c 0xab
 863 -130 908 -45 1003 13 c 1
 990 195 l 1
 916 39 774 -32 611 -32 c 0
 278 -32 117 258 117 629 c 0
 117 998 289 1280 644 1280 c 0xaa80
 817 1280 929 1213 993 1082 c 1
 1002 1249 l 1
 1254 1249 l 1
 1254 0 l 1x9480
 1131 -42 1087 -103 1087 -179 c 0
 1087 -250 1128 -281 1195 -281 c 0
 1226 -281 1255 -276 1286 -265 c 1x55
699 197 m 0
 831 197 931 270 974 426 c 1
 974 812 l 1x9880
 933 975 840 1052 708 1052 c 0
 515 1052 419 887 419 620 c 0
 419 355 510 197 699 197 c 0
EndSplineSet
EndChar

StartChar: aring.ss01
Encoding: 65546 -1 213
Width: 1440
GlyphClass: 2
Flags: MW
HStem: -32 229<604.5 710.5> 0 21G<1011 1254 1011 1011> 1052 228<611.5 730.5 466.5 774> 1229 20G<1002 1254 1254 1254> 1369 118<695.5 752.5 695.5 798.5> 1692 119<695.5 752.5>
VStem: 117 302<487.5 753.5 487.5 813.5> 469 159<1556 1623 1556 1663.5> 820 161<1556 1623> 974 280<426 812 812 812>
AnchorPoint: "Anchor-3" 0 0 basechar 0
AnchorPoint: "Anchor-2" 0 0 basechar 0
AnchorPoint: "Anchor-1" 0 0 basechar 0
AnchorPoint: "Anchor-0" 724 1249 basechar 0
LayerCount: 2
Fore
SplineSet
724 1369 m 0x5f40
 576 1369 469 1442 469 1590 c 0
 469 1737 576 1811 724 1811 c 0
 873 1811 981 1737 981 1590 c 0x5f80
 981 1442 873 1369 724 1369 c 0x5f40
724 1692 m 0x5f80
 667 1692 628 1656 628 1590 c 0
 628 1522 667 1487 724 1487 c 0
 781 1487 820 1522 820 1590 c 0
 820 1656 781 1692 724 1692 c 0x5f80
1002 1249 m 1x5f40
 1254 1249 l 1
 1254 0 l 1
 1011 0 l 1x5f40
 993 195 l 1
 924 41 795 -32 626 -32 c 0
 282 -32 117 258 117 629 c 0
 117 998 289 1280 644 1280 c 0xaf40
 817 1280 929 1213 993 1082 c 1
 1002 1249 l 1x5f40
699 197 m 0xaf40
 831 197 931 270 974 426 c 1
 974 812 l 1
 933 975 840 1052 708 1052 c 0
 515 1052 419 887 419 620 c 0
 419 355 510 197 699 197 c 0xaf40
EndSplineSet
EndChar

StartChar: atilde.ss01
Encoding: 65547 -1 214
Width: 1440
GlyphClass: 2
Flags: MW
HStem: -32 229<604.5 710.5> 0 21G<1011 1254 1011 1011> 1052 228<611.5 730.5 466.5 774> 1229 20G<1002 1254 1254 1254> 1426 199<878.5 923 878.5 975.5> 1544 200<526 570.5> 1719 20G<1013 1013> 1724 20G<471 575>
VStem: 117 302<487.5 753.5 487.5 813.5> 974 280<426 812 812 812>
AnchorPoint: "Anchor-3" 0 0 basechar 0
AnchorPoint: "Anchor-2" 0 0 basechar 0
AnchorPoint: "Anchor-1" 0 0 basechar 0
AnchorPoint: "Anchor-0" 724 1249 basechar 0
LayerCount: 2
Fore
SplineSet
554 1544 m 0x5440
 498 1544 461 1516 435 1430 c 1
 257 1484 l 1
 293 1662 398 1744 544 1744 c 0
 606 1744 667 1725 731 1691 c 2x5940
 777 1666 l 2
 824 1641 862 1625 895 1625 c 0
 951 1625 988 1654 1013 1739 c 1
 1191 1686 l 1
 1155 1505 1049 1426 902 1426 c 0
 841 1426 781 1445 718 1479 c 2x5a40
 672 1504 l 2
 625 1529 587 1544 554 1544 c 0x5440
1002 1249 m 1x5940
 1254 1249 l 1
 1254 0 l 1
 1011 0 l 1x5940
 993 195 l 1
 924 41 795 -32 626 -32 c 0
 282 -32 117 258 117 629 c 0
 117 998 289 1280 644 1280 c 0xa9c0
 817 1280 929 1213 993 1082 c 1
 1002 1249 l 1x5940
699 197 m 0xa9c0
 831 197 931 270 974 426 c 1
 974 812 l 1
 933 975 840 1052 708 1052 c 0
 515 1052 419 887 419 620 c 0
 419 355 510 197 699 197 c 0xa9c0
EndSplineSet
EndChar

StartChar: ordfeminine
Encoding: 170 170 215
Width: 1440
Flags: MW
HStem: 571 163<368 1083 368 1083> 876 142<633 651.5> 882 162.52 1197 130<638.5 661.5 536.5 706> 1261 20G<814 814> 1501 164<638 732.5>
VStem: 346 210<1079 1138 1079 1173.5> 814 194<1093.5 1113 1113 1165 1165 1165 1281 1361 1361 1377>
LayerCount: 2
Fore
SplineSet
625 1327 m 0xd7
 698 1327 762 1312 814 1281 c 1
 814 1361 l 2
 814 1441 785 1501 680 1501 c 0
 596 1501 547 1472 524 1399 c 1
 377 1477 l 1
 418 1597 522 1665 689 1665 c 0
 905 1665 1008 1567 1008 1377 c 2
 1008 1113 l 2
 1008 1074 1015 1034 1091 1047 c 1
 1093 900 l 1
 1060 888 1026 882 986 882 c 0xad
 902 882 848 913 827 975 c 1
 780 906 701 876 602 876 c 0
 444 876 346 965 346 1103 c 0
 346 1244 448 1327 625 1327 c 0xd7
672 1018 m 0
 732 1018 774 1034 814 1074 c 1
 814 1165 l 1xd5
 775 1187 732 1197 680 1197 c 0
 597 1197 556 1168 556 1108 c 0
 556 1050 594 1018 672 1018 c 0
368 571 m 1xcf
 368 734 l 1
 1083 734 l 1
 1083 571 l 1
 368 571 l 1xcf
EndSplineSet
EndChar

StartChar: ordmasculine
Encoding: 186 186 216
Width: 1440
Flags: MW
HStem: 567 166<363 1079 363 1079> 875 164<672 767.5 672 838.5> 1500 165<672.5 767.5>
VStem: 349 222<1187.5 1351 1187.5 1391.5> 868 222<1187.5 1350.5>
LayerCount: 2
Fore
SplineSet
720 875 m 0
 482 875 349 1025 349 1270 c 0
 349 1513 481 1665 720 1665 c 0
 957 1665 1090 1515 1090 1270 c 0
 1090 1024 957 875 720 875 c 0
720 1039 m 0
 815 1039 868 1105 868 1270 c 0
 868 1431 815 1500 720 1500 c 0
 625 1500 571 1432 571 1270 c 0
 571 1105 624 1039 720 1039 c 0
363 567 m 1
 363 733 l 1
 1079 733 l 1
 1079 567 l 1
 363 567 l 1
EndSplineSet
EndChar

StartChar: zero
Encoding: 48 48 217
Width: 1440
Flags: MW
HStem: -32 235<653.5 822.5 653.5 915.5> 1430 235<618.5 788>
VStem: 102 291<800 1023 800 1084> 1047 291<610 832.5>
LayerCount: 2
Fore
SplineSet
721 1665 m 0
 1110 1665 1338 1352 1338 816 c 0
 1338 280 1110 -32 721 -32 c 0
 330 -32 102 280 102 816 c 0
 102 1352 330 1665 721 1665 c 0
721 1430 m 0
 516 1430 393 1230 393 816 c 0
 393 784 394 753 395 723 c 1
 1006 1166 l 1
 954 1343 855 1430 721 1430 c 0
721 203 m 0
 924 203 1047 404 1047 816 c 0
 1047 849 1046 880 1045 911 c 1
 434 468 l 1
 486 290 586 203 721 203 c 0
EndSplineSet
Substitution2: "'ss03' Style Set 3 in Latin lookup 25 subtable" zero.ss03
Substitution2: "'onum' Oldstyle Figures in Latin lookup 20 subtable" zero.osf
Substitution2: "'frac' Diagonal Fractions in Latin lookup 16 subtable" zero.numr
Substitution2: "'dnom' Denominators in Latin lookup 14 subtable" zero.dnom
Substitution2: "'numr' Numerators in Latin lookup 13 subtable" zero.numr
Substitution2: "'sups' Superscript in Latin lookup 12 subtable" zero.sups
Substitution2: "'sinf' Scientific Inferiors in Latin lookup 11 subtable" zero.subs
Substitution2: "'subs' Subscript in Latin lookup 10 subtable" zero.subs
AlternateSubs2: "'aalt' Access All Alternates in Latin lookup 1 subtable" zero.subs zero.sups zero.numr zero.dnom zero.osf zero.ss03
EndChar

StartChar: one
Encoding: 49 49 218
Width: 1440
Flags: MW
HStem: 0 250<201 614 897 1279 201 614>
VStem: 614 283<250 1312 1312 1312>
LayerCount: 2
Fore
SplineSet
897 250 m 1
 1279 250 l 1
 1279 0 l 1
 201 0 l 1
 201 250 l 1
 614 250 l 1
 614 1312 l 1
 496 1230 364 1185 194 1163 c 1
 170 1429 l 1
 433 1466 633 1536 814 1689 c 1
 897 1689 l 1
 897 250 l 1
EndSplineSet
Substitution2: "'onum' Oldstyle Figures in Latin lookup 20 subtable" one.osf
Substitution2: "'frac' Diagonal Fractions in Latin lookup 16 subtable" one.numr
Substitution2: "'dnom' Denominators in Latin lookup 14 subtable" one.dnom
Substitution2: "'numr' Numerators in Latin lookup 13 subtable" one.numr
Substitution2: "'sups' Superscript in Latin lookup 12 subtable" one.sups
Substitution2: "'sinf' Scientific Inferiors in Latin lookup 11 subtable" one.subs
Substitution2: "'subs' Subscript in Latin lookup 10 subtable" one.subs
AlternateSubs2: "'aalt' Access All Alternates in Latin lookup 1 subtable" one.subs one.sups one.numr one.dnom one.osf
EndChar

StartChar: two
Encoding: 50 50 219
Width: 1440
Flags: MW
HStem: 0 251<481 1304 481 1304> 1420 245<634.5 796>
VStem: 157 324<0 267 251 267 251 313.5> 965 307<1092 1260.5>
LayerCount: 2
Fore
SplineSet
157 0 m 1
 157 184 l 2
 157 443 223 563 549 746 c 2
 725 844 l 2
 869 925 965 1010 965 1174 c 0
 965 1347 873 1420 719 1420 c 0
 550 1420 465 1343 428 1121 c 1
 144 1186 l 1
 187 1509 398 1665 728 1665 c 0
 1081 1665 1272 1499 1272 1197 c 0
 1272 920 1119 793 905 673 c 2
 674 543 l 2
 534 465 481 398 481 267 c 2
 481 251 l 1
 1304 251 l 1
 1304 0 l 1
 157 0 l 1
EndSplineSet
Substitution2: "'onum' Oldstyle Figures in Latin lookup 20 subtable" two.osf
Substitution2: "'frac' Diagonal Fractions in Latin lookup 16 subtable" two.numr
Substitution2: "'dnom' Denominators in Latin lookup 14 subtable" two.dnom
Substitution2: "'numr' Numerators in Latin lookup 13 subtable" two.numr
Substitution2: "'sups' Superscript in Latin lookup 12 subtable" two.sups
Substitution2: "'sinf' Scientific Inferiors in Latin lookup 11 subtable" two.subs
Substitution2: "'subs' Subscript in Latin lookup 10 subtable" two.subs
AlternateSubs2: "'aalt' Access All Alternates in Latin lookup 1 subtable" two.subs two.sups two.numr two.dnom two.osf
EndChar

StartChar: three
Encoding: 51 51 220
Width: 1440
Flags: MW
HStem: -32 247<617 796.5 617 892.5> 737 238<514 630 514 631> 1424 242<633 793>
VStem: 952 297<1143 1274> 997 306<393.5 566.5 314.5 585.5>
LayerCount: 2
Fore
SplineSet
932 866 m 1xe8
 1185 820 1303 670 1303 463 c 0
 1303 166 1083 -32 702 -32 c 0
 369 -32 144 110 105 430 c 1
 398 473 l 1
 428 296 537 215 697 215 c 0
 896 215 997 305 997 482 c 0xe8
 997 689 835 737 630 737 c 2
 514 737 l 1
 514 975 l 1
 631 975 l 2
 813 975 952 1019 952 1206 c 0
 952 1342 875 1424 711 1424 c 0
 555 1424 481 1350 446 1200 c 1
 163 1245 l 1
 208 1524 400 1666 716 1666 c 0
 1063 1666 1249 1512 1249 1242 c 0xf0
 1249 1044 1140 914 932 866 c 1xe8
EndSplineSet
Substitution2: "'onum' Oldstyle Figures in Latin lookup 20 subtable" three.osf
Substitution2: "'frac' Diagonal Fractions in Latin lookup 16 subtable" three.numr
Substitution2: "'dnom' Denominators in Latin lookup 14 subtable" three.dnom
Substitution2: "'numr' Numerators in Latin lookup 13 subtable" three.numr
Substitution2: "'sups' Superscript in Latin lookup 12 subtable" three.sups
Substitution2: "'sinf' Scientific Inferiors in Latin lookup 11 subtable" three.subs
Substitution2: "'subs' Subscript in Latin lookup 10 subtable" three.subs
AlternateSubs2: "'aalt' Access All Alternates in Latin lookup 1 subtable" three.subs three.sups three.numr three.dnom three.osf
EndChar

StartChar: four
Encoding: 52 52 221
Width: 1440
Flags: MW
HStem: 0 21G<878 1153 878 878> 421.5 237 1613 20G<878 1153 1153 1153> 1634 20G<325 325>
VStem: 325 284<1624 1654> 878 275<0 422 0 422 658 1633>
LayerCount: 2
Fore
SplineSet
1378 658 m 1
 1378 422 l 1
 1153 422 l 1
 1153 0 l 1
 878 0 l 1
 878 422 l 1
 129 421 l 1
 81 507 l 1
 270 840 336 1222 325 1654 c 1
 609 1624 l 1xdc
 617 1250 562 923 423 659 c 1
 878 658 l 1
 878 1633 l 1
 1153 1633 l 1xe4
 1153 658 l 1
 1378 658 l 1
EndSplineSet
Substitution2: "'onum' Oldstyle Figures in Latin lookup 20 subtable" four.osf
Substitution2: "'frac' Diagonal Fractions in Latin lookup 16 subtable" four.numr
Substitution2: "'dnom' Denominators in Latin lookup 14 subtable" four.dnom
Substitution2: "'numr' Numerators in Latin lookup 13 subtable" four.numr
Substitution2: "'sups' Superscript in Latin lookup 12 subtable" four.sups
Substitution2: "'sinf' Scientific Inferiors in Latin lookup 11 subtable" four.subs
Substitution2: "'subs' Subscript in Latin lookup 10 subtable" four.subs
AlternateSubs2: "'aalt' Access All Alternates in Latin lookup 1 subtable" four.subs four.sups four.numr four.dnom four.osf
EndChar

StartChar: five
Encoding: 53 53 222
Width: 1440
Flags: MW
HStem: -32 245<634.5 809.5 634.5 883> 836 226<744 828.5> 1383 250<546 1240 546 546>
VStem: 1018 279<427.5 626>
LayerCount: 2
Fore
SplineSet
815 1062 m 0
 1119 1062 1297 864 1297 537 c 0
 1297 167 1058 -32 708 -32 c 0
 401 -32 196 102 130 405 c 1
 410 449 l 1
 453 282 557 213 712 213 c 0
 907 213 1018 323 1018 532 c 0
 1018 720 922 836 735 836 c 0
 611 836 518 791 439 696 c 1
 198 799 l 1
 316 1633 l 1
 1240 1633 l 1
 1240 1383 l 1
 546 1383 l 1
 479 947 l 1
 567 1027 673 1062 815 1062 c 0
EndSplineSet
Substitution2: "'onum' Oldstyle Figures in Latin lookup 20 subtable" five.osf
Substitution2: "'frac' Diagonal Fractions in Latin lookup 16 subtable" five.numr
Substitution2: "'dnom' Denominators in Latin lookup 14 subtable" five.dnom
Substitution2: "'numr' Numerators in Latin lookup 13 subtable" five.numr
Substitution2: "'sups' Superscript in Latin lookup 12 subtable" five.sups
Substitution2: "'sinf' Scientific Inferiors in Latin lookup 11 subtable" five.subs
Substitution2: "'subs' Subscript in Latin lookup 10 subtable" five.subs
AlternateSubs2: "'aalt' Access All Alternates in Latin lookup 1 subtable" five.subs five.sups five.numr five.dnom five.osf
EndChar

StartChar: six
Encoding: 54 54 223
Width: 1440
Flags: MW
HStem: -32 245<678 843.5 678 920.5> 833 232<723.5 853.5> 1420 245<678.5 892.5>
VStem: 141 270 1039 290<427 626>
LayerCount: 2
Fore
SplineSet
817 1065 m 0
 1137 1065 1329 853 1329 531 c 0
 1329 169 1082 -32 759 -32 c 0
 391 -32 141 221 141 799 c 0
 141 1387 394 1665 828 1665 c 0
 1004 1665 1149 1617 1278 1510 c 1
 1157 1289 l 1
 1065 1376 956 1420 829 1420 c 0
 528 1420 423 1190 411 845 c 1
 491 988 630 1065 817 1065 c 0
757 213 m 0
 930 213 1039 324 1039 530 c 0
 1039 722 940 833 767 833 c 0
 588 833 474 717 443 524 c 1
 481 314 599 213 757 213 c 0
EndSplineSet
Substitution2: "'onum' Oldstyle Figures in Latin lookup 20 subtable" six.osf
Substitution2: "'frac' Diagonal Fractions in Latin lookup 16 subtable" six.numr
Substitution2: "'dnom' Denominators in Latin lookup 14 subtable" six.dnom
Substitution2: "'numr' Numerators in Latin lookup 13 subtable" six.numr
Substitution2: "'sups' Superscript in Latin lookup 12 subtable" six.sups
Substitution2: "'sinf' Scientific Inferiors in Latin lookup 11 subtable" six.subs
Substitution2: "'subs' Subscript in Latin lookup 10 subtable" six.subs
AlternateSubs2: "'aalt' Access All Alternates in Latin lookup 1 subtable" six.subs six.sups six.numr six.dnom six.osf
EndChar

StartChar: seven
Encoding: 55 55 224
Width: 1440
Flags: MW
HStem: -29 21G<756 756> -2 21G<446 446> 1383 250<138 1030 138 1302> 1414 219<138 1302>
VStem: 446 310<-29 -2>
LayerCount: 2
Fore
SplineSet
138 1633 m 1x68
 1302 1633 l 1x68
 1302 1414 l 1
 844 973 748 559 756 -29 c 1x98
 446 -2 l 1
 439 559 603 1019 1030 1383 c 1
 138 1383 l 1
 138 1633 l 1x68
EndSplineSet
Substitution2: "'onum' Oldstyle Figures in Latin lookup 20 subtable" seven.osf
Substitution2: "'frac' Diagonal Fractions in Latin lookup 16 subtable" seven.numr
Substitution2: "'dnom' Denominators in Latin lookup 14 subtable" seven.dnom
Substitution2: "'numr' Numerators in Latin lookup 13 subtable" seven.numr
Substitution2: "'sups' Superscript in Latin lookup 12 subtable" seven.sups
Substitution2: "'sinf' Scientific Inferiors in Latin lookup 11 subtable" seven.subs
Substitution2: "'subs' Subscript in Latin lookup 10 subtable" seven.subs
AlternateSubs2: "'aalt' Access All Alternates in Latin lookup 1 subtable" seven.subs seven.sups seven.numr seven.dnom seven.osf
EndChar

StartChar: eight
Encoding: 56 56 225
Width: 1440
Flags: MW
HStem: -32 239<627.5 812 627.5 906.5> 724 231<639.5 800.5 639.5 812> 1445 220<636 803.5>
VStem: 119 313<386 543.5> 164 300<1130 1272 1122 1357> 976 300<1130 1272> 1007 313<386 543.5 292 549.5>
LayerCount: 2
Fore
SplineSet
1015 846 m 1xe2
 1211 782 1320 644 1320 443 c 0
 1320 141 1093 -32 720 -32 c 0
 348 -32 119 141 119 443 c 0xf2
 119 644 228 782 424 847 c 1
 256 910 164 1038 164 1222 c 0
 164 1492 392 1665 720 1665 c 0
 1047 1665 1276 1492 1276 1222 c 0xec
 1276 1038 1184 910 1015 846 c 1xe2
720 1445 m 0xec
 552 1445 464 1345 464 1199 c 0
 464 1045 559 955 720 955 c 0
 881 955 976 1045 976 1199 c 0
 976 1345 887 1445 720 1445 c 0xec
720 207 m 0xf2
 904 207 1007 301 1007 471 c 0
 1007 628 904 724 720 724 c 0
 536 724 432 628 432 471 c 0
 432 301 535 207 720 207 c 0xf2
EndSplineSet
Substitution2: "'onum' Oldstyle Figures in Latin lookup 20 subtable" eight.osf
Substitution2: "'frac' Diagonal Fractions in Latin lookup 16 subtable" eight.numr
Substitution2: "'dnom' Denominators in Latin lookup 14 subtable" eight.dnom
Substitution2: "'numr' Numerators in Latin lookup 13 subtable" eight.numr
Substitution2: "'sups' Superscript in Latin lookup 12 subtable" eight.sups
Substitution2: "'sinf' Scientific Inferiors in Latin lookup 11 subtable" eight.subs
Substitution2: "'subs' Subscript in Latin lookup 10 subtable" eight.subs
AlternateSubs2: "'aalt' Access All Alternates in Latin lookup 1 subtable" eight.subs eight.sups eight.numr eight.dnom eight.osf
EndChar

StartChar: nine
Encoding: 57 57 226
Width: 1440
Flags: MW
HStem: -32 245<547.5 761.5 547.5 829> 568 232<586.5 716.5> 1420 245<596.5 762>
VStem: 111 290<1007 1206 1007 1283> 1029 270
LayerCount: 2
Fore
SplineSet
681 1665 m 0
 1049 1665 1299 1412 1299 834 c 0
 1299 246 1046 -32 612 -32 c 0
 436 -32 291 16 162 123 c 1
 283 344 l 1
 375 257 484 213 611 213 c 0
 912 213 1017 443 1029 788 c 1
 949 645 810 568 623 568 c 0
 303 568 111 780 111 1102 c 0
 111 1464 358 1665 681 1665 c 0
673 800 m 0
 852 800 966 916 997 1109 c 1
 959 1319 841 1420 683 1420 c 0
 510 1420 401 1309 401 1103 c 0
 401 911 500 800 673 800 c 0
EndSplineSet
Substitution2: "'onum' Oldstyle Figures in Latin lookup 20 subtable" nine.osf
Substitution2: "'frac' Diagonal Fractions in Latin lookup 16 subtable" nine.numr
Substitution2: "'dnom' Denominators in Latin lookup 14 subtable" nine.dnom
Substitution2: "'numr' Numerators in Latin lookup 13 subtable" nine.numr
Substitution2: "'sups' Superscript in Latin lookup 12 subtable" nine.sups
Substitution2: "'sinf' Scientific Inferiors in Latin lookup 11 subtable" nine.subs
Substitution2: "'subs' Subscript in Latin lookup 10 subtable" nine.subs
AlternateSubs2: "'aalt' Access All Alternates in Latin lookup 1 subtable" nine.subs nine.sups nine.numr nine.dnom nine.osf
EndChar

StartChar: zero.osf
Encoding: 65548 -1 227
Width: 1440
Flags: MW
HStem: -32 232<660 821 660 914> 1236 232<620 781>
VStem: 106 288<700 894.5 700 952> 1046 288<541 734.5>
LayerCount: 2
Fore
SplineSet
721 1468 m 0
 1108 1468 1334 1187 1334 717 c 0
 1334 248 1107 -32 721 -32 c 0
 333 -32 106 248 106 717 c 0
 106 1187 333 1468 721 1468 c 0
721 1236 m 0
 519 1236 394 1072 394 717 c 0
 394 683 395 651 397 620 c 1
 990 1052 l 1
 935 1177 841 1236 721 1236 c 0
721 200 m 0
 921 200 1046 365 1046 717 c 0
 1046 752 1045 785 1042 817 c 1
 450 385 l 1
 505 260 599 200 721 200 c 0
EndSplineSet
Substitution2: "'ss03' Style Set 3 in Latin lookup 25 subtable" zero.osf.ss03
Substitution2: "'lnum' Lining Figures in Latin lookup 19 subtable" zero
AlternateSubs2: "'aalt' Access All Alternates in Latin lookup 1 subtable" zero zero.osf.ss03
EndChar

StartChar: one.osf
Encoding: 65549 -1 228
Width: 1440
Flags: MW
HStem: 0 250<201 614 897 1279 201 614>
VStem: 614 283<250 1114 1114 1114>
LayerCount: 2
Fore
SplineSet
897 250 m 1
 1279 250 l 1
 1279 0 l 1
 201 0 l 1
 201 250 l 1
 614 250 l 1
 614 1114 l 1
 497 1032 364 988 194 966 c 1
 170 1232 l 1
 433 1269 633 1339 814 1492 c 1
 897 1492 l 1
 897 250 l 1
EndSplineSet
Substitution2: "'lnum' Lining Figures in Latin lookup 19 subtable" one
AlternateSubs2: "'aalt' Access All Alternates in Latin lookup 1 subtable" one
EndChar

StartChar: two.osf
Encoding: 65550 -1 229
Width: 1440
Flags: MW
HStem: 0 250<496 1296 496 1296> 1224 244<636.5 793.5>
VStem: 154 1142<0 1023> 954 312<952 1093.5>
LayerCount: 2
Fore
SplineSet
496 250 m 1xe0
 1296 250 l 1
 1296 0 l 1
 165 0 l 1
 165 171 l 2
 165 356 182 476 551 660 c 2
 721 745 l 2
 852 811 954 880 954 1024 c 0
 954 1163 867 1224 720 1224 c 0
 553 1224 475 1151 440 966 c 1
 154 1023 l 1
 194 1322 405 1468 729 1468 c 0
 1079 1468 1266 1314 1266 1051 c 0xd0
 1266 812 1128 702 904 587 c 2
 676 469 l 2
 564 412 509 311 496 250 c 1xe0
EndSplineSet
Substitution2: "'lnum' Lining Figures in Latin lookup 19 subtable" two
AlternateSubs2: "'aalt' Access All Alternates in Latin lookup 1 subtable" two
EndChar

StartChar: three.osf
Encoding: 65551 -1 230
Width: 1440
Flags: MW
HStem: -228 246<617 796.5 617 892.5> 538 239<514 630 514 631> 1226 242<633.5 793>
VStem: 952 297<944.5 1076.5> 997 306<197 370 117 389>
LayerCount: 2
Fore
SplineSet
931 667 m 1xe8
 1183 624 1303 475 1303 265 c 0
 1303 -31 1083 -228 702 -228 c 0
 373 -228 145 -90 105 232 c 1
 398 276 l 1
 428 98 537 18 697 18 c 0
 896 18 997 109 997 285 c 0xe8
 997 493 834 538 630 538 c 2
 514 538 l 1
 514 777 l 1
 631 777 l 2
 810 777 952 818 952 1009 c 0
 952 1144 875 1226 711 1226 c 0
 556 1226 481 1152 446 1002 c 1
 163 1047 l 1
 208 1326 399 1468 716 1468 c 0
 1063 1468 1249 1314 1249 1044 c 0xf0
 1249 845 1138 716 931 667 c 1xe8
EndSplineSet
Substitution2: "'lnum' Lining Figures in Latin lookup 19 subtable" three
AlternateSubs2: "'aalt' Access All Alternates in Latin lookup 1 subtable" three
EndChar

StartChar: four.osf
Encoding: 65552 -1 231
Width: 1440
Flags: MW
HStem: 230.5 237 1416 20G<878 1153 1153 1153> 1435 20G<325 325>
VStem: 325 283<1425 1455> 878 275<-197 231 -197 231 467 1436>
LayerCount: 2
Fore
SplineSet
1378 467 m 1xa8
 1378 231 l 1
 1153 231 l 1
 1153 -197 l 1
 878 -197 l 1
 878 231 l 1
 129 230 l 1
 81 316 l 1
 269 649 336 1023 325 1455 c 1
 608 1425 l 1xb8
 615 1054 563 733 426 468 c 1
 878 467 l 1
 878 1436 l 1
 1153 1436 l 1xc8
 1153 467 l 1
 1378 467 l 1xa8
EndSplineSet
Substitution2: "'lnum' Lining Figures in Latin lookup 19 subtable" four
AlternateSubs2: "'aalt' Access All Alternates in Latin lookup 1 subtable" four
EndChar

StartChar: five.osf
Encoding: 65553 -1 232
Width: 1440
Flags: MW
HStem: -228 244<634 809 634 883> 639 226<743.5 828.5> 1186 250<546 1240 546 546>
VStem: 1018 279<230 429>
LayerCount: 2
Fore
SplineSet
815 865 m 0
 1119 865 1297 667 1297 340 c 0
 1297 -30 1058 -228 708 -228 c 0
 401 -228 196 -95 130 208 c 1
 410 252 l 1
 453 86 556 16 712 16 c 0
 906 16 1018 125 1018 335 c 0
 1018 523 922 639 735 639 c 0
 612 639 519 596 439 499 c 1
 198 601 l 1
 316 1436 l 1
 1240 1436 l 1
 1240 1186 l 1
 546 1186 l 1
 480 750 l 1
 567 830 672 865 815 865 c 0
EndSplineSet
Substitution2: "'lnum' Lining Figures in Latin lookup 19 subtable" five
AlternateSubs2: "'aalt' Access All Alternates in Latin lookup 1 subtable" five
EndChar

StartChar: six.osf
Encoding: 65554 -1 233
Width: 1440
Flags: MW
HStem: -32 245<670.5 836 670.5 913> 833 232<716 846> 1420 245<672 885.5>
VStem: 133 271 1031 290<427 626>
LayerCount: 2
Fore
SplineSet
810 1065 m 0
 1129 1065 1321 853 1321 531 c 0
 1321 169 1074 -32 752 -32 c 0
 383 -32 133 221 133 799 c 0
 133 1387 386 1665 821 1665 c 0
 996 1665 1142 1617 1270 1510 c 1
 1149 1289 l 1
 1057 1376 949 1420 822 1420 c 0
 522 1420 416 1190 404 846 c 1
 484 988 622 1065 810 1065 c 0
749 213 m 0
 923 213 1031 324 1031 530 c 0
 1031 722 933 833 759 833 c 0
 580 833 466 716 436 523 c 1
 474 314 592 213 749 213 c 0
EndSplineSet
Substitution2: "'lnum' Lining Figures in Latin lookup 19 subtable" six
AlternateSubs2: "'aalt' Access All Alternates in Latin lookup 1 subtable" six
EndChar

StartChar: seven.osf
Encoding: 65555 -1 234
Width: 1440
Flags: MW
HStem: 1186 250<138 1030 138 1302> 1217 219<138 1302>
VStem: 446 310<-226 -199>
LayerCount: 2
Fore
SplineSet
138 1436 m 1xa0
 1302 1436 l 1xa0
 1302 1217 l 1x60
 845 775 748 362 756 -226 c 1
 446 -199 l 1
 439 365 606 823 1030 1186 c 1
 138 1186 l 1
 138 1436 l 1xa0
EndSplineSet
Substitution2: "'lnum' Lining Figures in Latin lookup 19 subtable" seven
AlternateSubs2: "'aalt' Access All Alternates in Latin lookup 1 subtable" seven
EndChar

StartChar: eight.osf
Encoding: 65556 -1 235
Width: 1440
Flags: MW
HStem: -32 239<627.5 812 627.5 906.5> 724 231<639.5 800.5 639.5 812> 1444 221<636 803.5>
VStem: 119 313<386 543.5> 164 300<1129.5 1272 1122 1357> 976 300<1129.5 1272> 1007 313<386 543.5 292 549.5>
LayerCount: 2
Fore
SplineSet
1014 846 m 1xe2
 1211 782 1320 644 1320 443 c 0
 1320 141 1093 -32 720 -32 c 0
 348 -32 119 141 119 443 c 0xf2
 119 644 228 782 425 846 c 1
 256 910 164 1037 164 1222 c 0
 164 1492 392 1665 720 1665 c 0
 1047 1665 1276 1492 1276 1222 c 0xec
 1276 1037 1184 909 1014 846 c 1xe2
720 1444 m 0xec
 552 1444 464 1345 464 1199 c 0
 464 1045 559 955 720 955 c 0
 881 955 976 1045 976 1199 c 0
 976 1345 887 1444 720 1444 c 0xec
720 207 m 0xf2
 904 207 1007 301 1007 471 c 0
 1007 628 904 724 720 724 c 0
 536 724 432 628 432 471 c 0
 432 301 535 207 720 207 c 0xf2
EndSplineSet
Substitution2: "'lnum' Lining Figures in Latin lookup 19 subtable" eight
AlternateSubs2: "'aalt' Access All Alternates in Latin lookup 1 subtable" eight
EndChar

StartChar: nine.osf
Encoding: 65557 -1 236
Width: 1440
Flags: MW
HStem: -228 244<554.5 768 554.5 836.5> 371 232<594 724> 1224 244<604 769.5>
VStem: 119 290<810 1009 810 1086.5> 1036 271
LayerCount: 2
Fore
SplineSet
688 1468 m 0
 1057 1468 1307 1215 1307 638 c 0
 1307 49 1054 -228 619 -228 c 0
 444 -228 298 -181 170 -73 c 1
 291 147 l 1
 383 60 491 16 618 16 c 0
 918 16 1024 247 1036 590 c 1
 956 449 818 371 630 371 c 0
 311 371 119 584 119 906 c 0
 119 1267 366 1468 688 1468 c 0
681 603 m 0
 860 603 974 721 1004 913 c 1
 966 1123 848 1224 691 1224 c 0
 517 1224 409 1112 409 906 c 0
 409 714 507 603 681 603 c 0
EndSplineSet
Substitution2: "'lnum' Lining Figures in Latin lookup 19 subtable" nine
AlternateSubs2: "'aalt' Access All Alternates in Latin lookup 1 subtable" nine
EndChar

